<svg width="260" height="216" viewBox="0 0 260 216" fill="none" xmlns="http://www.w3.org/2000/svg">
    <g clip-path="url(#clip0_144_496)">
        <g clip-path="url(#clip1_144_496)">
            <path d="M182.964 180.422C191.42 180.422 198.275 187.297 198.275 195.777V261.645C198.275 270.125 191.42 276.999 182.964 276.999C174.509 276.999 167.654 270.125 167.654 261.645V195.777C167.654 187.298 174.509 180.423 182.964 180.423V180.422Z" fill="#A4C639"/>
            <path d="M148.011 101.23C147.96 101.813 147.916 102.401 147.916 102.997V202.793C147.916 213.525 156.387 222.172 166.903 222.172H268.098C278.615 222.172 287.086 213.524 287.086 202.793V102.997C287.086 102.401 287.064 101.811 287.015 101.23H148.011Z" fill="#A4C639"/>
            <path d="M153.781 32.6172L169.932 60.6723M281.219 32.6172L265.068 60.6723" stroke="#A4C639" stroke-width="4.0601" stroke-linecap="round" stroke-linejoin="round"/>
            <path fill-rule="evenodd" clip-rule="evenodd" d="M267.349 195.777C267.349 187.297 260.494 180.422 252.038 180.422V180.423C243.583 180.423 236.728 187.298 236.728 195.777V261.645C236.728 270.126 243.583 276.999 252.038 276.999C260.494 276.999 267.349 270.126 267.349 261.645V195.777ZM138.625 125.467C138.625 116.987 131.77 110.112 123.315 110.112C114.858 110.112 108.003 116.988 108.004 125.468V191.336C108.004 199.815 114.859 206.69 123.315 206.69C131.77 206.69 138.625 199.815 138.625 191.335V125.467ZM326.997 125.467C326.997 116.987 320.142 110.112 311.687 110.112C303.231 110.112 296.376 116.988 296.376 125.468V191.336C296.376 199.815 303.231 206.69 311.687 206.69C320.142 206.69 326.997 199.815 326.997 191.335V125.467ZM209.806 35.5762C175.561 38.8884 148.882 64.0216 148.457 94.6753H286.542C286.116 64.0238 259.44 38.8895 225.193 35.5762H209.806ZM189.033 74.9846C193.409 74.9728 196.945 71.4891 196.932 67.2043V67.1611C196.919 62.8741 193.362 59.412 188.989 59.4239C184.614 59.4357 181.078 62.9183 181.09 67.2043V67.2474C181.103 71.5322 184.659 74.9954 189.033 74.9846ZM248.161 74.9846C252.536 74.9728 256.072 71.4891 256.06 67.2043V67.1611C256.047 62.8741 252.49 59.412 248.117 59.4239C243.742 59.4357 240.206 62.9183 240.218 67.2043V67.2474C240.23 71.5322 243.787 74.9954 248.161 74.9846Z" fill="#A4C639"/>
        </g>
        <path d="M81.5606 172.325L45.1002 186.317C43.8886 186.778 42.5432 186.741 41.3588 186.215C40.1743 185.689 39.2472 184.717 38.7804 183.511L19.3246 133.144C19.0945 132.546 18.9848 131.908 19.0017 131.268C19.0186 130.628 19.1619 129.997 19.4234 129.412C19.6848 128.827 20.0593 128.299 20.5255 127.859C20.9916 127.418 21.5403 127.073 22.1402 126.844L45.2723 118L70.2883 129.539L84.366 166.025C84.8314 167.231 84.7973 168.573 84.2713 169.754C83.7452 170.935 82.7703 171.86 81.5606 172.325Z" fill="#009960"/>
        <path d="M45.2695 118L50.7386 132.134C51.1715 133.258 52.0345 134.165 53.1379 134.655C54.2412 135.146 55.4947 135.179 56.6229 134.749L70.2855 129.509L45.2695 118Z" fill="black" fill-opacity="0.2"/>
        <path d="M51.4102 133.345C51.8338 134.414 52.6108 135.307 53.6127 135.876C54.6145 136.445 55.7811 136.656 56.9197 136.475L57.4059 136.404C59.3099 136.031 71.8584 133.618 71.7571 133.375L70.2886 129.569L56.626 134.809C56.626 134.809 53.1623 135.97 51.4102 133.345Z" fill="black" fill-opacity="0.4"/>
        <path d="M47.4584 132.76C47.5293 132.941 43.8023 134.547 39.1434 136.333C34.4846 138.12 30.6461 139.413 30.5752 139.231C30.5043 139.049 34.2314 137.454 38.8902 135.667C43.5491 133.88 47.3875 132.578 47.4584 132.76Z" fill="black" fill-opacity="0.2"/>
        <path d="M61.4556 136.596C61.5164 136.778 55.3789 139.312 47.6918 142.25C40.0047 145.188 33.7356 147.429 33.6647 147.247C33.5938 147.065 39.7414 144.531 47.4285 141.594C55.1156 138.656 61.3645 136.415 61.4556 136.596Z" fill="black" fill-opacity="0.2"/>
        <path d="M66.5312 142.331C66.6021 142.513 59.8873 145.259 51.5216 148.459C43.156 151.659 36.3298 154.112 36.2488 153.931C36.1677 153.749 42.9028 151.003 51.2684 147.803C59.6341 144.602 66.4299 142.139 66.5312 142.331Z" fill="black" fill-opacity="0.2"/>
        <path d="M68.9725 148.64C69.0434 148.822 62.3184 151.568 53.9528 154.768C45.5871 157.969 38.7609 160.432 38.69 160.25C38.6191 160.069 45.3339 157.313 53.6996 154.112C62.0652 150.912 68.9016 148.459 68.9725 148.64Z" fill="black" fill-opacity="0.2"/>
        <path d="M71.4023 154.95C71.4732 155.132 64.7483 157.878 56.3927 161.079C48.0372 164.279 41.2009 166.742 41.1199 166.56C41.0388 166.379 47.7739 163.633 56.1395 160.422C64.5052 157.212 71.3314 154.769 71.4023 154.95Z" fill="black" fill-opacity="0.2"/>
        <path d="M73.8421 161.26C73.913 161.442 67.1881 164.188 58.8224 167.388C50.4568 170.588 43.6306 173.052 43.5496 172.87C43.4685 172.688 50.2036 169.942 58.5692 166.732C66.9349 163.521 73.7712 161.078 73.8421 161.26Z" fill="black" fill-opacity="0.2"/>
        <path d="M100.373 66.1434L70.2324 49.637C69.232 49.0893 68.4907 48.168 68.1716 47.0756C67.8525 45.9832 67.9818 44.8092 68.5309 43.8118L91.4504 2.21758C92.0015 1.22204 92.9266 0.485287 94.0223 0.169162C95.118 -0.146962 96.2948 -0.0166016 97.2942 0.531598L116.416 11.0008L122.837 34.3017L106.197 64.4575C105.646 65.4476 104.724 66.1805 103.633 66.4963C102.542 66.8121 101.371 66.6853 100.373 66.1434Z" fill="#009960"/>
        <path d="M116.415 11.001L109.964 22.7019C109.464 23.6322 109.35 24.7203 109.645 25.7335C109.94 26.7467 110.622 27.6044 111.543 28.1233L122.836 34.3018L116.415 11.001Z" fill="black" fill-opacity="0.2"/>
        <path d="M109.551 23.812C109.07 24.7027 108.907 25.7306 109.092 26.7256C109.276 27.7206 109.795 28.6231 110.564 29.2839C110.665 29.3848 110.777 29.4757 110.888 29.5665C112.215 30.6367 121.016 37.6431 121.097 37.4513L122.829 34.3014L111.536 28.1229C111.536 28.1229 108.781 26.4773 109.551 23.812Z" fill="black" fill-opacity="0.4"/>
        <path d="M107.706 20.8442C105.256 19.8417 102.886 18.6537 100.617 17.2905C96.7682 15.1805 93.7096 13.3532 93.7906 13.2523C93.8717 13.1513 97.0619 14.6859 100.88 16.7959C104.698 18.9058 107.787 20.6928 107.706 20.8442Z" fill="black" fill-opacity="0.2"/>
        <path d="M113.063 32.3936C112.982 32.545 107.777 29.8495 101.436 26.3362C95.0964 22.8229 89.9919 19.9759 90.1034 19.8245C90.2148 19.673 95.3901 22.3585 101.73 25.8819C108.07 29.4053 113.144 32.2421 113.063 32.3936Z" fill="black" fill-opacity="0.2"/>
        <path d="M112.08 39.0467C111.999 39.1982 106.327 36.2502 99.4202 32.4744C92.513 28.6987 86.9527 25.4983 87.0641 25.3469C87.1756 25.1955 92.8067 28.1434 99.724 31.9293C106.641 35.7152 112.161 38.8953 112.08 39.0467Z" fill="black" fill-opacity="0.2"/>
        <path d="M109.236 44.2662C109.155 44.4176 103.483 41.4697 96.5757 37.6838C89.6684 33.8979 84.1386 30.7178 84.2196 30.6168C84.3007 30.5159 89.9723 33.4032 96.8795 37.1891C103.787 40.975 109.296 44.1148 109.236 44.2662Z" fill="black" fill-opacity="0.2"/>
        <path d="M106.337 49.4754C106.246 49.6269 100.585 46.6789 93.6776 42.9032C86.7704 39.1274 81.2304 35.927 81.3114 35.7756C81.3924 35.6242 87.0641 38.5721 93.9713 42.358C100.879 46.1439 106.419 49.324 106.337 49.4754Z" fill="black" fill-opacity="0.2"/>
        <path d="M103.462 54.6949C103.381 54.8463 97.7098 51.8984 90.8026 48.1125C83.8954 44.3266 78.3554 41.1364 78.4364 41.0456C78.5174 40.9547 84.1891 43.832 91.1064 47.6178C98.0238 51.4037 103.544 54.5435 103.462 54.6949Z" fill="black" fill-opacity="0.2"/>
        <path d="M36.8926 72.3746L15.9076 86.1249C15.5633 86.3521 15.1774 86.5093 14.772 86.5876C14.3666 86.6659 13.9497 86.6638 13.5452 86.5813C13.1407 86.4987 12.7564 86.3375 12.4145 86.1067C12.0726 85.876 11.7797 85.5803 11.5526 85.2365L-7.54866 56.272C-8.00478 55.5784 -8.16604 54.7326 -7.99703 53.9206C-7.82802 53.1085 -7.34256 52.3965 -6.64728 51.9409L6.66079 43.2183L23.9491 47.0445L37.794 68.0335C38.2506 68.7287 38.4122 69.576 38.2432 70.3897C38.0742 71.2034 37.5886 71.9172 36.8926 72.3746Z" fill="#009960"/>
        <path d="M6.66016 43.2183L12.0381 51.3655C12.4657 52.0102 13.1324 52.4594 13.8919 52.6146C14.6514 52.7698 15.4417 52.6183 16.0892 52.1933L23.9485 47.0445L6.66016 43.2183Z" fill="black" fill-opacity="0.2"/>
        <path d="M12.6152 52.0018C13.0292 52.6138 13.6398 53.0673 14.3466 53.2875C15.0535 53.5077 15.8144 53.4815 16.5043 53.2133L16.7981 53.1022C17.9425 52.6075 25.4979 49.387 25.3966 49.2254L23.9484 47.0347L16.0891 52.1936C16.0891 52.1936 14.0838 53.4152 12.6152 52.0018Z" fill="black" fill-opacity="0.4"/>
        <path d="M10.0642 52.1831C8.57376 53.4225 6.99282 54.5496 5.33449 55.5551C3.75793 56.6966 2.09155 57.7094 0.351562 58.5838C1.84058 57.3425 3.42167 56.2153 5.08129 55.2118C6.66076 54.0746 8.32678 53.062 10.0642 52.1831Z" fill="black" fill-opacity="0.2"/>
        <path d="M19.3397 52.6781C19.4106 52.7891 15.8861 55.2121 11.4703 58.1095C7.05452 61.007 3.42873 63.2583 3.36796 63.1574C3.3072 63.0564 6.82158 60.6234 11.2374 57.7259C15.6531 54.8285 19.3397 52.5771 19.3397 52.6781Z" fill="black" fill-opacity="0.2"/>
        <path d="M23.3914 55.5855C23.4522 55.6966 19.6137 58.3316 14.803 61.4814C9.9922 64.6313 6.03218 67.1047 5.97142 67.0037C5.91065 66.9028 9.739 64.2577 14.5498 61.1078C19.3605 57.958 23.28 55.4845 23.3914 55.5855Z" fill="black" fill-opacity="0.2"/>
        <path d="M25.7413 59.2199C25.8122 59.3209 21.9636 61.9659 17.1528 65.1158C12.3421 68.2656 8.39217 70.7391 8.32128 70.6381C8.25038 70.5372 12.099 67.8921 16.9098 64.7321C21.7205 61.5722 25.6704 59.0685 25.7413 59.2199Z" fill="black" fill-opacity="0.2"/>
        <path d="M28.1319 62.8443C28.2028 62.9553 24.3643 65.5903 19.5536 68.7402C14.7428 71.89 10.7828 74.3736 10.7119 74.2625C10.641 74.1515 14.4896 71.5165 19.3004 68.3666C24.1111 65.2168 28.0711 62.7433 28.1319 62.8443Z" fill="black" fill-opacity="0.2"/>
        <path d="M30.5323 66.4791C30.6032 66.58 26.7546 69.2251 21.9438 72.3749C17.1331 75.5248 13.1832 77.9982 13.1123 77.8973C13.0414 77.7963 16.8799 75.1512 21.6906 72.0014C26.5014 68.8515 30.4817 66.3781 30.5323 66.4791Z" fill="black" fill-opacity="0.2"/>
    </g>
    <defs>
        <clipPath id="clip0_144_496">
            <rect width="260" height="216" fill="white"/>
        </clipPath>
        <clipPath id="clip1_144_496">
            <rect width="219" height="246" fill="white" transform="translate(108 31)"/>
        </clipPath>
    </defs>
</svg>
