<svg width="828" height="170" viewBox="0 0 828 170" fill="none" xmlns="http://www.w3.org/2000/svg">
<g clip-path="url(#clip0_144_1848)">
<path d="M238.064 34.3601L203.491 33.7801L220.332 55.3901L238.064 34.3601Z" fill="#EBEBEB"/>
<path d="M221.995 17.4099L227.859 17.4099L227.859 11.5599L221.995 11.5599L221.995 17.4099Z" fill="#EBEBEB"/>
<path d="M216.401 11.01L222.266 11.01L222.266 5.16002L216.401 5.16002L216.401 11.01Z" fill="#EBEBEB"/>
<path d="M223.359 3.13989L227.859 3.13989L227.859 -1.35011L223.359 -1.35011L223.359 3.13989Z" fill="#EBEBEB"/>
<path d="M212.484 16.01L216.984 16.01L216.984 11.52L212.484 11.52L212.484 16.01Z" fill="#EBEBEB"/>
<path d="M227.858 10.51L231.076 10.51L231.076 7.30002L227.858 7.30002L227.858 10.51Z" fill="#EBEBEB"/>
<path d="M213.114 5.48022L216.332 5.48022L216.332 2.27023L213.114 2.27023L213.114 5.48022Z" fill="#EBEBEB"/>
<path d="M212.895 37.1799L229.385 36.9899L230.447 15.9299L212.404 15.9299L212.895 37.1799ZM218.699 19.6399L221.907 19.6399L221.907 22.8399L218.699 22.8399L218.699 19.6399Z" fill="#EBEBEB"/>
<path d="M633.936 146.439L610.999 146.054L622.171 160.39L633.936 146.439Z" fill="#EBEBEB"/>
<path d="M623.276 135.194L627.166 135.194L627.166 131.313L623.276 131.313L623.276 135.194Z" fill="#EBEBEB"/>
<path d="M619.565 130.948L623.455 130.948L623.455 127.067L619.565 127.067L619.565 130.948Z" fill="#EBEBEB"/>
<path d="M624.18 125.727L627.166 125.727L627.166 122.748L624.18 122.748L624.18 125.727Z" fill="#EBEBEB"/>
<path d="M616.965 134.265L619.951 134.265L619.951 131.286L616.965 131.286L616.965 134.265Z" fill="#EBEBEB"/>
<path d="M627.164 130.616L629.299 130.616L629.299 128.487L627.164 128.487L627.164 130.616Z" fill="#EBEBEB"/>
<path d="M620.975 119L623.469 119L623.469 121.494L620.975 121.494L620.975 119ZM623.11 119.371L621.347 119.371L621.347 121.123L623.096 121.123L623.11 119.371Z" fill="#EBEBEB"/>
<path d="M617.383 127.279L619.518 127.279L619.518 125.15L617.383 125.15L617.383 127.279Z" fill="#EBEBEB"/>
<path d="M617.238 148.309L628.178 148.183L628.883 134.212L616.913 134.212L617.238 148.309ZM621.089 136.673L623.217 136.673L623.217 138.796L621.089 138.796L621.089 136.673Z" fill="#EBEBEB"/>
<path d="M763.936 85.4387L740.999 85.0539L752.171 99.3901L763.936 85.4387Z" fill="#EBEBEB"/>
<path d="M753.276 74.1936L757.166 74.1936L757.166 70.3127L753.276 70.3127L753.276 74.1936Z" fill="#EBEBEB"/>
<path d="M749.565 69.948L753.455 69.948L753.455 66.0671L749.565 66.0671L749.565 69.948Z" fill="#EBEBEB"/>
<path d="M754.18 64.7268L757.166 64.7268L757.166 61.7481L754.18 61.7481L754.18 64.7268Z" fill="#EBEBEB"/>
<path d="M746.965 73.2651L749.951 73.2651L749.951 70.2864L746.965 70.2864L746.965 73.2651Z" fill="#EBEBEB"/>
<path d="M757.164 69.6162L759.299 69.6162L759.299 67.4867L757.164 67.4867L757.164 69.6162Z" fill="#EBEBEB"/>
<path d="M750.975 58L753.469 58L753.469 60.4944L750.975 60.4944L750.975 58ZM753.11 58.3715L751.347 58.3715L751.347 60.1229L753.096 60.1229L753.11 58.3715Z" fill="#EBEBEB"/>
<path d="M747.383 66.2793L749.518 66.2793L749.518 64.1498L747.383 64.1498L747.383 66.2793Z" fill="#EBEBEB"/>
<path d="M747.238 87.3093L758.178 87.1833L758.883 73.2119L746.913 73.2119L747.238 87.3093ZM751.089 75.6731L753.217 75.6731L753.217 77.7961L751.089 77.7961L751.089 75.6731Z" fill="#EBEBEB"/>
<path d="M326.779 159.12L269 158.12L297.128 194.27L326.779 159.12Z" fill="#EBEBEB"/>
<path d="M299.925 130.8L309.719 130.8L309.719 121.03L299.925 121.03L299.925 130.8Z" fill="#EBEBEB"/>
<path d="M290.572 120.1L300.365 120.1L300.365 110.33L290.572 110.33L290.572 120.1Z" fill="#EBEBEB"/>
<path d="M302.201 106.94L309.719 106.94L309.719 99.4399L302.201 99.4399L302.201 106.94Z" fill="#EBEBEB"/>
<path d="M284.005 128.45L291.523 128.45L291.523 120.95L284.005 120.95L284.005 128.45Z" fill="#EBEBEB"/>
<path d="M309.719 119.25L315.092 119.25L315.092 113.89L309.719 113.89L309.719 119.25Z" fill="#EBEBEB"/>
<path d="M294.089 90L300.395 90L300.395 96.29L294.089 96.29L294.089 90ZM299.452 90.93L295.022 90.93L295.022 95.35L299.452 95.35L299.452 90.93Z" fill="#EBEBEB"/>
<path d="M285.078 110.86L290.451 110.86L290.451 105.5L285.078 105.5L285.078 110.86Z" fill="#EBEBEB"/>
<path d="M284.677 163.83L312.244 163.5L314.008 128.31L283.905 128.31L284.677 163.83ZM294.37 134.55L299.713 134.55L299.713 139.91L294.34 139.91L294.37 134.55Z" fill="#EBEBEB"/>
<path d="M396.877 114.066L355.861 113.38L375.843 139L396.877 114.066Z" fill="#EBEBEB"/>
<path d="M377.856 93.9587L384.807 93.9587L384.807 87.0249L377.856 87.0249L377.856 93.9587Z" fill="#EBEBEB"/>
<path d="M371.219 86.3718L378.17 86.3718L378.17 79.438L371.219 79.438L371.219 86.3718Z" fill="#EBEBEB"/>
<path d="M379.463 77.0332L384.807 77.0332L384.807 71.7026L379.463 71.7026L379.463 77.0332Z" fill="#EBEBEB"/>
<path d="M366.555 92.2974L371.898 92.2974L371.898 86.9668L366.555 86.9668L366.555 92.2974Z" fill="#EBEBEB"/>
<path d="M384.816 85.7686L388.627 85.7686L388.627 81.9669L384.816 81.9669L384.816 85.7686Z" fill="#EBEBEB"/>
<path d="M373.681 64.9998L378.154 64.9998L378.154 69.4626L373.681 69.4626L373.681 64.9998ZM377.492 65.661L374.343 65.661L374.343 68.8015L377.492 68.8015L377.492 65.661Z" fill="#EBEBEB"/>
<path d="M367.326 79.8098L371.137 79.8098L371.137 76.0082L367.326 76.0082L367.326 79.8098Z" fill="#EBEBEB"/>
<path d="M367.054 117.413L386.622 117.182L387.881 92.1983L366.499 92.1983L367.054 117.413ZM373.938 96.628L377.757 96.628L377.757 100.405L373.938 100.405L373.938 96.628Z" fill="#EBEBEB"/>
<path d="M678.631 60.37L629.001 59.54L653.189 90.54L678.631 60.37Z" fill="#EBEBEB"/>
<path d="M655.584 36.04L663.994 36.04L663.994 27.65L655.584 27.65L655.584 36.04Z" fill="#EBEBEB"/>
<path d="M647.555 26.8601L655.965 26.8601L655.965 18.4701L647.555 18.4701L647.555 26.8601Z" fill="#EBEBEB"/>
<path d="M657.529 15.5601L663.994 15.5601L663.994 9.11006L657.529 9.11006L657.529 15.5601Z" fill="#EBEBEB"/>
<path d="M641.902 34.0303L648.367 34.0303L648.367 27.5803L641.902 27.5803L641.902 34.0303Z" fill="#EBEBEB"/>
<path d="M663.996 26.1301L668.607 26.1301L668.607 21.5301L663.996 21.5301L663.996 26.1301Z" fill="#EBEBEB"/>
<path d="M650.571 1.00014L655.984 1.00014L655.984 6.40015L650.571 6.40015L650.571 1.00014ZM655.182 1.80015L651.373 1.80015L651.373 5.60014L655.182 5.60014L655.182 1.80015Z" fill="#EBEBEB"/>
<path d="M642.832 18.9202L647.443 18.9202L647.443 14.3202L642.832 14.3202L642.832 18.9202Z" fill="#EBEBEB"/>
<path d="M642.503 64.4202L666.181 64.1402L667.734 33.9102L641.852 33.9102L642.503 64.4202ZM650.834 39.2702L655.445 39.2702L655.445 43.8702L650.834 43.8702L650.834 39.2702Z" fill="#EBEBEB"/>
<path d="M203.803 137.65L178.431 137.22L190.791 153.08L203.803 137.65Z" fill="#455A64"/>
<path d="M191.733 125.21L196.033 125.21L196.033 120.92L191.733 120.92L191.733 125.21Z" fill="#455A64"/>
<path d="M187.805 120.68L191.734 120.68L191.734 116.86L187.805 116.86L187.805 120.68Z" fill="#455A64"/>
<path d="M192.526 115.25L195.834 115.25L195.834 111.95L192.526 111.95L192.526 115.25Z" fill="#455A64"/>
<path d="M184.497 124.18L187.805 124.18L187.805 120.88L184.497 120.88L184.497 124.18Z" fill="#455A64"/>
<path d="M196.236 120.68L198.592 120.68L198.592 118.33L196.236 118.33L196.236 120.68Z" fill="#455A64"/>
<path d="M188.675 107L192.033 107L192.033 110.35L188.675 110.35L188.675 107ZM191.031 108L189.678 108L189.678 109.35L191.031 109.35L191.031 108Z" fill="#455A64"/>
<path d="M185.279 116.63L187.635 116.63L187.635 114.28L185.279 114.28L185.279 116.63Z" fill="#455A64"/>
<path d="M184.545 139.72L197.727 139.57L197.727 124.12L184.505 124.12L184.545 139.72ZM188.755 126.86L191.111 126.86L191.111 129.21L188.755 129.21L188.755 126.86Z" fill="#455A64"/>
<path d="M356.109 49.2602L327.791 48.7802L341.584 66.4902L356.109 49.2602Z" fill="#009960"/>
<path d="M342.958 35.3804L347.76 35.3804L347.76 30.5904L342.958 30.5904L342.958 35.3804Z" fill="#009960"/>
<path d="M338.378 30.1304L343.18 30.1304L343.18 25.3404L338.378 25.3404L338.378 30.1304Z" fill="#009960"/>
<path d="M344.071 23.6802L347.76 23.6802L347.76 20.0002L344.071 20.0002L344.071 23.6802Z" fill="#009960"/>
<path d="M335.151 34.2305L338.84 34.2305L338.84 30.5505L335.151 30.5505L335.151 34.2305Z" fill="#009960"/>
<path d="M347.75 29.7205L350.387 29.7205L350.387 27.0905L347.75 27.0905L347.75 29.7205Z" fill="#009960"/>
<path d="M335.68 25.6006L338.316 25.6006L338.316 22.9706L335.68 22.9706L335.68 25.6006Z" fill="#009960"/>
<path d="M335.51 51.5703L349.022 51.4103L349.895 34.1603L335.109 34.1603L335.51 51.5703ZM340.261 37.2203L342.898 37.2203L342.898 39.8403L340.261 39.8403L340.261 37.2203Z" fill="#009960"/>
<path d="M721.299 120.01L679.999 119.32L700.118 145.14L721.299 120.01Z" fill="#455A64"/>
<path d="M702.122 99.7603L709.119 99.7603L709.119 92.7802L702.122 92.7802L702.122 99.7603Z" fill="#455A64"/>
<path d="M696.107 92.7002L702.111 92.7002L702.111 86.7102L696.107 86.7102L696.107 92.7002Z" fill="#455A64"/>
<path d="M703.736 85.3901L709.119 85.3901L709.119 80.0201L703.736 80.0201L703.736 85.3901Z" fill="#455A64"/>
<path d="M690.736 98.0903L696.119 98.0903L696.119 92.7203L690.736 92.7203L690.736 98.0903Z" fill="#455A64"/>
<path d="M709.12 92.1201L712.959 92.1201L712.959 88.2901L709.12 88.2901L709.12 92.1201Z" fill="#455A64"/>
<path d="M697.663 73.0001L702.484 73.0001L702.484 77.8301L697.643 77.8301L697.663 73.0001ZM701.502 74.0001L698.665 74.0001L698.665 76.8301L701.482 76.8301L701.502 74.0001Z" fill="#455A64"/>
<path d="M692.28 86.1401L696.119 86.1401L696.119 82.3102L692.28 82.3101L692.28 86.1401Z" fill="#455A64"/>
<path d="M690.665 123.02L712.037 123.13L712.207 97.9904L690.665 97.9904L690.665 123.02ZM698.163 102.45L702.002 102.45L702.002 106.31L698.163 106.31L698.163 102.45Z" fill="#455A64"/>
<path d="M541.191 19.2216L515.244 18.7853L527.882 35L541.191 19.2216Z" fill="#009960"/>
<path d="M529.142 6.49756L533.539 6.49756L533.539 2.11078L529.142 2.11078L529.142 6.49756Z" fill="#009960"/>
<path d="M524.937 1.69775L529.334 1.69775L529.334 -2.68902L524.937 -2.68903L524.937 1.69775Z" fill="#009960"/>
<path d="M521.993 5.4458L525.367 5.4458L525.367 2.07977L521.993 2.07977L521.993 5.4458Z" fill="#009960"/>
<path d="M533.54 1.31616L535.953 1.31616L535.953 -1.0915L533.54 -1.0915L533.54 1.31616Z" fill="#009960"/>
<path d="M522.298 21.3333L534.678 21.1852L535.459 5.38347L521.931 5.38347L522.298 21.3333ZM525.938 8.08722L528.343 8.08722L528.343 10.4871L525.938 10.4871L525.938 8.08722Z" fill="#009960"/>
<path d="M254.055 113.957L231 113.572L242.234 127.982L254.055 113.957Z" fill="#009960"/>
<path d="M243.347 102.656L247.252 102.656L247.252 98.76L243.347 98.76L243.347 102.656Z" fill="#009960"/>
<path d="M239.997 98.7153L243.348 98.7153L243.348 95.3724L239.997 95.3724L239.997 98.7153Z" fill="#009960"/>
<path d="M244.253 94.6357L247.252 94.6357L247.252 91.6388L244.253 91.6388L244.253 94.6357Z" fill="#009960"/>
<path d="M236.997 101.723L239.996 101.723L239.996 98.7264L236.997 98.7264L236.997 101.723Z" fill="#009960"/>
<path d="M247.252 98.3916L249.395 98.3916L249.395 96.2541L247.252 96.2541L247.252 98.3916Z" fill="#009960"/>
<path d="M241.142 90.1375L243.285 90.1375L243.285 87.9999L241.142 87.9999L241.142 90.1375Z" fill="#009960"/>
<path d="M237.853 95.0544L239.996 95.0544L239.996 92.9169L237.853 92.9169L237.853 95.0544Z" fill="#009960"/>
<path d="M236.958 115.637L248.885 115.698L248.975 101.668L236.958 101.668L236.958 115.637ZM241.137 104.157L243.279 104.157L243.279 106.294L241.137 106.294L241.137 104.157Z" fill="#009960"/>
<path d="M802.779 23.9401L770.862 23.4001L786.39 43.3501L802.779 23.9401Z" fill="#009960"/>
<path d="M787.952 8.29028L793.365 8.29028L793.365 2.89029L787.952 2.89029L787.952 8.29028Z" fill="#009960"/>
<path d="M783.312 2.83032L787.953 2.83032L787.953 -1.79968L783.312 -1.79968L783.312 2.83032Z" fill="#009960"/>
<path d="M779.152 7.00024L783.312 7.00024L783.313 2.85025L779.152 2.85025L779.152 7.00024Z" fill="#009960"/>
<path d="M793.367 2.38013L796.334 2.38013L796.334 -0.579865L793.367 -0.579865L793.367 2.38013Z" fill="#009960"/>
<path d="M779.112 26.2603L795.622 26.3503L795.752 6.92035L779.112 6.92035L779.112 26.2603ZM784.896 10.3604L787.903 10.3604L787.903 13.3604L784.896 13.3604L784.896 10.3604Z" fill="#009960"/>
<path d="M452.299 167.51L410.999 166.81L431.118 192.63L452.299 167.51Z" fill="#009960"/>
<path d="M433.122 147.26L440.119 147.26L440.119 140.28L433.122 140.28L433.122 147.26Z" fill="#009960"/>
<path d="M427.107 140.2L433.111 140.2L433.111 134.21L427.107 134.21L427.107 140.2Z" fill="#009960"/>
<path d="M434.736 132.89L440.119 132.89L440.119 127.52L434.736 127.52L434.736 132.89Z" fill="#009960"/>
<path d="M421.734 145.58L427.117 145.58L427.117 140.21L421.734 140.21L421.734 145.58Z" fill="#009960"/>
<path d="M440.12 139.61L443.959 139.61L443.959 135.78L440.12 135.78L440.12 139.61Z" fill="#009960"/>
<path d="M429.163 124.83L433.002 124.83L433.002 121L429.163 121L429.163 124.83Z" fill="#009960"/>
<path d="M423.278 133.63L427.117 133.63L427.117 129.8L423.278 129.8L423.278 133.63Z" fill="#009960"/>
<path d="M421.665 170.51L443.037 170.63L443.207 145.48L421.665 145.48L421.665 170.51ZM429.163 149.94L433.002 149.94L433.002 153.77L429.163 153.77L429.163 149.94Z" fill="#009960"/>
<path d="M451.719 44.0106L451.719 28.6406L436.312 28.6406L436.312 44.0106L451.719 44.0106Z" fill="#EBEBEB"/>
<path d="M465.143 21.93L465.143 12L455.189 12L455.189 21.93L465.143 21.93Z" fill="#EBEBEB"/>
<path d="M404.908 48.9788L404.908 39.0488L394.954 39.0488L394.954 48.9788L404.908 48.9788Z" fill="#EBEBEB"/>
<path d="M496.4 145.3H486.195V155.48H496.4V145.3Z" fill="#EBEBEB"/>
<path d="M522.352 161.01H518.543V164.81H522.352V161.01Z" fill="#EBEBEB"/>
<path d="M486.044 129H480.16V134.87H486.044V129Z" fill="#EBEBEB"/>
<path d="M781.205 114.16H771V124.34H781.205V114.16Z" fill="#EBEBEB"/>
<path d="M797.345 143.39H781.938V158.76H797.345V143.39Z" fill="#EBEBEB"/>
<path d="M806.394 109H800.51V114.87H806.394V109Z" fill="#EBEBEB"/>
<path d="M154.563 68.74H147.355V75.93H154.563V68.74Z" fill="#EBEBEB"/>
<path d="M188.805 48H178.801V57.98H188.805V48Z" fill="#EBEBEB"/>
<path d="M608.184 11.6499H604.395V14.6299H608.184V11.6499Z" fill="#009960"/>
<path d="M605.626 20.7297H594.389V30.6097H605.626V20.7297Z" fill="#009960"/>
<path d="M590.631 18.59H582V10H590.631V18.59ZM583.002 17.59H589.628V11H583.002V17.59Z" fill="#009960"/>
<path d="M722.734 35.47H715.346V42.84H722.734V35.47Z" fill="#455A64"/>
<path d="M713.511 28.4102H709V32.9102H713.511V28.4102Z" fill="#455A64"/>
<path d="M729.62 14.5H724.117V9H729.62V14.5ZM725.12 13.5H728.618V10H725.12V13.5Z" fill="#455A64"/>
<path d="M57.3384 44H42.1016V59.2H57.3384V44Z" fill="#009960"/>
<path d="M34.8834 21H31.0742V24.8H34.8834V21Z" fill="#009960"/>
<path d="M45.4885 33.2201H38.5918V26.3501H45.4885V33.2201ZM39.5942 32.2201H44.486V27.3501H39.5942V32.2201Z" fill="#009960"/>
<path d="M305.547 16.53H290.311V31.73H305.547V16.53Z" fill="#263238"/>
<path d="M275.535 15.87H268.648V9H275.535V15.87ZM269.651 14.87H274.533V10H269.651V14.87Z" fill="#263238"/>
<path d="M290.951 41.97H285.869V47.04H290.951V41.97Z" fill="#263238"/>
<path d="M550.611 148.09L550.611 138.11L540.607 138.11L540.607 148.09L550.611 148.09Z" fill="#455A64"/>
<path d="M567.191 153.151L567.191 148.081L562.109 148.081L562.109 153.151L567.191 153.151Z" fill="#455A64"/>
<path d="M579.551 142.33L579.551 133.7L570.9 133.7L570.9 142.33L579.551 142.33Z" fill="#455A64"/>
</g>
<defs>
<clipPath id="clip0_144_1848">
<rect width="828" height="170" fill="white"/>
</clipPath>
</defs>
</svg>
