<svg width="194" height="209" viewBox="0 0 194 209" fill="none" xmlns="http://www.w3.org/2000/svg">
<path d="M77.7309 38.8354L81.1762 97.2807C81.7688 107.217 84.6697 121.694 100.339 120.019C113.823 117.559 116.504 104.426 115.946 95.1515C115.677 90.7554 115.463 87.0827 115.463 86.6349C115.463 86.6349 130.264 84.3472 130.457 69.5602C130.554 62.4078 129.554 47.6759 128.493 34.3496C127.936 27.4511 124.804 21.0146 119.719 16.3192C114.635 11.6238 107.969 9.0133 101.048 9.00635H99.6221C84.2631 9.9159 76.4217 23.4764 77.7309 38.8354Z" fill="#FFBF9D"/>
<path d="M115.497 86.6622C115.497 86.6622 106.174 87.1996 96.252 80.95C96.252 80.95 100.938 91.7543 115.697 90.4382L115.497 86.6622Z" fill="#FF9A6C"/>
<path d="M103.826 42.2116C103.557 42.5286 101.759 41.2883 99.292 41.3986C96.8252 41.5088 95.075 42.8525 94.7925 42.5493C94.6546 42.4184 94.9234 41.8602 95.6813 41.2332C96.7112 40.4323 97.9674 39.9766 99.2713 39.9309C100.559 39.8738 101.831 40.2365 102.896 40.9645C103.661 41.5295 103.964 42.0669 103.826 42.2116Z" fill="#263238"/>
<path d="M101.977 49.371C101.983 49.8921 101.784 50.3947 101.423 50.7708C101.062 51.147 100.569 51.3668 100.048 51.383C99.7929 51.4055 99.5361 51.3765 99.2928 51.2975C99.0495 51.2186 98.8246 51.0913 98.6316 50.9234C98.4386 50.7555 98.2815 50.5504 98.1696 50.3203C98.0577 50.0903 97.9934 49.84 97.9805 49.5846C97.9765 49.0644 98.1748 48.563 98.5335 48.1863C98.8922 47.8096 99.3833 47.5871 99.903 47.5656C100.159 47.544 100.416 47.574 100.66 47.6537C100.903 47.7333 101.129 47.8612 101.322 48.0295C101.515 48.1979 101.673 48.4034 101.786 48.6338C101.898 48.8642 101.963 49.1149 101.977 49.371Z" fill="#263238"/>
<path d="M111.238 58.9004C111.238 58.7695 112.616 58.5283 114.932 58.2113C115.51 58.1493 116.062 58.0322 116.158 57.6394C116.209 57.0392 116.075 56.4378 115.772 55.9168L114.056 51.5C111.679 45.2021 109.964 40.0273 110.218 39.9377C110.473 39.8481 112.603 44.8644 114.98 51.1624C115.552 52.7127 116.103 54.1942 116.62 55.6067C116.986 56.3076 117.091 57.1162 116.916 57.8875C116.833 58.0919 116.704 58.2746 116.539 58.4215C116.374 58.5684 116.178 58.6757 115.965 58.735C115.643 58.8188 115.312 58.865 114.98 58.8728C112.665 59.0175 111.238 59.0313 111.238 58.9004Z" fill="#263238"/>
<path d="M103.858 34.4115C103.61 34.9559 101.639 34.4873 99.2757 34.5424C96.9122 34.5976 94.9415 35.0661 94.6866 34.5424C94.5695 34.2875 94.9553 33.7914 95.7684 33.3228C96.8457 32.7547 98.044 32.4545 99.2619 32.4477C100.474 32.4124 101.676 32.675 102.762 33.2126C103.582 33.6673 103.968 34.1566 103.858 34.4115Z" fill="#263238"/>
<path d="M126.432 37.9741C126.205 38.4357 124.248 38.0774 121.912 38.1739C119.576 38.2704 117.667 38.7114 117.392 38.2635C117.268 38.0499 117.619 37.6227 118.404 37.2092C119.466 36.693 120.628 36.4132 121.808 36.3893C123 36.341 124.188 36.5453 125.295 36.9887C126.129 37.347 126.528 37.7536 126.432 37.9741Z" fill="#263238"/>
<path d="M78.922 49.7843C78.674 49.6809 68.7654 46.7731 69.0755 56.8815C69.3856 66.9899 79.4802 64.592 79.4871 64.3026C79.4939 64.0132 78.922 49.7843 78.922 49.7843Z" fill="#FFBF9D"/>
<path d="M76.2835 60.5681C76.2353 60.5681 76.1112 60.699 75.8149 60.8437C75.4018 61.0366 74.9299 61.0613 74.4988 60.9126C73.417 60.5543 72.4317 58.8868 72.3628 57.0608C72.3098 56.1953 72.4511 55.329 72.7762 54.5251C72.8624 54.2089 73.0241 53.9182 73.2473 53.6782C73.4705 53.4382 73.7487 53.2559 74.0579 53.147C74.2583 53.0882 74.4729 53.1006 74.6651 53.1823C74.8574 53.264 75.0153 53.4098 75.1121 53.5949C75.2568 53.8774 75.2017 54.0772 75.2568 54.0979C75.3119 54.1186 75.4635 53.9188 75.3739 53.5053C75.3079 53.2571 75.1598 53.0385 74.9536 52.8852C74.8139 52.784 74.6554 52.7118 74.4873 52.6728C74.3193 52.6337 74.1452 52.6286 73.9752 52.6578C73.5617 52.7515 73.1796 52.9505 72.8657 53.2354C72.5518 53.5203 72.3168 53.8815 72.1836 54.284C71.7791 55.1706 71.5993 56.1433 71.66 57.116C71.784 59.1831 72.8865 61.0298 74.361 61.4088C74.6359 61.4768 74.9225 61.483 75.2001 61.427C75.4778 61.371 75.7395 61.2542 75.9665 61.0849C76.2697 60.8162 76.3179 60.5888 76.2835 60.5681Z" fill="#FF9A6C"/>
<path d="M64.3417 34.4323C66.1883 30.7252 66.3744 26.4462 67.2357 22.3945C68.097 18.3429 69.9919 14.0777 73.8023 12.4102L73.8919 12.4446C77.282 10.784 81.5886 10.4533 84.6342 12.672C84.965 7.3801 89.2577 2.90127 94.2809 1.19242C99.3041 -0.516425 107.566 -0.30971 112.61 1.30956C116.51 2.56363 120.403 5.44387 125.192 9.70221C127.214 11.5005 129.085 13.4617 130.787 15.566L136.223 28.9819L132.93 36.4512C132.737 36.9611 132.537 37.4641 132.289 37.974L129.946 53.4018C129.429 49.2675 128.692 34.8595 128.175 30.732C125.057 30.8643 121.945 30.3647 119.025 29.2635C116.105 28.1623 113.438 26.4821 111.183 24.3239C108.744 21.9811 106.739 18.9699 103.604 17.6952C99.5728 16.0415 95.0251 17.7848 91.0217 19.5074L91.1802 19.3351C89.1094 20.4832 87.2779 22.0176 85.7849 23.8553C87.2957 31.9676 87.0443 40.31 85.0476 48.3166C84.7445 49.5225 83.8694 52.0168 82.7531 52.5405C80.5481 53.581 79.7764 51.3209 78.3225 50.1909C77.2545 49.364 75.7592 49.3571 74.1331 49.5018C72.7439 46.1356 71.5589 42.6886 70.5845 39.1798C69.2457 39.6996 67.8042 39.9001 66.3744 39.7655L67.4493 36.5545C66.9392 36.991 66.3428 37.315 65.6991 37.5054C65.3752 37.5949 65.0317 37.5827 64.715 37.4706C64.3982 37.3584 64.1236 37.1517 63.9282 36.8784C63.501 36.1342 63.9558 35.204 64.3417 34.4323Z" fill="#263238"/>
<path d="M89.3817 14.0295C88.8819 14.4742 88.4209 14.9606 88.0036 15.4834C86.9417 16.9713 86.284 18.7092 86.0949 20.5273C85.937 21.7749 85.9024 23.0351 85.9915 24.2895C86.0811 25.6676 86.2947 27.0871 86.5083 28.6099C86.759 30.2069 86.9132 31.8176 86.97 33.4332C86.9808 34.2902 86.9302 35.1468 86.8184 35.9965C86.7537 36.9038 86.4571 37.7793 85.9571 38.5391C85.722 38.844 85.4116 39.0824 85.0564 39.231C84.7012 39.3796 84.3135 39.4333 83.9313 39.3866C83.1998 39.3054 82.5161 38.9829 81.9882 38.4702C80.9615 37.4297 80.6101 36.0447 80.3069 34.832H80.6169C80.2522 35.973 79.723 37.0548 79.0459 38.043C78.3884 38.9637 77.4012 39.5955 76.2897 39.8069C75.7726 39.8947 75.2414 39.8399 74.7531 39.6485C74.2969 39.4552 73.9118 39.1255 73.6506 38.7045C73.3993 38.3256 73.2585 37.8841 73.2441 37.4297C73.2314 37.004 73.3679 36.5872 73.63 36.2514L73.7953 36.3755C72.7925 37.7209 71.4451 38.7707 69.8953 39.4142C69.7839 39.4609 69.6686 39.4978 69.5508 39.5244C69.6491 39.4562 69.7556 39.4007 69.8677 39.3591C70.0814 39.2557 70.3983 39.0972 70.7911 38.8629C71.9158 38.1901 72.8931 37.2972 73.6644 36.2377L73.8298 36.3686C73.6108 36.6948 73.4991 37.0813 73.5102 37.4741C73.5213 37.8669 73.6547 38.2464 73.8918 38.5598C74.1306 38.93 74.4768 39.2185 74.884 39.3866C75.3226 39.5562 75.7995 39.6015 76.2621 39.5175C77.2943 39.3048 78.2063 38.7058 78.8116 37.8431C79.4617 36.874 79.9677 35.8156 80.3138 34.7011L80.4929 34.2187L80.6307 34.7217C80.9546 35.9345 81.3198 37.2643 82.2362 38.167C82.7073 38.6264 83.3185 38.915 83.9726 38.987C84.2949 39.0329 84.6237 38.9934 84.926 38.8725C85.2282 38.7516 85.4935 38.5535 85.6952 38.2979C86.1557 37.585 86.4283 36.7673 86.4877 35.9207C86.5995 35.0872 86.6502 34.2466 86.6393 33.4057C86.591 31.8064 86.4437 30.2116 86.1983 28.6305C85.9984 27.1077 85.7917 25.6607 85.709 24.2895C85.6312 23.0152 85.6819 21.7363 85.8606 20.4722C86.0822 18.6206 86.796 16.8622 87.9278 15.3801C88.3343 14.8525 88.8256 14.3961 89.3817 14.0295Z" fill="#455A64"/>
<path d="M135.899 25.061C135.866 25.0986 135.829 25.1331 135.789 25.1644L135.438 25.4607C135.252 25.6243 135.053 25.774 134.845 25.9085C134.57 26.1034 134.282 26.2806 133.984 26.4391C132.081 27.4764 129.949 28.0213 127.782 28.0239C124.553 28.0463 121.387 27.132 118.666 25.3918C115.377 23.226 112.563 20.4125 110.398 17.1231C109.199 15.4212 108.2 13.6779 107.118 12.0379C106.122 10.461 104.906 9.03413 103.507 7.80028C102.245 6.68673 100.724 5.90732 99.0834 5.5333C98.3418 5.38524 97.5818 5.3527 96.8302 5.43684C96.1382 5.52737 95.4615 5.71046 94.8182 5.98118C92.8476 6.81787 91.2636 8.36496 90.3807 10.3153C90.0911 11.042 89.8899 11.8008 89.7812 12.5754C89.7812 12.5754 89.7812 12.5272 89.7812 12.4238C89.7812 12.3205 89.7812 12.1482 89.7812 11.969C89.858 11.3858 90.0061 10.8142 90.2222 10.2671C90.5811 9.40647 91.0819 8.61221 91.7037 7.91742C92.5313 6.99036 93.549 6.25242 94.6873 5.7538C95.3479 5.47096 96.043 5.27635 96.7544 5.17499C97.5324 5.07589 98.3213 5.10382 99.0903 5.25768C100.784 5.62884 102.358 6.42028 103.666 7.55912C105.093 8.80493 106.332 10.2509 107.345 11.8519C108.441 13.4781 109.447 15.242 110.632 16.9233C112.779 20.179 115.564 22.966 118.818 25.1161C121.486 26.8457 124.596 27.7713 127.776 27.7828C129.914 27.7977 132.025 27.2966 133.929 26.322C134.608 25.9384 135.266 25.5174 135.899 25.061Z" fill="#455A64"/>
<path d="M126.342 41.5227C126.073 41.8396 124.274 40.5994 121.808 40.7096C119.341 40.8199 117.591 42.1635 117.308 41.8603C117.17 41.7294 117.439 41.1713 118.197 40.5442C119.227 39.7433 120.483 39.2876 121.787 39.2419C123.075 39.1848 124.347 39.5476 125.411 40.2755C126.197 40.8336 126.479 41.378 126.342 41.5227Z" fill="#263238"/>
<path d="M122.952 48.9025C122.957 49.4236 122.758 49.9262 122.398 50.3023C122.037 50.6785 121.543 50.8983 121.022 50.9145C120.767 50.9371 120.511 50.908 120.267 50.829C120.024 50.75 119.799 50.6228 119.606 50.4549C119.413 50.287 119.256 50.0819 119.144 49.8518C119.032 49.6218 118.968 49.3715 118.955 49.1161C118.951 48.5959 119.149 48.0945 119.508 47.7178C119.867 47.3411 120.358 47.1186 120.878 47.0971C121.133 47.0755 121.39 47.1055 121.634 47.1852C121.878 47.2649 122.103 47.3927 122.297 47.561C122.49 47.7294 122.648 47.9349 122.76 48.1653C122.873 48.3957 122.938 48.6464 122.952 48.9025Z" fill="#263238"/>
<path d="M129.424 13.9604C130.802 15.5384 132.793 16.9303 134.84 16.5857C135.577 16.3845 136.298 16.1264 136.996 15.814C137.741 16.2068 137.72 18.6873 137.265 19.3971C136.83 20.0007 136.344 20.5656 135.811 21.0852C138.312 22.2428 140.476 21.4711 142.998 20.3962C142.876 22.61 142.176 24.7532 140.967 26.6116C139.758 28.4701 138.082 29.9787 136.108 30.9869C134.84 31.6071 133.282 31.9998 132.049 31.3039C130.967 30.6906 130.464 29.4228 130.078 28.2445C128.657 23.8951 127.78 19.3866 127.467 14.8218L129.424 13.9604Z" fill="#263238"/>
<path d="M123.352 94.8896L114.877 91.7613L82.4639 90.8035L74.9395 92.8499L75.9248 111.179L92.9375 122.031L109.433 121.701L119.81 112.247L122.112 102.883L123.352 94.8896Z" fill="#FFBF9D"/>
<path d="M27.1742 122.975C29.1793 118.794 31.4462 114.744 33.9613 110.848C37.9308 104.608 44.2077 100.191 51.4219 98.5623L78.6256 91.1895C78.6256 91.1895 80.4723 109.532 99.1731 109.532C117.874 109.532 118.26 92.54 118.26 92.54L152.506 105.06C153.588 105.48 160.885 108.009 169.381 126.221C177.47 143.564 181.005 152.405 181.005 152.405L148.702 161.087L146.559 190.93L147.248 207.584L48.838 207.363L49.3892 188.325L48.9413 156.849L46.8742 160.728L16.1562 148.408C16.1562 148.408 19.2363 139.375 27.1742 122.975Z" fill="#455A64"/>
<path d="M48.536 140.594C48.3913 140.594 48.4809 151.144 48.7358 164.146C48.9908 177.148 49.3077 187.684 49.4249 187.684C49.542 187.684 49.48 177.142 49.2251 164.132C48.9701 151.123 48.6463 140.594 48.536 140.594Z" fill="#263238"/>
<g opacity="0.3">
<path d="M144.373 143.667C142.843 141.986 140.466 141.428 138.241 140.973C112.918 135.771 86.8098 137.969 61.1564 141.18C57.973 141.573 54.4588 142.248 52.5364 144.818C51.1583 146.672 52.0403 149.139 51.9093 151.454C51.2203 163.34 52.7913 176.005 55.141 187.684L142.526 186.306C145.517 177.252 146.247 161.893 146.289 151.454C146.302 148.698 146.213 145.686 144.373 143.667Z" fill="black"/>
</g>
<path d="M150.061 129.948C150.077 130.097 150.077 130.248 150.061 130.396V131.678C150.061 132.787 150.026 134.393 149.978 136.384C149.882 140.36 149.668 145.852 149.337 151.909C149.007 157.965 148.607 163.45 148.29 167.412C148.125 169.362 147.987 170.947 147.89 172.105C147.835 172.628 147.787 173.049 147.759 173.379C147.753 173.529 147.727 173.677 147.684 173.82C147.665 173.672 147.665 173.521 147.684 173.372C147.684 173.042 147.718 172.621 147.739 172.098C147.815 170.94 147.911 169.342 148.028 167.398C148.269 163.381 148.6 157.924 148.958 151.888C149.317 145.852 149.544 140.346 149.716 136.377C149.799 134.427 149.868 132.829 149.916 131.671C149.916 131.147 149.964 130.727 149.985 130.389C149.994 130.24 150.02 130.092 150.061 129.948Z" fill="#263238"/>
<path d="M178.235 153.252L191.416 179.719C192.891 182.676 193.581 185.962 193.421 189.262C193.181 194.215 191.042 198.885 187.45 202.303C183.857 205.721 179.087 207.624 174.128 207.618L136.313 205.427L134.666 188.201L163.441 181.262L152.292 160.191L178.235 153.252Z" fill="#FFBF9D"/>
<path d="M163.461 181.235C163.461 181.352 164.771 181.138 166.851 181.152C169.567 181.192 172.259 181.657 174.831 182.53C177.405 183.386 179.818 184.667 181.969 186.32C183.609 187.615 184.381 188.676 184.471 188.6C184.56 188.525 184.34 188.297 183.995 187.808C183.48 187.14 182.9 186.524 182.266 185.968C180.143 184.159 177.688 182.78 175.037 181.91C172.405 181 169.628 180.58 166.845 180.67C166.007 180.703 165.173 180.8 164.35 180.959C163.765 181.104 163.448 181.193 163.461 181.235Z" fill="#FF9A6C"/>
<path d="M16.694 148.698C16.694 148.698 9.58984 168.549 0.67352 190.64C0.495039 191.087 0.352189 191.548 0.246306 192.018C-1.1318 197.985 3.4504 208.032 9.56228 208.032L60.7657 207.529V190.771L31.2467 184.294L42.6367 159.102L16.694 148.698Z" fill="#FFBF9D"/>
<path d="M8.28746 188.883C8.35636 188.966 9.36238 188.194 11.147 187.147C15.8153 184.477 21.1797 183.277 26.5404 183.701C28.6076 183.853 29.841 184.142 29.8685 184.032C29.8961 183.922 29.5791 183.88 29.0141 183.715C28.2183 183.498 27.4077 183.339 26.5887 183.24C21.1074 182.563 15.5617 183.818 10.9059 186.788C10.209 187.23 9.54571 187.723 8.92139 188.263C8.4804 188.614 8.2599 188.849 8.28746 188.883Z" fill="#FF9A6C"/>
<path d="M142.085 187.167H134.664C134.664 187.167 117.955 181.138 114.523 181.71C111.43 182.234 100.102 189.758 97.8828 191.247C97.6337 191.412 97.445 191.654 97.3454 191.936C97.13 192.528 97.1534 193.182 97.4105 193.758C97.6676 194.334 98.1384 194.787 98.7235 195.023L98.9578 195.119L98.8613 195.457C98.7199 195.902 98.6615 196.369 98.689 196.835C98.7193 197.179 98.8581 197.505 99.0854 197.765C99.3127 198.026 99.6168 198.207 99.9539 198.284C100.291 198.361 100.644 198.328 100.961 198.192C101.279 198.055 101.545 197.821 101.721 197.524L101.294 198.282C101.12 198.593 101.039 198.946 101.059 199.302L101.101 199.991C101.119 200.364 101.251 200.723 101.479 201.02C101.707 201.317 102.019 201.537 102.375 201.651C102.714 201.763 103.078 201.774 103.422 201.684C103.767 201.593 104.078 201.405 104.319 201.141C105.759 199.563 108.859 196.394 110.961 196.049C113.247 195.775 115.55 195.659 117.852 195.705C118.318 195.706 118.774 195.849 119.158 196.113C119.543 196.377 119.839 196.751 120.008 197.186C118.761 197.276 110.079 201.803 107.006 203.422C106.531 203.66 106.121 204.01 105.811 204.44C105.5 204.871 105.298 205.37 105.221 205.896C105.111 206.854 105.593 207.867 107.495 207.419C111.581 206.468 118.926 203.091 118.926 203.091C118.926 203.091 122.709 202.01 125.169 203.739C128.615 206.178 130.199 207.067 133.162 206.082C134.966 205.485 136.696 204.683 138.316 203.691L144.153 203.112C144.153 203.112 149.637 189.283 142.085 187.167Z" fill="#FFBF9D"/>
<path d="M120.03 189.992C120.03 190.055 118.845 189.682 116.888 189.558C114.344 189.388 111.795 189.821 109.449 190.822C107.103 191.823 105.027 193.364 103.39 195.319C102.129 196.814 101.591 197.917 101.529 197.882C101.629 197.614 101.753 197.355 101.901 197.11C102.287 196.43 102.727 195.783 103.217 195.174C104.84 193.146 106.939 191.55 109.328 190.531C111.717 189.511 114.322 189.099 116.909 189.331C117.685 189.399 118.455 189.531 119.21 189.724C119.493 189.781 119.768 189.871 120.03 189.992Z" fill="#FFBF9D"/>
<path d="M118.26 185.934C117.198 185.613 116.102 185.421 114.994 185.362C112.316 185.358 109.69 186.105 107.415 187.519C105.156 188.967 103.099 190.707 101.296 192.694L99.5939 194.451C99.4022 194.683 99.1875 194.895 98.9531 195.085C99.1166 194.839 99.3011 194.609 99.5044 194.396C99.8765 193.955 100.414 193.314 101.11 192.542C102.885 190.489 104.948 188.704 107.236 187.243C109.561 185.795 112.262 185.064 115.001 185.142C115.825 185.182 116.641 185.33 117.427 185.583C117.64 185.652 117.849 185.732 118.054 185.824C118.128 185.848 118.198 185.886 118.26 185.934Z" fill="#FFBF9D"/>
<path d="M49.9127 187.691H57.3131C57.3131 187.691 74.0295 181.655 77.4747 182.234C80.5686 182.75 91.8897 190.275 94.1084 191.763C94.3549 191.931 94.5428 192.172 94.6459 192.452C94.863 193.045 94.8406 193.699 94.5832 194.275C94.3259 194.852 93.854 195.305 93.2678 195.539L93.0335 195.636L93.1369 195.973C93.2716 196.42 93.3298 196.886 93.3091 197.351C93.2808 197.698 93.1428 198.026 92.915 198.289C92.6872 198.551 92.3816 198.734 92.0426 198.811C91.7037 198.888 91.349 198.855 91.0303 198.716C90.7116 198.578 90.4454 198.341 90.2704 198.041L90.6976 198.798C90.8693 199.108 90.9528 199.458 90.9388 199.811L90.8975 200.5C90.877 200.875 90.7436 201.235 90.5149 201.533C90.2861 201.83 89.9727 202.052 89.6158 202.168C89.2773 202.28 88.9137 202.291 88.5689 202.2C88.2241 202.11 87.9128 201.922 87.6727 201.658C86.2395 200.08 83.1318 196.91 81.0371 196.566C78.7631 196.286 76.4717 196.171 74.1811 196.221C73.7141 196.222 73.2583 196.364 72.8734 196.628C72.4885 196.893 72.1925 197.267 72.0243 197.703C73.2715 197.792 81.9467 202.32 85.0198 203.939C85.4951 204.176 85.9057 204.525 86.2165 204.956C86.5273 205.387 86.7291 205.887 86.8045 206.412C86.9216 207.37 86.4324 208.376 84.5306 207.935C80.4514 206.984 73.1062 203.608 73.1062 203.608C73.1062 203.608 69.3164 202.526 66.8634 204.256C63.4181 206.688 61.8333 207.584 58.8635 206.599C57.0621 206.001 55.3351 205.198 53.7163 204.208L47.8731 203.622C47.8731 203.622 42.3745 189.806 49.9127 187.691Z" fill="#FFBF9D"/>
<path d="M71.9629 190.516C72.9997 190.316 74.0462 190.168 75.0981 190.075C77.6441 189.907 80.1939 190.342 82.5405 191.344C84.8871 192.346 86.9643 193.887 88.6035 195.843C89.8644 197.338 90.4019 198.44 90.457 198.406C90.3615 198.136 90.2367 197.877 90.0849 197.634C89.7022 196.954 89.2643 196.306 88.7757 195.698C87.1534 193.669 85.054 192.074 82.6649 191.054C80.2758 190.035 77.6715 189.623 75.0843 189.855C74.3051 189.92 73.5328 190.051 72.776 190.247C72.4955 190.305 72.2226 190.396 71.9629 190.516Z" fill="#FFBF9D"/>
<path d="M73.7544 186.458C74.8151 186.132 75.9122 185.94 77.0205 185.886C79.6988 185.876 82.3256 186.621 84.6 188.036C86.8609 189.486 88.9205 191.228 90.7257 193.217L92.4001 195.002C92.5963 195.23 92.8106 195.442 93.0409 195.636C92.8816 195.39 92.6994 195.159 92.4966 194.947C92.1245 194.499 91.5801 193.865 90.8842 193.093C89.1118 191.04 87.0507 189.255 84.7654 187.794C82.4385 186.343 79.7343 185.612 76.9929 185.693C76.1687 185.734 75.3534 185.882 74.5675 186.134C74.3564 186.203 74.1494 186.283 73.9473 186.375C73.8164 186.409 73.7475 186.444 73.7544 186.458Z" fill="#FFBF9D"/>
<path d="M61.6273 208.073H146.615C147.777 208.074 148.895 207.626 149.735 206.822C150.575 206.018 151.071 204.921 151.121 203.76L153.671 145.273C153.698 144.665 153.601 144.058 153.387 143.489C153.174 142.919 152.846 142.399 152.426 141.959C152.006 141.519 151.5 141.169 150.941 140.93C150.382 140.691 149.78 140.567 149.171 140.567H59.2639C58.6564 140.567 58.0552 140.69 57.4964 140.929C56.9376 141.167 56.4327 141.516 56.0119 141.954C55.5912 142.392 55.2631 142.911 55.0476 143.478C54.832 144.046 54.7333 144.652 54.7575 145.259L57.1416 203.746C57.1877 204.906 57.68 206.004 58.5157 206.81C59.3514 207.616 60.4661 208.069 61.6273 208.073Z" fill="#E0E0E0"/>
<path d="M61.6263 208.073H61.4196C61.2118 208.07 61.0045 208.052 60.7994 208.018C59.9934 207.873 59.2413 207.514 58.622 206.978C58.1204 206.538 57.7197 205.995 57.4474 205.386C57.1751 204.777 57.0375 204.117 57.0441 203.45C56.9752 201.888 56.8971 200.094 56.8098 198.068C56.4584 189.965 55.9623 178.251 55.3421 163.781L54.8874 152.418C54.8047 150.439 54.722 148.424 54.6393 146.375C54.6393 145.852 54.5773 145.356 54.598 144.811C54.6292 144.271 54.7527 143.739 54.9632 143.24C55.3981 142.223 56.1793 141.393 57.1681 140.898C57.6644 140.647 58.2009 140.486 58.7529 140.422C59.318 140.374 59.8417 140.422 60.3929 140.422H84.365H146.69H148.757C149.472 140.389 150.186 140.499 150.858 140.746C151.528 141.005 152.13 141.413 152.619 141.939C153.107 142.466 153.469 143.097 153.677 143.785C153.863 144.457 153.921 145.158 153.849 145.852L153.759 147.885C153.697 149.263 153.642 150.592 153.58 151.936C153.346 157.32 153.116 162.616 152.891 167.826C152.436 178.237 151.995 188.29 151.568 197.861C151.52 199.053 151.465 200.245 151.417 201.424L151.334 203.188C151.341 203.791 151.262 204.392 151.1 204.972C150.747 206.147 149.948 207.137 148.874 207.729C148.35 208.018 147.774 208.203 147.179 208.273C146.579 208.335 146.021 208.273 145.449 208.273H132.247H108.551L74.229 208.211L64.8993 208.17H62.4738C61.9226 208.17 61.647 208.17 61.647 208.17H62.4738H64.8993L74.229 208.128L108.551 208.066H132.247H145.449C146.014 208.066 146.6 208.066 147.138 208.032C147.683 207.962 148.211 207.791 148.695 207.529C149.687 206.987 150.428 206.08 150.762 205C150.911 204.45 150.983 203.882 150.976 203.312C150.976 202.726 151.031 202.14 151.051 201.548C151.106 200.363 151.155 199.177 151.21 197.979C151.623 188.408 152.057 178.361 152.505 167.943C152.735 162.734 152.965 157.437 153.194 152.053C153.249 150.707 153.309 149.359 153.373 148.009L153.456 145.941C153.532 145.285 153.481 144.621 153.305 143.984C153.112 143.361 152.78 142.789 152.335 142.312C151.89 141.835 151.343 141.464 150.734 141.228C150.109 140.999 149.443 140.901 148.777 140.939H146.71H84.3856H60.4067C59.8692 140.939 59.3111 140.939 58.8081 140.939C58.2948 140.996 57.7957 141.143 57.3335 141.373C56.4064 141.825 55.6727 142.595 55.2663 143.543C55.0702 144.005 54.9537 144.497 54.9218 144.997C54.9218 145.493 54.9218 146.024 54.9563 146.534C55.039 148.587 55.1193 150.602 55.1974 152.577C55.3559 156.525 55.5075 160.322 55.6522 163.939C56.2103 178.409 56.6651 190.123 56.9821 198.233C57.0579 200.259 57.1199 202.058 57.1819 203.615C57.1732 204.264 57.3033 204.907 57.5636 205.501C57.8238 206.095 58.2082 206.627 58.6909 207.06C59.2924 207.599 60.0279 207.965 60.8201 208.121C61.3645 208.08 61.6263 208.052 61.6263 208.073Z" fill="#263238"/>
<path d="M99.5664 175.35C99.565 176.272 99.8371 177.173 100.348 177.94C100.859 178.707 101.586 179.305 102.437 179.658C103.288 180.012 104.225 180.105 105.129 179.926C106.033 179.747 106.864 179.304 107.516 178.653C108.168 178.002 108.612 177.172 108.792 176.268C108.973 175.364 108.881 174.428 108.528 173.576C108.176 172.724 107.579 171.997 106.813 171.484C106.047 170.972 105.146 170.699 104.224 170.699C102.99 170.699 101.806 171.189 100.933 172.061C100.06 172.933 99.5682 174.116 99.5664 175.35Z" fill="white"/>
<path d="M112.079 67.121C112.079 67.2036 111.542 67.4448 110.563 67.4379C109.28 67.4154 108.039 66.9755 107.029 66.1847C106.018 65.394 105.292 64.2955 104.961 63.0556C104.72 62.1116 104.817 61.5121 104.899 61.5052C104.982 61.4983 105.099 62.0702 105.444 62.8833C105.863 63.9568 106.563 64.8976 107.471 65.6069C108.379 66.3162 109.462 66.7678 110.605 66.9142C111.487 67.0658 112.066 67.0107 112.079 67.121Z" fill="#263238"/>
</svg>
