<svg width="450" height="160" viewBox="0 0 450 160" fill="none" xmlns="http://www.w3.org/2000/svg">
    <g clip-path="url(#clip0_97_140)">
        <path d="M339.547 9.21094L334.174 36.1263C336.669 38.6211 339.312 40.9772 343.559 41.8444L363.978 45.2806L368.539 13.6555L339.547 9.21094Z" fill="#E0E0E0"/>
        <path d="M338.374 7.56104L333 34.4764L342.385 40.1945L362.804 43.6307L368.606 13.2617L338.374 7.56104Z" fill="#F5F5F5"/>
        <path d="M336.791 33.0146L333 34.4764C333 34.4764 334.39 36.7061 336.399 37.9002C338.231 39.0373 340.262 39.8158 342.385 40.1944C342.385 40.1944 337.915 38.0117 336.791 33.0146Z" fill="#F5F5F5"/>
        <g opacity="0.3">
            <path d="M336.791 33.0146C335.329 34.0056 333.723 35.2444 333 34.4764C333 34.4764 334.39 36.7061 336.399 37.9002C338.231 39.0373 340.262 39.8158 342.385 40.1944C342.385 40.1944 337.915 38.0117 336.791 33.0146Z" fill="black"/>
        </g>
        <path d="M335.316 13.3532L349.222 8.92839L348.31 6L334.174 10.2216L335.316 13.3532Z" fill="#455A64"/>
        <path d="M371.072 20.4955L361.955 9.10156L359.547 11.0018L368.557 22.6856L371.072 20.4955Z" fill="#455A64"/>
        <path d="M363.426 22.2273C363.426 22.262 358.267 21.323 351.92 20.1289C345.573 18.9347 340.432 17.9388 340.439 17.8992C340.447 17.8595 345.595 18.8034 351.945 19.9976C358.295 21.1917 363.433 22.1926 363.426 22.2273Z" fill="#263238"/>
        <path d="M362.547 26.3474C362.547 26.3821 357.389 25.4432 351.042 24.249C344.694 23.0549 339.554 22.0589 339.559 22.0193C339.564 21.9796 344.717 22.9236 351.064 24.1177C357.411 25.3118 362.552 26.3202 362.547 26.3474Z" fill="#263238"/>
        <path d="M361.982 30.0637C361.982 30.0984 356.824 29.1595 350.479 27.9653C344.134 26.7712 338.989 25.7752 338.996 25.7356C339.004 25.6959 344.154 26.6399 350.502 27.834C356.849 29.0282 361.99 30.0191 361.982 30.0637Z" fill="#263238"/>
        <path d="M361.293 33.5867C361.293 33.6214 356.135 32.6824 349.787 31.4883C343.44 30.2941 338.299 29.2982 338.307 29.2585C338.314 29.2189 343.462 30.1628 349.812 31.357C356.162 32.5511 361.3 33.552 361.293 33.5867Z" fill="#263238"/>
        <path d="M301.161 105.194C301.351 105.515 301.453 105.881 301.456 106.254C301.459 106.627 301.363 106.994 301.179 107.318C300.994 107.642 300.727 107.911 300.405 108.099C300.082 108.286 299.716 108.385 299.343 108.385C298.97 108.385 298.604 108.286 298.281 108.099C297.959 107.911 297.691 107.642 297.507 107.318C297.322 106.994 297.227 106.627 297.23 106.254C297.233 105.881 297.335 105.515 297.525 105.194H295.075C295.265 105.515 295.367 105.881 295.37 106.254C295.373 106.627 295.277 106.994 295.093 107.318C294.908 107.642 294.641 107.911 294.318 108.099C293.996 108.286 293.63 108.385 293.257 108.385C292.884 108.385 292.517 108.286 292.195 108.099C291.872 107.911 291.605 107.642 291.421 107.318C291.236 106.994 291.14 106.627 291.143 106.254C291.147 105.881 291.248 105.515 291.438 105.194H288.988C289.179 105.515 289.28 105.881 289.283 106.254C289.287 106.627 289.191 106.994 289.006 107.318C288.822 107.642 288.555 107.911 288.232 108.099C287.91 108.286 287.543 108.385 287.17 108.385C286.797 108.385 286.431 108.286 286.109 108.099C285.786 107.911 285.519 107.642 285.334 107.318C285.15 106.994 285.054 106.627 285.057 106.254C285.06 105.881 285.162 105.515 285.352 105.194H282.902C283.092 105.515 283.194 105.881 283.197 106.254C283.2 106.627 283.105 106.994 282.92 107.318C282.735 107.642 282.468 107.911 282.146 108.099C281.823 108.286 281.457 108.385 281.084 108.385C280.711 108.385 280.345 108.286 280.022 108.099C279.7 107.911 279.433 107.642 279.248 107.318C279.063 106.994 278.968 106.627 278.971 106.254C278.974 105.881 279.076 105.515 279.266 105.194H276.813C277.003 105.515 277.105 105.881 277.108 106.254C277.111 106.627 277.016 106.994 276.831 107.318C276.646 107.642 276.379 107.911 276.057 108.099C275.734 108.286 275.368 108.385 274.995 108.385C274.622 108.385 274.256 108.286 273.933 108.099C273.611 107.911 273.344 107.642 273.159 107.318C272.974 106.994 272.879 106.627 272.882 106.254C272.885 105.881 272.987 105.515 273.177 105.194H270.727C270.917 105.515 271.019 105.881 271.022 106.254C271.025 106.627 270.929 106.994 270.745 107.318C270.56 107.642 270.293 107.911 269.971 108.099C269.648 108.286 269.282 108.385 268.909 108.385C268.536 108.385 268.17 108.286 267.847 108.099C267.525 107.911 267.257 107.642 267.073 107.318C266.888 106.994 266.793 106.627 266.796 106.254C266.799 105.881 266.901 105.515 267.091 105.194H265.557V148.906L303.792 151L301.968 105.197L301.161 105.194Z" fill="#E0E0E0"/>
        <mask id="mask0_97_140" style="mask-type:luminance" maskUnits="userSpaceOnUse" x="265" y="104" width="37" height="44">
            <path d="M300.604 104C300.799 104.321 300.904 104.688 300.91 105.063C300.916 105.438 300.822 105.808 300.638 106.135C300.454 106.462 300.186 106.734 299.862 106.923C299.538 107.113 299.17 107.212 298.795 107.212C298.419 107.212 298.051 107.113 297.727 106.923C297.403 106.734 297.135 106.462 296.951 106.135C296.767 105.808 296.673 105.438 296.679 105.063C296.685 104.688 296.79 104.321 296.985 104H294.532C294.698 104.28 294.797 104.594 294.821 104.918C294.846 105.243 294.795 105.568 294.673 105.87C294.551 106.171 294.361 106.441 294.118 106.657C293.875 106.873 293.585 107.03 293.271 107.116C292.957 107.201 292.628 107.213 292.309 107.151C291.99 107.089 291.689 106.954 291.431 106.756C291.172 106.559 290.963 106.304 290.819 106.013C290.675 105.721 290.6 105.4 290.601 105.075C290.6 104.696 290.703 104.324 290.899 104H288.446C288.611 104.28 288.71 104.594 288.735 104.918C288.759 105.243 288.708 105.568 288.586 105.87C288.464 106.171 288.275 106.441 288.031 106.657C287.788 106.873 287.499 107.03 287.185 107.116C286.871 107.201 286.542 107.213 286.223 107.151C285.903 107.089 285.603 106.954 285.344 106.756C285.086 106.559 284.877 106.304 284.733 106.013C284.589 105.721 284.514 105.4 284.514 105.075C284.514 104.696 284.617 104.324 284.812 104H282.359C282.55 104.321 282.651 104.686 282.654 105.059C282.658 105.432 282.562 105.799 282.377 106.123C282.193 106.447 281.926 106.717 281.603 106.904C281.281 107.092 280.914 107.19 280.541 107.19C280.168 107.19 279.802 107.092 279.48 106.904C279.157 106.717 278.89 106.447 278.705 106.123C278.521 105.799 278.425 105.432 278.428 105.059C278.431 104.686 278.533 104.321 278.723 104H276.256C276.447 104.321 276.548 104.686 276.552 105.059C276.555 105.432 276.459 105.799 276.274 106.123C276.09 106.447 275.823 106.717 275.5 106.904C275.178 107.092 274.811 107.19 274.438 107.19C274.065 107.19 273.699 107.092 273.377 106.904C273.054 106.717 272.787 106.447 272.602 106.123C272.418 105.799 272.322 105.432 272.325 105.059C272.328 104.686 272.43 104.321 272.62 104H270.17C270.36 104.321 270.462 104.686 270.465 105.059C270.468 105.432 270.373 105.799 270.188 106.123C270.004 106.447 269.736 106.717 269.414 106.904C269.091 107.092 268.725 107.19 268.352 107.19C267.979 107.19 267.613 107.092 267.29 106.904C266.968 106.717 266.701 106.447 266.516 106.123C266.332 105.799 266.236 105.432 266.239 105.059C266.242 104.686 266.344 104.321 266.534 104H265V147.712H301.414V104H300.604Z" fill="white"/>
        </mask>
        <g mask="url(#mask0_97_140)">
            <path d="M300.604 104C300.799 104.321 300.904 104.688 300.91 105.063C300.916 105.438 300.822 105.808 300.638 106.135C300.454 106.462 300.186 106.734 299.862 106.923C299.538 107.113 299.17 107.212 298.795 107.212C298.419 107.212 298.051 107.113 297.727 106.923C297.403 106.734 297.135 106.462 296.951 106.135C296.767 105.808 296.673 105.438 296.679 105.063C296.685 104.688 296.79 104.321 296.985 104H294.532C294.698 104.28 294.797 104.594 294.821 104.918C294.846 105.243 294.795 105.568 294.673 105.87C294.551 106.171 294.361 106.441 294.118 106.657C293.875 106.873 293.585 107.03 293.271 107.116C292.957 107.201 292.628 107.213 292.309 107.151C291.99 107.089 291.689 106.954 291.431 106.756C291.172 106.559 290.963 106.304 290.819 106.013C290.675 105.721 290.6 105.4 290.601 105.075C290.6 104.696 290.703 104.324 290.899 104H288.446C288.611 104.28 288.71 104.594 288.735 104.918C288.759 105.243 288.708 105.568 288.586 105.87C288.464 106.171 288.275 106.441 288.031 106.657C287.788 106.873 287.499 107.03 287.185 107.116C286.871 107.201 286.542 107.213 286.223 107.151C285.903 107.089 285.603 106.954 285.344 106.756C285.086 106.559 284.877 106.304 284.733 106.013C284.589 105.721 284.514 105.4 284.514 105.075C284.514 104.696 284.617 104.324 284.812 104H282.359C282.55 104.321 282.651 104.686 282.654 105.059C282.658 105.432 282.562 105.799 282.377 106.123C282.193 106.447 281.926 106.717 281.603 106.904C281.281 107.092 280.914 107.19 280.541 107.19C280.168 107.19 279.802 107.092 279.48 106.904C279.157 106.717 278.89 106.447 278.705 106.123C278.521 105.799 278.425 105.432 278.428 105.059C278.431 104.686 278.533 104.321 278.723 104H276.256C276.447 104.321 276.548 104.686 276.552 105.059C276.555 105.432 276.459 105.799 276.274 106.123C276.09 106.447 275.823 106.717 275.5 106.904C275.178 107.092 274.811 107.19 274.438 107.19C274.065 107.19 273.699 107.092 273.377 106.904C273.054 106.717 272.787 106.447 272.602 106.123C272.418 105.799 272.322 105.432 272.325 105.059C272.328 104.686 272.43 104.321 272.62 104H270.17C270.36 104.321 270.462 104.686 270.465 105.059C270.468 105.432 270.373 105.799 270.188 106.123C270.004 106.447 269.736 106.717 269.414 106.904C269.091 107.092 268.725 107.19 268.352 107.19C267.979 107.19 267.613 107.092 267.29 106.904C266.968 106.717 266.701 106.447 266.516 106.123C266.332 105.799 266.236 105.432 266.239 105.059C266.242 104.686 266.344 104.321 266.534 104H265V147.712H301.414V104H300.604Z" fill="#F5F5F5"/>
            <path d="M268.624 149.66C268.585 149.66 268.446 139.08 268.312 125.995C268.178 112.909 268.1 102.329 268.142 102.329C268.184 102.329 268.323 112.909 268.457 125.995C268.59 139.08 268.666 149.66 268.624 149.66Z" fill="#E0E0E0"/>
            <path d="M271.522 149.66C271.483 149.66 271.341 139.08 271.207 125.995C271.074 112.909 270.999 102.329 271.038 102.329C271.077 102.329 271.219 112.909 271.352 125.995C271.486 139.08 271.567 149.66 271.522 149.66Z" fill="#E0E0E0"/>
            <path d="M277.434 149.66C277.395 149.66 277.256 139.08 277.123 125.995C276.989 112.909 276.911 102.329 276.953 102.329C276.994 102.329 277.134 112.909 277.267 125.995C277.401 139.08 277.476 149.66 277.434 149.66Z" fill="#E0E0E0"/>
            <path d="M283.34 149.66C283.301 149.66 283.159 139.08 283.026 125.995C282.892 112.909 282.817 102.329 282.856 102.329C282.895 102.329 283.037 112.909 283.171 125.995C283.304 139.08 283.379 149.66 283.34 149.66Z" fill="#E0E0E0"/>
            <path d="M289.247 149.66C289.208 149.66 289.066 139.08 288.933 125.995C288.799 112.909 288.724 102.329 288.765 102.329C288.807 102.329 288.946 112.909 289.08 125.995C289.214 139.08 289.289 149.66 289.247 149.66Z" fill="#E0E0E0"/>
            <path d="M294.851 149.66C294.812 149.66 294.67 139.08 294.536 125.995C294.402 112.909 294.327 102.329 294.369 102.329C294.411 102.329 294.547 112.909 294.681 125.995C294.814 139.08 294.892 149.66 294.851 149.66Z" fill="#E0E0E0"/>
            <path d="M300.456 149.66C300.417 149.66 300.275 139.08 300.141 125.995C300.008 112.909 299.933 102.329 299.974 102.329C300.016 102.329 300.155 112.909 300.289 125.995C300.423 139.08 300.498 149.66 300.456 149.66Z" fill="#E0E0E0"/>
            <path d="M274.471 149.602C274.43 149.602 274.29 139.008 274.157 125.937C274.023 112.865 273.948 102.271 273.987 102.271C274.026 102.271 274.168 112.851 274.301 125.937C274.435 139.022 274.51 149.602 274.471 149.602Z" fill="#E0E0E0"/>
            <path d="M280.315 149.541C280.273 149.541 280.134 138.961 280 125.875C279.867 112.789 279.792 102.209 279.831 102.209C279.87 102.209 280.012 112.789 280.145 125.875C280.279 138.961 280.354 149.541 280.315 149.541Z" fill="#E0E0E0"/>
            <path d="M286.159 149.483C286.12 149.483 285.978 138.889 285.844 125.817C285.711 112.745 285.635 102.151 285.674 102.151C285.713 102.151 285.855 112.731 285.989 125.817C286.123 138.903 286.198 149.483 286.159 149.483Z" fill="#E0E0E0"/>
            <path d="M292.003 149.421C291.964 149.421 291.822 138.841 291.688 125.755C291.554 112.67 291.479 102.09 291.518 102.09C291.557 102.09 291.699 112.67 291.833 125.755C291.966 138.841 292.044 149.421 292.003 149.421Z" fill="#E0E0E0"/>
            <path d="M297.607 149.722C297.565 149.722 297.426 139.128 297.292 126.056C297.159 112.984 297.081 102.391 297.123 102.391C297.164 102.391 297.304 112.971 297.437 126.056C297.571 139.142 297.646 149.722 297.607 149.722Z" fill="#E0E0E0"/>
            <path d="M309.962 143.758C309.962 143.797 299.382 143.936 286.297 144.067C273.211 144.198 262.631 144.27 262.631 144.231C262.631 144.192 273.211 144.053 286.297 143.922C299.382 143.792 309.962 143.716 309.962 143.758Z" fill="#E0E0E0"/>
            <path d="M310.224 146.746C310.224 146.788 299.644 146.924 286.558 147.055C273.473 147.186 262.893 147.258 262.893 147.219C262.893 147.18 273.473 147.041 286.558 146.91C299.644 146.779 310.224 146.707 310.224 146.746Z" fill="#E0E0E0"/>
            <path d="M309.905 137.914C309.905 137.953 299.312 138.092 286.24 138.223C273.168 138.354 262.574 138.426 262.574 138.385C262.574 138.343 273.154 138.207 286.24 138.076C299.326 137.945 309.905 137.872 309.905 137.914Z" fill="#E0E0E0"/>
            <path d="M309.847 132.068C309.847 132.109 299.267 132.246 286.181 132.377C273.096 132.508 262.516 132.583 262.516 132.541C262.516 132.499 273.096 132.363 286.181 132.232C299.267 132.101 309.847 132.029 309.847 132.068Z" fill="#E0E0E0"/>
            <path d="M309.788 126.223C309.788 126.265 299.194 126.402 286.123 126.532C273.051 126.663 262.457 126.736 262.457 126.697C262.457 126.658 273.037 126.519 286.123 126.388C299.208 126.257 309.788 126.184 309.788 126.223Z" fill="#E0E0E0"/>
            <path d="M309.73 120.379C309.73 120.418 299.136 120.557 286.064 120.688C272.992 120.819 262.398 120.891 262.398 120.853C262.398 120.814 272.978 120.674 286.064 120.543C299.15 120.413 309.73 120.34 309.73 120.379Z" fill="#E0E0E0"/>
            <path d="M309.665 114.535C309.665 114.574 299.085 114.714 286 114.845C272.914 114.975 262.334 115.048 262.334 115.009C262.334 114.97 272.914 114.831 286 114.7C299.085 114.569 309.665 114.494 309.665 114.535Z" fill="#E0E0E0"/>
            <path d="M309.613 108.692C309.613 108.73 299.033 108.87 285.947 109.001C272.861 109.131 262.281 109.204 262.281 109.162C262.281 109.12 272.861 108.984 285.947 108.856C299.033 108.728 309.613 108.65 309.613 108.692Z" fill="#E0E0E0"/>
            <path d="M309.613 106.35C309.613 106.389 299.033 106.528 285.947 106.659C272.861 106.79 262.281 106.862 262.281 106.823C262.281 106.784 272.861 106.645 285.947 106.514C299.033 106.383 309.613 106.308 309.613 106.35Z" fill="#E0E0E0"/>
            <path d="M309.613 111.676C309.613 111.717 299.033 111.854 285.947 111.985C272.861 112.115 262.281 112.188 262.281 112.149C262.281 112.11 272.861 111.971 285.947 111.84C299.033 111.709 309.613 111.637 309.613 111.676Z" fill="#E0E0E0"/>
            <path d="M309.613 117.475C309.613 117.514 299.033 117.654 285.947 117.784C272.861 117.915 262.281 117.988 262.281 117.946C262.281 117.904 272.861 117.768 285.947 117.64C299.033 117.512 309.613 117.425 309.613 117.475Z" fill="#E0E0E0"/>
            <path d="M309.613 123.272C309.613 123.311 299.033 123.45 285.947 123.581C272.861 123.712 262.281 123.785 262.281 123.746C262.281 123.707 272.861 123.567 285.947 123.437C299.033 123.306 309.613 123.233 309.613 123.272Z" fill="#E0E0E0"/>
            <path d="M309.613 129.071C309.613 129.11 299.033 129.25 285.947 129.378C272.861 129.506 262.281 129.584 262.281 129.542C262.281 129.5 272.861 129.364 285.947 129.233C299.033 129.102 309.613 129.03 309.613 129.071Z" fill="#E0E0E0"/>
            <path d="M309.613 134.868C309.613 134.907 299.033 135.047 285.947 135.177C272.861 135.308 262.281 135.381 262.281 135.342C262.281 135.303 272.861 135.164 285.947 135.033C299.033 134.902 309.613 134.829 309.613 134.868Z" fill="#E0E0E0"/>
            <path d="M309.613 140.665C309.613 140.707 299.033 140.843 285.947 140.974C272.861 141.105 262.281 141.18 262.281 141.138C262.281 141.096 272.861 140.96 285.947 140.829C299.033 140.698 309.613 140.626 309.613 140.665Z" fill="#E0E0E0"/>
        </g>
        <path d="M280.711 110.331C280.973 111.623 281.546 112.937 282.624 113.672C283.089 113.993 283.627 114.194 284.189 114.256C284.751 114.319 285.32 114.241 285.845 114.029C286.369 113.818 286.833 113.48 287.195 113.045C287.557 112.611 287.806 112.093 287.919 111.539C288.032 110.985 288.006 110.412 287.843 109.87C287.68 109.328 287.385 108.836 286.986 108.436C286.586 108.036 286.093 107.741 285.551 107.579C285.01 107.416 284.436 107.39 283.882 107.503" fill="#E0E0E0"/>
        <path d="M280.641 110.32C280.669 110.858 280.857 111.375 281.18 111.806C281.502 112.237 281.946 112.563 282.453 112.742C282.961 112.921 283.511 112.946 284.032 112.813C284.554 112.68 285.025 112.395 285.385 111.994C285.745 111.594 285.978 111.096 286.055 110.563C286.132 110.03 286.049 109.486 285.817 109C285.585 108.514 285.214 108.108 284.751 107.833C284.288 107.558 283.754 107.427 283.216 107.455C282.859 107.474 282.509 107.563 282.186 107.717C281.863 107.871 281.574 108.088 281.335 108.354C281.095 108.62 280.911 108.93 280.792 109.268C280.673 109.605 280.621 109.963 280.641 110.32Z" fill="#009960"/>
        <path d="M279.076 109.312C279.093 109.635 279.206 109.946 279.399 110.205C279.593 110.464 279.859 110.66 280.164 110.767C280.468 110.875 280.798 110.89 281.111 110.81C281.425 110.731 281.707 110.56 281.924 110.32C282.14 110.079 282.28 109.78 282.326 109.46C282.372 109.14 282.323 108.814 282.183 108.522C282.044 108.23 281.821 107.987 281.543 107.821C281.265 107.656 280.945 107.577 280.622 107.595C280.189 107.618 279.783 107.811 279.493 108.134C279.204 108.456 279.054 108.88 279.076 109.312Z" fill="#009960"/>
        <path d="M280.598 110.824C280.804 110.824 281.009 110.8 281.21 110.754C281.446 110.688 281.663 110.567 281.844 110.402C282.025 110.237 282.165 110.031 282.252 109.802C282.327 109.569 282.35 109.321 282.32 109.078C282.289 108.834 282.205 108.601 282.073 108.393C281.954 108.224 281.819 108.067 281.67 107.923C281.727 107.937 281.78 107.963 281.826 108.001C281.956 108.093 282.069 108.207 282.16 108.338C282.314 108.554 282.416 108.804 282.455 109.068C282.495 109.331 282.472 109.6 282.388 109.852C282.286 110.129 282.108 110.372 281.876 110.554C281.687 110.7 281.468 110.802 281.235 110.855C281.08 110.89 280.92 110.897 280.762 110.874C280.653 110.857 280.595 110.832 280.598 110.824Z" fill="#263238"/>
        <path d="M281.967 108.238C282.28 108.317 282.606 108.334 282.925 108.285C283.231 108.188 283.515 108.032 283.76 107.826C283.774 107.826 283.724 107.945 283.593 108.079C283.416 108.251 283.194 108.372 282.953 108.427C282.711 108.484 282.458 108.471 282.223 108.391C282.051 108.316 281.959 108.238 281.967 108.238Z" fill="#263238"/>
        <path d="M282.382 112.364C282.36 112.364 282.34 112.233 282.265 112.035C282.168 111.779 282.016 111.547 281.82 111.356C281.619 111.169 281.378 111.03 281.115 110.949C280.915 110.885 280.779 110.872 280.781 110.849C280.784 110.827 280.918 110.807 281.14 110.849C281.432 110.907 281.701 111.046 281.917 111.25C282.133 111.454 282.288 111.715 282.363 112.002C282.421 112.222 282.407 112.364 282.382 112.364Z" fill="#263238"/>
        <path d="M297.332 119.614C297.332 119.656 291.522 119.686 284.358 119.686C277.194 119.686 271.381 119.656 271.381 119.614C271.381 119.572 277.189 119.542 284.358 119.542C291.527 119.542 297.332 119.575 297.332 119.614Z" fill="#263238"/>
        <path d="M297.332 122.312C297.332 122.351 291.522 122.384 284.358 122.384C277.194 122.384 271.381 122.351 271.381 122.312C271.381 122.273 277.189 122.239 284.358 122.239C291.527 122.239 297.332 122.273 297.332 122.312Z" fill="#263238"/>
        <path d="M297.332 125.009C297.332 125.048 291.522 125.082 284.358 125.082C277.194 125.082 271.381 125.048 271.381 125.009C271.381 124.97 277.189 124.937 284.358 124.937C291.527 124.937 297.332 124.97 297.332 125.009Z" fill="#263238"/>
        <path d="M297.332 127.708C297.332 127.747 291.522 127.78 284.358 127.78C277.194 127.78 271.381 127.747 271.381 127.708C271.381 127.669 277.189 127.635 284.358 127.635C291.527 127.635 297.332 127.669 297.332 127.708Z" fill="#263238"/>
        <path d="M297.332 130.405C297.332 130.444 291.522 130.478 284.358 130.478C277.194 130.478 271.381 130.444 271.381 130.405C271.381 130.366 277.189 130.333 284.358 130.333C291.527 130.333 297.332 130.366 297.332 130.405Z" fill="#263238"/>
        <path d="M297.332 133.103C297.332 133.142 291.522 133.176 284.358 133.176C277.194 133.176 271.381 133.142 271.381 133.103C271.381 133.064 277.189 133.031 284.358 133.031C291.527 133.031 297.332 133.061 297.332 133.103Z" fill="#263238"/>
        <path d="M297.332 135.801C297.332 135.84 291.522 135.873 284.358 135.873C277.194 135.873 271.381 135.84 271.381 135.801C271.381 135.762 277.189 135.729 284.358 135.729C291.527 135.729 297.332 135.759 297.332 135.801Z" fill="#263238"/>
        <path d="M319.012 64.0463L319.194 67.4339C319.696 66.9498 320.356 66.6627 321.053 66.6251C321.8 66.6413 322.514 66.9393 323.051 67.4592C323.587 67.9792 323.908 68.6829 323.948 69.4293C323.988 70.1756 323.745 70.9096 323.267 71.4842C322.789 72.0588 322.112 72.4316 321.37 72.5279C320.674 72.5643 319.987 72.3495 319.435 71.9224L319.617 75.3396C320.12 74.8556 320.78 74.5685 321.476 74.5309C322.223 74.5471 322.937 74.845 323.474 75.365C324.011 75.885 324.332 76.5887 324.372 77.335C324.412 78.0814 324.169 78.8154 323.691 79.39C323.212 79.9646 322.535 80.3374 321.794 80.4337C321.097 80.4701 320.41 80.2552 319.859 79.8282L320.041 83.2454C320.544 82.7626 321.203 82.4769 321.9 82.4409C322.642 82.4644 323.348 82.7658 323.879 83.2853C324.41 83.8048 324.726 84.5046 324.765 85.2463C324.805 85.9879 324.564 86.7172 324.092 87.2901C323.619 87.8629 322.949 88.2374 322.213 88.3395C321.517 88.3771 320.832 88.1621 320.282 87.734L320.464 91.1512C320.967 90.6683 321.627 90.3827 322.323 90.3466C323.065 90.3702 323.772 90.6716 324.302 91.1911C324.833 91.7106 325.149 92.4104 325.189 93.152C325.228 93.8936 324.988 94.623 324.515 95.1958C324.043 95.7686 323.372 96.1432 322.636 96.2453C321.941 96.2837 321.255 96.0685 320.706 95.6397L320.888 99.0612C321.389 98.5755 322.049 98.2881 322.747 98.2524C323.489 98.276 324.195 98.5774 324.726 99.0969C325.257 99.6164 325.573 100.316 325.612 101.058C325.652 101.799 325.411 102.529 324.939 103.102C324.466 103.674 323.795 104.049 323.06 104.151C322.365 104.191 321.679 103.977 321.129 103.55L321.311 106.967C321.813 106.483 322.473 106.196 323.17 106.158C323.917 106.175 324.63 106.474 325.166 106.994C325.702 107.515 326.022 108.218 326.062 108.964C326.102 109.711 325.858 110.444 325.38 111.018C324.902 111.592 324.224 111.965 323.483 112.061C322.788 112.097 322.103 111.882 321.552 111.456L321.667 113.573L412.733 111.405L408.118 58.3594L319.012 64.0463Z" fill="#EBEBEB"/>
        <path d="M317 61.8527L317.182 65.2615C317.686 64.7845 318.344 64.5036 319.037 64.4696C319.784 64.4858 320.498 64.7838 321.035 65.3038C321.571 65.8238 321.892 66.5274 321.932 67.2738C321.972 68.0202 321.729 68.7542 321.251 69.3288C320.773 69.9034 320.096 70.2762 319.354 70.3725C318.659 70.4086 317.974 70.1937 317.423 69.767L317.606 73.1842C318.015 72.7918 318.529 72.5251 319.086 72.416C319.642 72.3068 320.218 72.3596 320.746 72.5682C321.274 72.7769 321.73 73.1325 322.062 73.5929C322.393 74.0532 322.585 74.5991 322.616 75.1655C322.646 75.732 322.514 76.2953 322.233 76.7886C321.953 77.2818 321.537 77.6843 321.035 77.9483C320.533 78.2123 319.966 78.3267 319.401 78.2778C318.836 78.229 318.296 78.0189 317.847 77.6727L318.029 81.09C318.53 80.6071 319.189 80.3214 319.884 80.2854C320.626 80.3081 321.333 80.6089 321.865 81.128C322.396 81.6472 322.713 82.347 322.753 83.0888C322.793 83.8306 322.553 84.5604 322.08 85.1336C321.608 85.7068 320.937 86.0817 320.201 86.184C319.504 86.2216 318.817 86.0066 318.266 85.5785L318.452 89C318.952 88.5142 319.611 88.2268 320.307 88.1912C321.05 88.2139 321.757 88.5146 322.288 89.0338C322.819 89.553 323.136 90.2527 323.176 90.9946C323.216 91.7364 322.976 92.4661 322.504 93.0394C322.031 93.6126 321.361 93.9875 320.625 94.0898C319.928 94.1281 319.24 93.913 318.69 93.4843L318.876 96.9057C319.377 96.4216 320.035 96.1344 320.731 96.0969C321.478 96.1132 322.191 96.4111 322.728 96.9311C323.265 97.4511 323.586 98.1548 323.626 98.9011C323.666 99.6475 323.423 100.382 322.945 100.956C322.467 101.531 321.789 101.904 321.048 102C320.351 102.036 319.665 101.821 319.113 101.394L319.295 104.812C319.798 104.327 320.457 104.04 321.154 104.003C321.901 104.019 322.615 104.317 323.152 104.837C323.689 105.357 324.009 106.061 324.05 106.807C324.09 107.553 323.846 108.287 323.368 108.862C322.89 109.436 322.213 109.809 321.472 109.906C320.775 109.942 320.088 109.727 319.536 109.3L319.651 111.417L410.692 106.543L408.041 57L317 61.8527Z" fill="#F5F5F5"/>
        <path d="M408.571 66.7856C408.571 66.8449 388.195 67.9839 363.055 69.3263C337.914 70.6686 317.525 71.7187 317.525 71.6679C317.525 71.6171 337.897 70.4696 363.042 69.1272C388.186 67.7849 408.567 66.7263 408.571 66.7856Z" fill="#E0E0E0"/>
        <path d="M408.995 74.7128C408.995 74.7721 388.618 75.9154 363.478 77.2535C338.338 78.5916 317.953 79.6418 317.949 79.5825C317.945 79.5232 338.321 78.3799 363.47 77.0418C388.618 75.7037 408.991 74.6536 408.995 74.7128Z" fill="#E0E0E0"/>
        <path d="M409.417 82.6396C409.417 82.7031 389.04 83.8422 363.9 85.1803C338.76 86.5184 318.375 87.5685 318.371 87.5092C318.367 87.45 338.743 86.3067 363.892 84.9686C389.04 83.6305 409.412 82.5803 409.417 82.6396Z" fill="#E0E0E0"/>
        <path d="M409.84 90.5669C409.84 90.6304 389.464 91.7694 364.328 93.1075C339.192 94.4456 318.799 95.4915 318.795 95.4323C318.791 95.373 339.167 94.2297 364.316 92.8916C389.464 91.5535 409.836 90.5076 409.84 90.5669Z" fill="#E0E0E0"/>
        <path d="M410.264 98.4979C410.264 98.5571 389.888 99.6962 364.752 101.039C339.616 102.381 319.223 103.427 319.219 103.368C319.215 103.308 339.595 102.169 364.739 100.827C389.884 99.4845 410.264 98.4343 410.264 98.4979Z" fill="#E0E0E0"/>
        <path d="M329.76 61.1723L329.549 61.1836L332.198 110.737L332.409 110.725L329.76 61.1723Z" fill="#F5F5F5"/>
        <path d="M340.557 110.287C340.498 110.287 339.854 99.1966 339.122 85.515C338.389 71.8334 337.851 60.7349 337.906 60.7349C337.961 60.7349 338.609 71.8165 339.342 85.5066C340.074 99.1966 340.621 110.283 340.557 110.287Z" fill="#E0E0E0"/>
        <path d="M324.352 111.151C324.289 111.151 323.645 100.065 322.913 86.383C322.18 72.7014 321.642 61.6029 321.697 61.5986C321.752 61.5944 322.404 72.6845 323.133 86.3703C323.861 100.056 324.412 111.151 324.352 111.151Z" fill="#E0E0E0"/>
        <path d="M349.432 109.808C349.373 109.808 348.729 98.7224 347.997 85.0408C347.264 71.3592 346.726 60.2606 346.781 60.2563C346.836 60.2521 347.484 71.3422 348.217 85.0281C348.949 98.7139 349.496 109.808 349.432 109.808Z" fill="#E0E0E0"/>
        <path d="M358.311 109.355C358.247 109.355 357.608 98.2692 356.875 84.5876C356.143 70.906 355.605 59.8075 355.66 59.8032C355.715 59.799 356.363 70.8891 357.096 84.5749C357.828 98.2608 358.37 109.355 358.311 109.355Z" fill="#E0E0E0"/>
        <path d="M367.188 108.859C367.129 108.859 366.485 97.7736 365.752 84.092C365.02 70.4104 364.482 59.3119 364.537 59.3076C364.592 59.3034 365.24 70.3935 365.973 84.0793C366.705 97.7652 367.247 108.855 367.188 108.859Z" fill="#E0E0E0"/>
        <path d="M376.063 108.385C376.004 108.385 375.36 97.2995 374.627 83.6179C373.895 69.9363 373.357 58.8377 373.412 58.8335C373.467 58.8293 374.115 69.9194 374.848 83.6052C375.58 97.291 376.126 108.381 376.063 108.385Z" fill="#E0E0E0"/>
        <path d="M384.944 107.911C384.88 107.911 384.237 96.8212 383.508 83.1395C382.78 69.4579 382.238 58.3636 382.293 58.3594C382.348 58.3551 382.996 69.4452 383.728 83.1311C384.461 96.8169 385.003 107.907 384.944 107.911Z" fill="#E0E0E0"/>
        <path d="M393.817 107.437C393.757 107.437 393.114 96.3465 392.381 82.6649C391.649 68.9833 391.111 57.8848 391.166 57.8848C391.221 57.8848 391.869 68.9664 392.601 82.6565C393.334 96.3465 393.876 107.432 393.817 107.437Z" fill="#E0E0E0"/>
        <path d="M402.694 106.958C402.634 106.958 401.991 95.8723 401.258 82.1907C400.526 68.5091 399.988 57.4105 400.043 57.4063C400.098 57.402 400.746 68.4921 401.478 82.178C402.211 95.8638 402.757 106.958 402.694 106.958Z" fill="#E0E0E0"/>
        <path d="M401.588 76.9529C401.533 76.9593 401.478 76.9593 401.423 76.9529L400.94 76.9868L399.077 77.1053L392.23 77.4991C386.446 77.8209 378.455 78.2444 369.626 78.6805C360.797 79.1167 352.803 79.4809 347.014 79.7011C344.118 79.8112 341.776 79.8831 340.154 79.9128C338.532 79.9424 337.614 79.9128 337.647 79.8535C337.86 79.8872 338.076 79.8943 338.291 79.8747C338.714 79.8747 339.345 79.8535 340.154 79.8281C341.772 79.773 344.113 79.6757 347.006 79.5444L369.618 78.4604L392.221 77.3467L399.073 77.0206L400.936 76.9444H401.423C401.478 76.9425 401.533 76.9454 401.588 76.9529Z" fill="#EBEBEB"/>
        <path d="M403.418 86.0063C403.418 86.0698 388.728 86.7896 370.605 87.6238C352.481 88.458 337.783 89.0805 337.783 89.0297C337.783 88.9789 352.473 88.2463 370.6 87.4163C388.728 86.5864 403.418 85.947 403.418 86.0063Z" fill="#EBEBEB"/>
        <path d="M404.405 93.9331C404.405 93.9966 389.715 94.7207 371.592 95.5506C353.468 96.3806 338.766 97.0073 338.762 96.9438C338.757 96.8803 353.451 96.1604 371.579 95.3305C389.707 94.5005 404.4 93.8738 404.405 93.9331Z" fill="#EBEBEB"/>
        <path d="M327.197 67.0482C327.595 69.0172 328.468 71.0159 330.106 72.155C330.814 72.6441 331.633 72.9501 332.488 73.0453C333.344 73.1406 334.209 73.0222 335.008 72.7008C335.806 72.3794 336.512 71.865 337.063 71.2037C337.614 70.5424 337.992 69.7548 338.164 68.9114C338.336 68.0681 338.295 67.1953 338.047 66.3713C337.799 65.5472 337.35 64.7977 336.741 64.1897C336.131 63.5817 335.381 63.1343 334.556 62.8875C333.732 62.6407 332.859 62.6022 332.016 62.7756" fill="#E0E0E0"/>
        <path d="M326.973 67.0355C327.018 67.8532 327.304 68.6392 327.795 69.2943C328.287 69.9494 328.961 70.4441 329.734 70.7159C330.506 70.9877 331.342 71.0243 332.135 70.8212C332.929 70.6181 333.644 70.1843 334.191 69.5747C334.738 68.9651 335.091 68.2071 335.208 67.3965C335.324 66.5858 335.197 65.759 334.843 65.0204C334.489 64.2818 333.925 63.6647 333.22 63.247C332.516 62.8294 331.703 62.63 330.886 62.674C330.342 62.7032 329.81 62.8392 329.319 63.0743C328.828 63.3093 328.389 63.6388 328.025 64.0439C327.662 64.4489 327.382 64.9216 327.202 65.4349C327.021 65.9482 326.943 66.4921 326.973 67.0355Z" fill="#009960"/>
        <path d="M324.594 65.5027C324.62 65.9935 324.792 66.4653 325.086 66.8586C325.381 67.2519 325.786 67.549 326.249 67.7123C326.713 67.8757 327.215 67.8979 327.691 67.7762C328.167 67.6546 328.596 67.3945 328.925 67.0288C329.253 66.6631 329.466 66.2083 329.536 65.7218C329.606 65.2353 329.53 64.739 329.318 64.2956C329.106 63.8522 328.767 63.4816 328.345 63.2307C327.922 62.9798 327.434 62.8598 326.944 62.8858C326.617 62.9032 326.298 62.9846 326.003 63.1255C325.708 63.2665 325.444 63.4641 325.226 63.7071C325.008 63.9502 324.84 64.2339 324.731 64.542C324.623 64.8501 324.576 65.1765 324.594 65.5027Z" fill="#009960"/>
        <path d="M326.908 67.802C327.222 67.8013 327.534 67.7658 327.84 67.6961C328.199 67.5953 328.529 67.4118 328.804 67.1603C329.079 66.9088 329.291 66.5963 329.424 66.2479C329.539 65.8931 329.575 65.5172 329.529 65.1469C329.483 64.7765 329.356 64.4209 329.157 64.1053C328.974 63.8474 328.767 63.6077 328.539 63.3896C328.539 63.3896 328.636 63.4151 328.776 63.5082C328.974 63.6461 329.146 63.8181 329.284 64.0164C329.519 64.346 329.673 64.7264 329.733 65.1266C329.793 65.5269 329.758 65.9357 329.631 66.3199C329.478 66.7422 329.208 67.1123 328.852 67.387C328.566 67.6113 328.233 67.769 327.878 67.8486C327.642 67.903 327.398 67.9131 327.158 67.8782C326.993 67.857 326.904 67.8147 326.908 67.802Z" fill="#EBEBEB"/>
        <path d="M328.989 63.8469C329.459 64.0045 329.962 64.0293 330.445 63.9187C330.928 63.8082 331.371 63.5664 331.725 63.2202C331.746 63.2202 331.674 63.3981 331.47 63.6013C331.201 63.8659 330.864 64.0506 330.496 64.1351C330.129 64.2196 329.745 64.2004 329.387 64.0798C329.116 63.9867 328.976 63.8723 328.989 63.8469Z" fill="#EBEBEB"/>
        <path d="M329.628 70.1436C329.555 69.9809 329.496 69.8124 329.45 69.6397C329.308 69.2469 329.076 68.8929 328.772 68.6061C328.469 68.3193 328.102 68.1077 327.702 67.9883C327.397 67.8909 327.189 67.8739 327.193 67.8401C327.198 67.8062 327.405 67.7765 327.74 67.8401C328.184 67.9267 328.594 68.1374 328.923 68.4477C329.252 68.7579 329.486 69.1551 329.599 69.5931C329.679 69.9277 329.658 70.1394 329.628 70.1436Z" fill="#EBEBEB"/>
        <path d="M397.176 64.1265C397.578 66.0955 398.446 68.0899 400.085 69.2078C401.033 69.8591 402.17 70.1781 403.318 70.115C404.466 70.0519 405.561 69.6103 406.432 68.859C407.303 68.1078 407.9 67.0893 408.131 65.9626C408.361 64.836 408.212 63.6647 407.707 62.6317C407.179 61.6153 406.34 60.7945 405.312 60.2894C404.284 59.7842 403.122 59.6212 401.995 59.8242" fill="#E0E0E0"/>
        <path d="M405.175 63.0047C405.217 63.7949 405.023 64.5797 404.619 65.2599C404.215 65.9401 403.618 66.4851 402.903 66.8261C402.189 67.167 401.39 67.2886 400.607 67.1754C399.824 67.0622 399.092 66.7194 398.503 66.1902C397.915 65.661 397.497 64.9693 397.301 64.2025C397.106 63.4356 397.143 62.6281 397.406 61.882C397.67 61.1358 398.149 60.4846 398.782 60.0106C399.416 59.5366 400.176 59.2612 400.966 59.2191C401.491 59.1911 402.017 59.2668 402.512 59.4419C403.008 59.6171 403.464 59.8882 403.855 60.2397C404.246 60.5913 404.564 61.0164 404.79 61.4908C405.017 61.9653 405.148 62.4797 405.175 63.0047Z" fill="#009960"/>
        <path d="M404.909 63.8175C406.235 63.8175 407.31 62.7426 407.31 61.4166C407.31 60.0906 406.235 59.0156 404.909 59.0156C403.583 59.0156 402.508 60.0906 402.508 61.4166C402.508 62.7426 403.583 63.8175 404.909 63.8175Z" fill="#009960"/>
        <path d="M405.319 63.7329C405.319 63.7329 405.243 63.7922 405.082 63.8345C404.855 63.8934 404.62 63.9092 404.387 63.8811C404.039 63.8429 403.703 63.7272 403.405 63.5424C403.039 63.3123 402.745 62.9835 402.558 62.5938C402.396 62.238 402.32 61.8491 402.336 61.4585C402.352 61.0678 402.46 60.6865 402.651 60.3453C402.789 60.0521 403.02 59.8125 403.308 59.6636C403.114 59.8998 402.942 60.152 402.791 60.4173C402.633 60.7408 402.548 61.0951 402.542 61.4552C402.536 61.8153 402.609 62.1722 402.757 62.5007C402.92 62.8205 403.155 63.098 403.444 63.3111C403.733 63.5243 404.068 63.6672 404.421 63.7287C404.719 63.7621 405.02 63.7635 405.319 63.7329Z" fill="#EBEBEB"/>
        <path d="M402.911 60.1504C402.911 60.1504 402.805 60.2986 402.555 60.4172C402.224 60.5713 401.856 60.6299 401.493 60.5865C401.131 60.5431 400.787 60.3994 400.501 60.1716C400.285 59.998 400.201 59.8456 400.222 59.8286C400.616 60.0913 401.057 60.2741 401.522 60.3664C401.994 60.3822 402.465 60.309 402.911 60.1504Z" fill="#EBEBEB"/>
        <path d="M402.943 66.2649C402.88 66.0956 402.869 65.911 402.914 65.7356C402.978 65.3022 403.163 64.8957 403.447 64.5627C403.729 64.2293 404.101 63.9839 404.519 63.8555C404.84 63.7581 405.048 63.775 405.048 63.8005C405.048 63.8259 404.857 63.8767 404.574 63.9995C404.203 64.1577 403.874 64.3994 403.613 64.7057C403.351 65.012 403.164 65.3746 403.066 65.7652C402.994 66.0659 402.994 66.2649 402.943 66.2649Z" fill="#EBEBEB"/>
        <path d="M395.605 132.997L406.166 173.03C411.201 174.749 416.344 176.195 422.668 174.55L452.58 165.676L437.831 119.803L395.605 132.997Z" fill="#FAFAFA"/>
        <path d="M392.922 131.543L403.482 171.567L419.984 173.096L449.929 164.222L437.665 119.229L392.922 131.543Z" fill="#F5F5F5"/>
        <path d="M392.614 141.415L408.526 126.201L405.352 122.844L389 137.925L392.614 141.415Z" fill="#455A64"/>
        <path d="M445.799 127.397L425.891 118L423.889 122.171L443.838 132.025L445.799 127.397Z" fill="#455A64"/>
        <path d="M436.585 134.809C436.585 134.925 429.032 137.118 419.643 139.703C410.254 142.287 402.643 144.297 402.577 144.156C402.51 144.015 410.129 141.846 419.527 139.254C428.924 136.661 436.552 134.692 436.585 134.809Z" fill="#E0E0E0"/>
        <path d="M438.13 140.982C438.13 141.099 430.569 143.292 421.18 145.885C411.791 148.477 404.147 150.479 404.113 150.363C404.08 150.247 411.674 148.053 421.064 145.461C430.453 142.868 438.097 140.833 438.13 140.982Z" fill="#E0E0E0"/>
        <path d="M439.817 146.367C439.817 146.483 432.264 148.676 422.867 151.269C413.47 153.861 405.842 155.864 405.809 155.789C405.775 155.714 413.361 153.479 422.759 150.887C432.156 148.294 439.784 146.25 439.817 146.367Z" fill="#E0E0E0"/>
        <path d="M441.221 151.634C441.221 151.742 433.669 153.936 424.279 156.528C414.89 159.12 407.246 161.123 407.213 161.007C407.18 160.89 414.766 158.697 424.163 156.113C433.561 153.529 441.196 151.501 441.221 151.634Z" fill="#E0E0E0"/>
    </g>
    <defs>
        <clipPath id="clip0_97_140">
            <rect width="450" height="160" rx="24" fill="white"/>
        </clipPath>
    </defs>
</svg>
