<svg width="450" height="160" viewBox="0 0 450 160" fill="none" xmlns="http://www.w3.org/2000/svg">
    <g clip-path="url(#clip0_144_307)">
        <path d="M348.299 92L304.84 92.5365L304.948 166.292L353.447 166.708L348.299 92Z" fill="#EBEBEB"/>
        <path d="M309.907 166.001C309.907 166.001 309.81 166.155 309.605 166.452C309.399 166.749 309.085 167.194 308.675 167.77C307.847 168.946 306.614 170.681 305.004 172.959L304.947 172.856L373.543 172.919L373.383 173.084C373.383 170.801 373.383 168.324 373.383 165.812L373.549 165.978L347.196 166.064L309.913 166.161H309.753V166.001C309.753 144.551 309.799 126.184 309.81 113.176C309.81 106.68 309.85 101.526 309.862 97.9818C309.862 96.2181 309.862 94.8597 309.862 93.935C309.862 93.4784 309.862 93.1359 309.862 92.8905C309.862 92.6451 309.862 92.5366 309.862 92.5366C309.862 92.5366 309.862 92.6565 309.862 92.8905C309.862 93.1245 309.862 93.4613 309.862 93.935C309.862 94.8597 309.862 96.2181 309.862 97.9818C309.862 101.526 309.862 106.68 309.907 113.176C309.907 126.184 309.947 144.568 309.97 166.001L309.81 165.835L347.093 165.721L373.446 165.647H373.617V173.278H373.452L304.856 173.016H304.73L304.805 172.913L308.532 167.776L309.485 166.469C309.793 166.138 309.907 166.001 309.907 166.001Z" fill="#E0E0E0"/>
        <path d="M481 128.185H268V137.261H481V128.185Z" fill="#455A64"/>
        <path d="M313.119 128.323C313.119 128.323 313.119 128.36 313.053 128.418C312.987 128.476 312.936 128.579 312.834 128.695C312.517 129.019 312.156 129.297 311.761 129.52C311.122 129.866 310.425 130.093 309.704 130.191C308.754 130.325 307.794 130.366 306.837 130.315C305.677 130.257 304.522 130.128 303.378 129.928C302.078 129.694 300.765 129.541 299.446 129.469C296.416 129.488 293.415 130.056 290.588 131.147C287.546 132.205 284.708 133.409 281.994 134.138C280.71 134.49 279.4 134.734 278.076 134.868C276.916 134.985 275.748 134.985 274.588 134.868C272.913 134.72 271.288 134.223 269.817 133.409C269.289 133.108 268.799 132.745 268.357 132.329L268.46 132.394L268.744 132.606C269.108 132.876 269.491 133.12 269.89 133.336C271.359 134.119 272.973 134.593 274.632 134.729C275.775 134.845 276.926 134.845 278.068 134.729C279.375 134.557 280.666 134.279 281.928 133.897C284.62 133.168 287.444 131.949 290.501 130.891C293.357 129.789 296.392 129.223 299.453 129.221C300.782 129.302 302.105 129.463 303.415 129.702C304.548 129.91 305.694 130.049 306.844 130.118C307.79 130.182 308.741 130.155 309.682 130.038C310.389 129.95 311.075 129.74 311.71 129.418C312.238 129.135 312.714 128.765 313.119 128.323Z" fill="#263238"/>
        <path d="M289.822 128.462C289.622 128.656 289.408 128.834 289.18 128.995C288.566 129.466 287.915 129.886 287.232 130.249C286.219 130.776 285.156 131.199 284.058 131.512C282.704 131.883 281.311 132.096 279.907 132.146C277.348 132.239 274.803 131.727 272.48 130.651C271.774 130.329 271.158 129.841 270.685 129.228C270.567 129.057 270.469 128.874 270.393 128.681C270.365 128.613 270.348 128.542 270.342 128.469C270.468 128.722 270.612 128.966 270.772 129.199C271.261 129.745 271.867 130.174 272.545 130.454C274.842 131.46 277.335 131.939 279.841 131.855C282.375 131.792 284.865 131.177 287.137 130.052C287.817 129.715 288.475 129.335 289.107 128.914C289.331 128.742 289.571 128.591 289.822 128.462Z" fill="#263238"/>
        <path d="M339.801 134.211C339.913 134.242 340.023 134.281 340.129 134.328C340.451 134.437 340.78 134.522 341.114 134.583C342.385 134.804 343.694 134.604 344.842 134.014V134.131C343.493 133.127 341.892 132.518 340.216 132.373C338.094 132.167 335.966 132.706 334.197 133.898C334.083 133.958 333.982 134.042 333.901 134.144C333.821 134.246 333.763 134.363 333.73 134.489C333.732 134.615 333.77 134.738 333.842 134.842C333.913 134.946 334.014 135.026 334.132 135.072C334.39 135.208 334.668 135.301 334.956 135.349L335.861 135.554C337.086 135.816 338.341 136.079 339.647 136.283C340.977 136.486 342.322 136.574 343.667 136.546C344.359 136.53 345.049 136.467 345.732 136.356C346.075 136.298 346.418 136.232 346.761 136.145C347.101 136.073 347.434 135.968 347.753 135.831C348.251 135.639 348.694 135.328 349.045 134.926C349.202 134.733 349.307 134.503 349.351 134.258C349.394 134.013 349.374 133.761 349.293 133.525C349.075 133.067 348.721 132.687 348.278 132.438C347.829 132.17 347.355 131.945 346.863 131.767C344.964 131.068 342.968 130.664 340.946 130.571C335.168 130.262 329.459 131.944 324.771 135.335C324.121 135.824 323.618 136.21 323.312 136.495L322.932 136.801L322.801 136.904L322.918 136.787C323.005 136.699 323.122 136.59 323.275 136.459C323.74 136.032 324.227 135.631 324.734 135.255C326.59 133.863 328.633 132.743 330.805 131.928C334.063 130.697 337.541 130.155 341.019 130.337C343.068 130.425 345.091 130.829 347.016 131.534C347.523 131.718 348.012 131.951 348.475 132.227C348.969 132.505 349.361 132.935 349.592 133.453C349.694 133.727 349.721 134.023 349.671 134.312C349.621 134.6 349.495 134.87 349.307 135.094C348.931 135.529 348.455 135.867 347.921 136.079C347.585 136.224 347.236 136.334 346.878 136.407C346.535 136.495 346.148 136.561 345.834 136.619C345.14 136.735 344.437 136.801 343.733 136.816C342.373 136.843 341.013 136.75 339.669 136.539C338.356 136.349 337.086 136.079 335.868 135.809L334.963 135.605C334.652 135.547 334.352 135.441 334.073 135.291C333.925 135.213 333.795 135.104 333.694 134.97C333.589 134.83 333.542 134.655 333.562 134.481C333.6 134.327 333.669 134.183 333.766 134.057C333.863 133.931 333.985 133.827 334.124 133.752C335.939 132.54 338.119 132.001 340.289 132.227C341.994 132.383 343.621 133.018 344.981 134.058L345.068 134.124L344.966 134.175C343.773 134.748 342.422 134.907 341.128 134.627C340.667 134.558 340.219 134.418 339.801 134.211Z" fill="#263238"/>
        <path d="M367.211 128.557C367.309 128.695 367.381 128.851 367.422 129.016C367.559 129.455 367.606 129.916 367.561 130.373C367.349 131.894 366.617 133.294 365.489 134.335C364.909 134.947 364.257 135.485 363.548 135.94C362.964 136.309 362.337 136.606 361.68 136.823C361.237 136.969 360.783 137.081 360.323 137.159C360.154 137.186 359.982 137.186 359.812 137.159C359.812 137.115 360.542 137.02 361.615 136.619C362.247 136.381 362.851 136.075 363.417 135.707C364.101 135.254 364.731 134.722 365.292 134.124C366.385 133.119 367.118 131.784 367.378 130.322C367.429 129.728 367.372 129.13 367.211 128.557Z" fill="#263238"/>
        <path d="M405.457 136.816C405.151 136.487 404.825 136.177 404.479 135.889C403.519 135.118 402.371 134.614 401.152 134.43C400.308 134.31 399.449 134.335 398.613 134.503C397.64 134.724 396.641 134.813 395.644 134.766C394.545 134.58 393.519 134.093 392.682 133.358C391.796 132.62 390.792 132.038 389.712 131.636C387.569 130.939 385.265 130.906 383.102 131.541C381.347 132.053 379.696 132.868 378.221 133.949C377.221 134.667 376.273 135.454 375.383 136.305L374.653 136.998C374.576 137.087 374.488 137.166 374.391 137.232C374.391 137.232 374.464 137.137 374.617 136.962L375.303 136.232C376.174 135.353 377.111 134.541 378.104 133.803C379.586 132.688 381.254 131.843 383.029 131.307C385.24 130.651 387.599 130.682 389.793 131.395C390.899 131.805 391.928 132.399 392.835 133.153C393.632 133.867 394.612 134.345 395.666 134.532C396.645 134.585 397.627 134.504 398.584 134.292C399.444 134.134 400.325 134.122 401.189 134.255C402.432 134.463 403.597 135.002 404.56 135.816C404.908 136.101 405.211 136.439 405.457 136.816Z" fill="#263238"/>
        <path d="M439.625 128.272C439.558 128.385 439.48 128.49 439.391 128.586C439.167 128.882 438.923 129.162 438.662 129.425C437.726 130.432 436.684 131.335 435.554 132.117C433.883 133.308 432.072 134.289 430.162 135.036C429.032 135.488 427.869 135.849 426.682 136.116C425.406 136.415 424.103 136.579 422.793 136.605C420.261 136.594 417.755 136.099 415.409 135.145C413.503 134.383 411.699 133.385 410.04 132.176C408.922 131.377 407.888 130.468 406.953 129.462C406.61 129.119 406.392 128.812 406.224 128.623C406.135 128.527 406.057 128.422 405.99 128.309C406.086 128.396 406.176 128.488 406.26 128.586C406.443 128.769 406.676 129.06 407.026 129.396C407.986 130.366 409.031 131.248 410.149 132.03C411.809 133.213 413.604 134.192 415.497 134.948C417.814 135.893 420.29 136.388 422.793 136.408C424.086 136.383 425.372 136.222 426.631 135.926C427.807 135.668 428.961 135.317 430.082 134.875C431.98 134.142 433.785 133.187 435.459 132.03C436.588 131.264 437.638 130.389 438.596 129.418C438.954 129.09 439.18 128.79 439.362 128.608C439.442 128.49 439.53 128.378 439.625 128.272Z" fill="#263238"/>
        <path d="M434.729 128.185C434.729 128.185 434.678 128.243 434.554 128.33C434.43 128.418 434.247 128.549 433.999 128.695C433.31 129.124 432.599 129.516 431.869 129.87C430.783 130.405 429.656 130.851 428.498 131.205C427.083 131.663 425.608 131.909 424.121 131.935C421.397 131.88 418.719 131.225 416.277 130.016C415.545 129.665 414.841 129.26 414.169 128.805C413.921 128.651 413.753 128.513 413.629 128.425C413.505 128.338 413.446 128.279 413.454 128.272C413.461 128.265 413.731 128.433 414.22 128.724C414.912 129.142 415.629 129.52 416.365 129.855C418.784 131.008 421.419 131.64 424.099 131.709C425.568 131.672 427.025 131.426 428.425 130.979C429.572 130.632 430.694 130.205 431.781 129.702C432.715 129.272 433.445 128.885 433.97 128.6C434.216 128.449 434.469 128.31 434.729 128.185Z" fill="#263238"/>
        <path d="M456.405 129.118H456.157L455.427 129.075L454.931 129.038H454.325C453.895 129.038 453.406 129.038 452.866 129.038L452.02 129.082L451.108 129.184C450.473 129.235 449.809 129.381 449.101 129.498C447.588 129.819 446.101 130.251 444.651 130.789C443.213 131.355 441.819 132.023 440.477 132.788C439.879 133.168 439.288 133.518 438.785 133.875L438.055 134.401L437.398 134.919C436.968 135.247 436.61 135.575 436.297 135.853L435.852 136.247L435.501 136.597L435.005 137.086C434.889 137.188 434.83 137.246 434.823 137.239C434.816 137.232 434.867 137.166 434.969 137.049L435.421 136.531L435.764 136.159L436.195 135.75C436.501 135.459 436.851 135.116 437.274 134.78L437.931 134.248L438.661 133.708C439.171 133.321 439.755 132.978 440.361 132.591C441.705 131.802 443.11 131.121 444.563 130.556C446.028 130.009 447.533 129.578 449.065 129.264C449.794 129.155 450.444 129.016 451.086 128.972L452.012 128.885H452.866C453.352 128.859 453.839 128.859 454.325 128.885H454.931L455.434 128.951L456.127 129.038C456.224 129.048 456.318 129.075 456.405 129.118Z" fill="#263238"/>
        <path d="M409.287 136.605C408.937 136.118 408.544 135.664 408.112 135.247C406.877 134.153 405.411 133.353 403.822 132.905C402.724 132.584 401.605 132.34 400.473 132.176C399.255 131.986 397.934 131.84 396.555 131.607C395.116 131.354 393.695 131.006 392.302 130.563C390.821 130.083 389.303 129.727 387.764 129.498C384.766 129.201 381.741 129.608 378.928 130.687C377.699 131.141 376.498 131.667 375.331 132.263C374.23 132.811 373.223 133.351 372.303 133.861C370.472 134.868 369.013 135.729 368.006 136.327L366.846 137.02L366.547 137.196L366.438 137.247L366.532 137.174L366.817 136.977C367.072 136.802 367.459 136.553 367.948 136.247C368.94 135.627 370.385 134.744 372.209 133.708C373.128 133.19 374.135 132.643 375.229 132.081C376.398 131.471 377.604 130.934 378.841 130.476C381.697 129.37 384.774 128.953 387.822 129.257C389.374 129.491 390.904 129.852 392.397 130.337C393.781 130.777 395.192 131.128 396.621 131.388C397.985 131.621 399.306 131.782 400.532 131.979C401.672 132.14 402.798 132.384 403.903 132.708C405.508 133.174 406.982 134.009 408.207 135.145C408.648 135.566 409.013 136.06 409.287 136.605Z" fill="#263238"/>
        <path d="M361.309 128.323C361.339 128.514 361.339 128.709 361.309 128.9C361.231 129.425 361.092 129.939 360.893 130.432C360.239 132.094 359.097 133.518 357.617 134.518C356.092 135.436 354.463 136.171 352.765 136.706C352.116 136.918 351.591 137.064 351.218 137.159C351.029 137.22 350.833 137.259 350.635 137.275C350.813 137.188 350.998 137.117 351.189 137.064L352.707 136.531C354.368 135.968 355.967 135.234 357.478 134.342C358.912 133.368 360.036 132.003 360.718 130.41C360.98 129.735 361.178 129.036 361.309 128.323Z" fill="#263238"/>
        <path d="M311.863 137.261C312.02 137.084 312.193 136.923 312.381 136.779C312.724 136.473 313.242 136.05 313.899 135.568C315.623 134.301 317.437 133.163 319.327 132.161C321.516 130.972 323.61 130.023 325.113 129.352C325.842 129.016 326.477 128.754 326.9 128.579C327.115 128.472 327.34 128.386 327.572 128.323C327.373 128.456 327.163 128.571 326.944 128.666L325.193 129.512C323.734 130.242 321.662 131.198 319.458 132.38C317.576 133.381 315.756 134.494 314.008 135.714C313.344 136.181 312.812 136.575 312.447 136.852C312.267 137.008 312.072 137.145 311.863 137.261Z" fill="#263238"/>
        <path d="M321.896 128.695C321.439 128.672 320.981 128.672 320.524 128.695C319.284 128.822 318.079 129.181 316.971 129.753C315.349 130.625 313.804 131.633 312.353 132.767C311.469 133.418 310.54 134.005 309.573 134.525C308.517 135.065 307.403 135.484 306.253 135.772C304.019 136.281 301.737 136.547 299.446 136.568C297.338 136.626 295.448 136.568 293.865 136.648C292.613 136.685 291.365 136.804 290.129 137.006C289.691 137.086 289.356 137.144 289.13 137.203L288.779 137.261C288.887 137.214 289 137.177 289.115 137.151C289.341 137.078 289.677 136.998 290.107 136.903C291.345 136.668 292.598 136.522 293.857 136.466C295.448 136.378 297.345 136.4 299.439 136.327C301.71 136.298 303.973 136.029 306.188 135.524C307.319 135.236 308.415 134.825 309.456 134.299C310.413 133.787 311.334 133.212 312.214 132.577C313.681 131.443 315.246 130.441 316.891 129.585C318.03 129.02 319.27 128.685 320.539 128.6C320.881 128.571 321.225 128.571 321.568 128.6C321.68 128.623 321.789 128.654 321.896 128.695Z" fill="#263238"/>
        <path d="M454.742 128.156C454.742 128.221 445.841 128.28 434.86 128.28C423.88 128.28 414.979 128.221 414.979 128.156C414.979 128.09 423.88 128.024 434.86 128.024C445.841 128.024 454.742 128.061 454.742 128.156Z" fill="#263238"/>
        <path d="M275.996 246.533H272.975L271.246 136.561H277.725L275.996 246.533Z" fill="#455A64"/>
        <path d="M294.776 77.5503C294.708 77.0985 294.464 76.6921 294.096 76.4205C293.729 76.1489 293.269 76.0343 292.817 76.102C292.365 76.1698 291.959 76.4142 291.687 76.7816C291.415 77.149 291.301 77.6092 291.369 78.061L298.92 124.121H302.364L294.776 77.5503Z" fill="#263238"/>
        <path d="M292.085 78.1194L323.195 43.9448L323.421 44.3169L324.931 46.8122L294.638 80.4322C294.486 80.5999 294.303 80.736 294.098 80.8328C293.894 80.9296 293.672 80.9852 293.446 80.9963C293.221 81.0075 292.995 80.9741 292.782 80.8979C292.569 80.8218 292.373 80.7045 292.205 80.5526C292.037 80.4007 291.901 80.2173 291.804 80.0129C291.708 79.8084 291.652 79.5869 291.641 79.3609C291.63 79.135 291.663 78.909 291.739 78.696C291.815 78.483 291.933 78.287 292.085 78.1194Z" fill="#263238"/>
        <path d="M294.367 79.0025C294.367 79.0025 294.425 78.9295 294.411 78.7909C294.387 78.5835 294.285 78.3929 294.126 78.2582C294.003 78.1539 293.855 78.0835 293.696 78.0541C293.537 78.0247 293.374 78.0372 293.221 78.0904C293.032 78.157 292.867 78.2809 292.751 78.4449C292.635 78.6089 292.572 78.805 292.572 79.0061C292.572 79.2072 292.635 79.4033 292.751 79.5673C292.867 79.7313 293.032 79.8552 293.221 79.9217C293.375 79.9719 293.538 79.9821 293.696 79.9514C293.855 79.9208 294.003 79.8503 294.126 79.7466C294.284 79.6142 294.386 79.4263 294.411 79.2213C294.411 79.0754 294.411 79.0025 294.367 79.0025C294.323 79.0025 294.316 79.3235 293.973 79.5497C293.878 79.6091 293.771 79.6459 293.66 79.6573C293.548 79.6687 293.436 79.6543 293.331 79.6153C293.209 79.5652 293.105 79.4804 293.031 79.3714C292.957 79.2625 292.917 79.1341 292.915 79.0025C292.917 78.871 292.958 78.7431 293.032 78.6343C293.106 78.5255 293.21 78.4405 293.331 78.3896C293.436 78.3506 293.548 78.3362 293.66 78.3476C293.771 78.3589 293.878 78.3958 293.973 78.4553C294.316 78.6814 294.316 79.017 294.367 79.0025Z" fill="#455A64"/>
        <path d="M293.893 76.1279C293.551 76.3736 293.242 76.663 292.974 76.9889C292.643 77.3129 292.331 77.6564 292.04 78.0176C291.845 78.2513 291.701 78.5233 291.616 78.816C291.532 79.1087 291.51 79.4158 291.551 79.7176C291.631 80.0185 291.791 80.2924 292.013 80.5106C292.235 80.7288 292.511 80.8833 292.814 80.9579C293.057 81.0274 293.313 81.0457 293.564 81.0118C293.815 80.9779 294.056 80.8925 294.273 80.7609C295.002 80.3231 295.221 79.8781 295.192 79.8562C295.163 79.8343 294.827 80.1991 294.163 80.542C293.784 80.7346 293.345 80.7737 292.938 80.6514C292.696 80.5847 292.477 80.457 292.299 80.2807C292.121 80.1044 291.992 79.8853 291.924 79.6446C291.887 79.3864 291.904 79.1233 291.975 78.8721C292.045 78.6209 292.167 78.3871 292.332 78.1854C292.617 77.7841 292.945 77.4558 293.186 77.1348C293.466 76.8326 293.704 76.4939 293.893 76.1279Z" fill="#455A64"/>
        <path d="M316.022 128.185H287.699C287.699 128.185 291.347 123.683 300.745 123.683C309.522 123.683 314.76 126.266 316.022 128.185Z" fill="#263238"/>
        <path d="M323.019 38.524L321.574 36.3644L323.354 35L324.879 37.1742L323.019 38.524Z" fill="#263238"/>
        <path d="M320.576 39.8298L326.778 35.3281L332.731 42.4928C343.055 44.1563 347.214 50.6498 347.214 50.6498L328.726 64.7967C322.4 57.8072 325.399 47.8189 325.399 47.8189L320.576 39.8298Z" fill="#009960"/>
        <path d="M325.404 47.8046C326.724 47.0634 327.982 46.2193 329.169 45.2802C330.425 44.438 331.615 43.5014 332.73 42.4785C331.41 43.2197 330.151 44.0638 328.965 45.0029C327.707 45.8424 326.516 46.7792 325.404 47.8046Z" fill="#263238"/>
        <path d="M426.826 89.5889L410.585 125.514C410.148 126.296 409.522 126.954 408.763 127.428C408.004 127.903 407.138 128.178 406.244 128.229L331.307 128.126C331.398 127.366 331.76 126.664 332.327 126.15C332.894 125.635 333.627 125.342 334.393 125.325L362.847 124.705L377.403 89.7713C377.63 89.2255 378.012 88.7586 378.503 88.429C378.993 88.0994 379.57 87.9217 380.161 87.9181L425.542 87.5752C425.776 87.5856 426.004 87.6522 426.207 87.7694C426.41 87.8866 426.581 88.0509 426.707 88.2484C426.833 88.4459 426.91 88.6708 426.93 88.9041C426.951 89.1374 426.915 89.3723 426.826 89.5889Z" fill="#263238"/>
        <path d="M364.221 128.535C364.311 128.417 364.385 128.287 364.44 128.148C364.586 127.835 364.761 127.419 364.979 126.988L366.884 122.684C368.467 119.036 370.619 113.987 372.932 108.383C375.245 102.78 377.31 97.6875 378.703 93.9738C379.433 92.1133 379.973 90.6103 380.338 89.5962C380.498 89.1073 380.637 88.7134 380.746 88.385C380.802 88.2442 380.841 88.0973 380.863 87.9473C380.777 88.0712 380.708 88.2062 380.659 88.3486C380.527 88.6696 380.36 89.0782 380.163 89.5305C379.725 90.6249 379.126 92.0987 378.397 93.9081L372.502 108.208C370.203 113.782 368.124 118.824 366.577 122.552C365.848 124.347 365.257 125.821 364.812 126.93L364.352 128.126C364.289 128.256 364.245 128.393 364.221 128.535Z" fill="#455A64"/>
        <path d="M393.602 107.004C393.6 107.465 393.735 107.916 393.99 108.299C394.245 108.683 394.608 108.982 395.033 109.16C395.458 109.337 395.927 109.384 396.379 109.295C396.831 109.206 397.246 108.985 397.572 108.66C397.898 108.335 398.121 107.92 398.211 107.468C398.302 107.017 398.256 106.548 398.08 106.123C397.904 105.697 397.606 105.333 397.223 105.077C396.84 104.821 396.39 104.684 395.929 104.684C395.624 104.683 395.321 104.742 395.039 104.859C394.757 104.975 394.5 105.146 394.284 105.361C394.067 105.577 393.896 105.833 393.779 106.115C393.662 106.397 393.602 106.699 393.602 107.004Z" fill="white"/>
        <path d="M431.175 70C431.175 70 431.175 69.6501 431.175 68.9747C431.175 68.2993 431.175 67.2984 431.175 65.9965C431.175 63.3926 431.175 59.5763 431.175 54.7021C431.175 44.9782 431.175 31.0474 431.126 14.2523L431.224 14.3499H361.163L361.285 14.2278C361.285 34.3511 361.285 53.3758 361.285 69.9756L361.171 69.8698L411.792 69.9268H426.13H429.93H426.105H411.792L361.106 69.9837H361V69.8698C361 53.27 361 34.2453 361 14.1221V14H361.13H431.191H431.313V14.2767C431.313 31.1043 431.313 45.0514 431.256 54.7916C431.256 59.6739 431.256 63.4659 431.256 66.0616C431.256 67.3554 431.256 68.3481 431.256 69.0235C431.256 69.6989 431.175 70 431.175 70Z" fill="#E0E0E0"/>
        <path d="M372.693 24.5864H370.162V52.8794H372.693V24.5864Z" fill="#E0E0E0"/>
        <path d="M377.583 34.1963H375.053V52.8792H377.583V34.1963Z" fill="#EBEBEB"/>
        <path d="M382.484 28.1016H379.953V53.0257H382.484V28.1016Z" fill="#E0E0E0"/>
        <path d="M387.372 25.6768H384.842V52.8793H387.372V25.6768Z" fill="#EBEBEB"/>
        <path d="M392.263 34.7661H389.732V52.8795H392.263V34.7661Z" fill="#E0E0E0"/>
        <path d="M397.154 38.3223H394.623V52.8797H397.154V38.3223Z" fill="#EBEBEB"/>
        <path d="M402.044 27.4917H399.514V52.8878H402.044V27.4917Z" fill="#E0E0E0"/>
        <path d="M406.935 32.0645H404.404V52.8793H406.935V32.0645Z" fill="#EBEBEB"/>
        <path d="M411.824 28.4111H409.293V52.8796H411.824V28.4111Z" fill="#E0E0E0"/>
        <path d="M416.714 36.2065H414.184V52.8796H416.714V36.2065Z" fill="#EBEBEB"/>
        <path d="M421.615 33.0327H419.084V52.8793H421.615V33.0327Z" fill="#E0E0E0"/>
        <path d="M422.647 54.8484C422.647 54.9054 410.628 54.9542 395.794 54.9542C380.96 54.9542 368.941 54.9054 368.941 54.8484C368.941 54.7915 380.952 54.7427 395.794 54.7427C410.636 54.7427 422.647 54.7915 422.647 54.8484Z" fill="#E0E0E0"/>
        <path d="M373.775 57.0784C372.526 57.2195 371.265 57.2195 370.016 57.0784C371.265 56.9374 372.526 56.9374 373.775 57.0784Z" fill="#E0E0E0"/>
        <path d="M380.05 57.1922C378.556 57.3333 377.053 57.3333 375.559 57.1922C377.053 57.0512 378.556 57.0512 380.05 57.1922Z" fill="#E0E0E0"/>
        <path d="M385.34 57.1922C383.843 57.3333 382.336 57.3333 380.84 57.1922C382.336 57.0512 383.843 57.0512 385.34 57.1922Z" fill="#E0E0E0"/>
        <path d="M390.628 57.1922C389.135 57.3333 387.631 57.3333 386.137 57.1922C387.631 57.0512 389.135 57.0512 390.628 57.1922Z" fill="#E0E0E0"/>
        <path d="M395.974 57.1922C394.48 57.3333 392.976 57.3333 391.482 57.1922C392.976 57.0512 394.48 57.0512 395.974 57.1922Z" fill="#E0E0E0"/>
        <path d="M401.294 57.1922C399.801 57.3333 398.297 57.3333 396.803 57.1922C398.297 57.0512 399.801 57.0512 401.294 57.1922Z" fill="#E0E0E0"/>
        <path d="M406.617 57.1922C405.12 57.3333 403.614 57.3333 402.117 57.1922C403.614 57.0512 405.12 57.0512 406.617 57.1922Z" fill="#E0E0E0"/>
        <path d="M411.939 57.1922C410.443 57.3333 408.936 57.3333 407.439 57.1922C408.936 57.0512 410.443 57.0512 411.939 57.1922Z" fill="#E0E0E0"/>
        <path d="M417.251 57.1922C415.758 57.3333 414.254 57.3333 412.76 57.1922C414.254 57.0512 415.758 57.0512 417.251 57.1922Z" fill="#E0E0E0"/>
        <path d="M422.574 57.1922C421.08 57.3333 419.576 57.3333 418.082 57.1922C419.576 57.0512 421.08 57.0512 422.574 57.1922Z" fill="#E0E0E0"/>
    </g>
    <defs>
        <clipPath id="clip0_144_307">
            <rect width="450" height="160" rx="24" fill="white"/>
        </clipPath>
    </defs>
</svg>
