<svg width="229" height="30" viewBox="0 0 229 30" fill="none" xmlns="http://www.w3.org/2000/svg">
    <path d="M29.9681 15.0002C29.9681 23.2755 23.2594 29.9842 14.984 29.9842C6.70865 29.9842 0 23.2755 0 15.0002C0 6.72477 6.70865 0.0161133 14.984 0.0161133C23.2594 0.0161133 29.9681 6.72477 29.9681 15.0002ZM14.984 1.21484C7.37065 1.21484 1.19872 7.38676 1.19872 15.0002C1.19872 22.6135 7.37065 28.7855 14.984 28.7855C22.5974 28.7855 28.7694 22.6135 28.7694 15.0002C28.7694 7.38676 22.5974 1.21484 14.984 1.21484Z" fill="#009960"/>
    <path d="M21.7262 14.2512H15.7326V6.00994C15.7326 5.59608 15.3973 5.26074 14.9834 5.26074C14.5695 5.26074 14.2342 5.59608 14.2342 6.00994V14.2512H8.24059C7.41287 14.2512 6.74219 14.9218 6.74219 15.7496V21.7432C6.74219 22.5709 7.41287 23.2416 8.24059 23.2416H21.7262C22.5539 23.2416 23.2246 22.5709 23.2246 21.7432V15.7496C23.2246 14.9218 22.5539 14.2512 21.7262 14.2512Z" fill="#009960"/>
    <path d="M16.4824 13.5017V11.2541C16.4824 9.90551 16.9322 9.30615 17.3815 9.30615C17.831 9.30615 17.8313 9.60583 18.2805 9.60583C18.73 9.60583 18.7303 9.30615 19.1795 9.30615C19.6291 9.30615 19.9288 10.2052 19.9288 10.2052C19.9288 10.2052 19.3294 10.2052 18.73 11.1042L17.0818 13.5017H16.4824Z" fill="#009960"/>
    <path d="M13.4856 11.7036C12.4927 11.7036 11.6875 12.5089 11.6875 13.5017H13.4856V11.7036Z" fill="#009960"/>
    <path d="M17.6816 13.5017L19.1162 11.3967C19.9601 10.1585 21.0746 10.9182 22.3408 9.06103C23.016 8.07029 23.1847 7.82275 23.1847 7.82275L24.0514 8.41372C24.0514 8.41372 23.9668 8.53749 23.2075 9.65201C21.9413 11.5091 23.0558 12.2637 22.2119 13.502L17.6816 13.5017Z" fill="#009960"/>
    <path d="M11.2367 13.5016C11.2367 12.9217 11.4582 12.3949 11.8187 11.9963C11.49 11.6334 11.0162 11.4038 10.4875 11.4038C9.4947 11.4038 8.68945 12.2091 8.68945 13.2019C8.68945 13.3044 8.69994 13.4039 8.71642 13.5016H11.2367Z" fill="#009960"/>
    <path d="M13.4848 10.514C13.1666 10.229 12.747 10.0552 12.2861 10.0552C11.6157 10.0552 11.0319 10.4229 10.7227 10.9668C11.2882 11.0258 11.7901 11.2953 12.1521 11.6944C12.5252 11.4187 12.9852 11.2536 13.4848 11.2536V10.514Z" fill="#009960"/>
    <path d="M25.4729 12.0035C25.0234 11.554 23.8247 11.2543 23.0755 11.7038C23.19 12.3895 23.1288 13.1615 22.7617 13.7554C23.2718 14.0206 23.6665 14.4753 23.8538 15.0267C24.5889 14.6371 25.4729 13.9223 25.4729 13.5019C25.4729 12.9025 24.7237 12.7527 25.4729 12.0035Z" fill="#009960"/>
    <path d="M8.45743 12.2446C7.95126 12.1179 6.75973 11.82 6.29313 11.7034C5.23496 11.4388 5.84361 10.5047 5.84361 10.5047C5.84361 10.5047 5.69377 10.0552 4.94457 10.0552C4.34521 10.0552 4.04553 10.8044 4.04553 10.8044C4.04553 10.8044 3.14648 10.9356 3.14648 11.5536C3.14648 12.3028 3.59601 12.3028 3.59601 12.3028C3.59601 12.3028 3.74585 13.2018 4.34521 13.2018C4.94457 13.2018 5.69377 12.4526 6.74265 12.4526C7.27189 12.4526 7.94887 12.6019 8.30189 12.6897C8.33815 12.5341 8.3909 12.3855 8.45743 12.2446Z" fill="#009960"/>
    <path d="M8.2407 13.202C8.2407 13.1763 8.2437 13.1511 8.2446 13.1253C7.87929 13.0366 7.24426 12.9023 6.7423 12.9023C5.69341 12.9023 4.64453 13.6515 4.64453 14.2509C4.64453 14.7004 5.24389 14.7004 5.24389 14.7004C5.24389 14.7004 6.14293 13.8014 6.89214 13.6515C7.45554 13.5389 8.01864 13.511 8.26318 13.5041C8.24999 13.4049 8.2407 13.3048 8.2407 13.202Z" fill="#009960"/>
    <path d="M8.69521 11.8519C9.03175 11.4057 9.52922 11.0899 10.1025 10.9901C9.78066 10.4611 10.0063 9.28428 9.58976 9.00677C9.58976 9.00677 9.29008 9.15661 8.9904 9.15661C8.69072 9.15661 8.54088 8.85693 8.2412 8.85693C7.94152 8.85693 7.79167 9.15661 7.49199 9.15661C7.19231 9.15661 6.74279 8.85693 6.44311 8.85693C6.14343 8.85693 5.84375 9.00677 5.84375 9.45629C5.84375 10.0557 6.29327 10.5052 6.29327 10.5052C6.29327 10.5052 5.84375 11.1045 6.29327 11.2544C6.89263 11.4042 8.69072 11.8537 8.69072 11.8537C8.69072 11.8537 8.69252 11.8531 8.69521 11.8519Z" fill="#009960"/>
    <path d="M46.7656 13.0644L44.0966 7.10288C43.583 5.88978 42.3962 5.10791 41.1289 5.10791C39.5921 5.10791 38.5121 6.16009 38.2154 7.88505L36.1668 19.4012C36.1389 19.6445 36.1113 19.887 36.1113 20.1303C36.1113 22.0186 37.3529 23.3669 39.1051 23.3669C40.6437 23.3669 41.7768 22.315 42.0732 20.5894L42.5581 17.7308L43.7445 20.9403C44.3651 22.6117 45.3094 23.3669 46.7653 23.3669C48.1672 23.3669 49.2197 22.5322 49.8133 20.9131L50.9728 17.7308L51.6477 21.101C51.8904 22.4495 53.0775 23.3669 54.5878 23.3669C56.2052 23.3669 57.5001 22.0995 57.5001 20.4815C57.5001 20.2112 57.4735 19.8612 57.3926 19.4839L55.3424 7.88535C55.1806 6.91498 54.9385 6.40313 54.4254 5.91705C53.913 5.43187 53.1038 5.10821 52.3759 5.10821C51.2704 5.10821 50.2182 5.75552 49.7591 6.69951L46.7656 13.0644Z" fill="#009960"/>
    <path d="M65.3315 17.6975V16.3489H67.4029C68.3463 16.3489 68.7778 16.2303 69.2363 15.8808C69.7224 15.4751 70.0188 14.8322 70.0188 14.1577C70.0188 12.8903 69.0748 12.0036 67.6181 12.0036H65.3315V10.8048H68.2393C69.3448 10.8048 69.9655 10.6133 70.5049 10.1536C71.1249 9.64237 71.475 8.83054 71.475 7.96806C71.475 6.72738 70.6658 5.71116 69.4263 5.38751C69.0212 5.27992 68.8587 5.26074 67.1602 5.26074H63.6005C61.8474 5.26074 61.7114 5.27932 61.038 5.54814C60.4176 5.81815 59.8512 6.35278 59.6088 7.02736C59.3655 7.59286 59.3379 7.77746 59.3379 9.28755V19.052C59.3379 20.2918 59.3655 20.4543 59.4464 20.8319C59.6346 21.884 60.2288 22.6165 61.1447 22.994C61.6574 23.1828 62.0365 23.2416 63.4109 23.2416H68.0229C69.3712 23.2416 69.8843 23.1022 70.4773 22.6165C71.0707 22.1043 71.448 21.2931 71.448 20.4567C71.448 19.6472 71.0977 18.9019 70.4773 18.3625C69.857 17.85 69.2915 17.6975 67.9969 17.6975H65.3315Z" fill="#009960"/>
    <path d="M85.2626 16.3004C86.6375 14.7627 87.1769 13.4411 87.1769 11.7162C87.1769 8.80207 85.2347 6.30363 82.4566 5.52176C81.6754 5.33267 81.0272 5.26074 79.571 5.26074H77.0897C75.6602 5.26074 75.0671 5.44025 74.3925 6.03392C73.691 6.65396 73.4219 7.37289 73.4219 8.66811V19.753C73.4219 20.8864 73.6373 21.6683 74.1219 22.2877C74.6629 22.9626 75.5823 23.3672 76.4717 23.3672C78.1173 23.3672 79.4155 22.0728 79.4155 20.3733V17.9196L81.8399 21.9919C82.3793 22.882 83.228 23.3675 84.2799 23.3675C85.9512 23.3675 87.2381 22.0992 87.2381 20.4546C87.2381 19.8345 87.0463 19.1336 86.6681 18.5402L85.2626 16.3004ZM79.4152 10.7446C79.565 10.7722 79.871 10.7722 80.0053 10.7722C80.895 10.7446 81.3658 11.1285 81.3658 11.7746C81.3658 12.4225 80.8926 12.7528 80.0029 12.7528H79.5977H79.4152V10.7446Z" fill="#009960"/>
    <path d="M106.486 18.0006C106.486 16.4632 105.084 15.0877 103.52 15.0877C102.765 15.0877 101.956 15.438 101.47 15.9508L100.849 16.5975C100.149 17.353 99.1778 17.7851 98.2068 17.7851C96.2649 17.7851 94.7009 16.2199 94.7009 14.2776C94.7009 12.3093 96.2649 10.7726 98.2326 10.7726C99.2048 10.7726 100.149 11.149 100.796 11.8508L101.659 12.7945C102.063 13.2264 102.818 13.5225 103.52 13.5225C105.165 13.5225 106.486 12.1742 106.486 10.5553C106.486 9.36948 105.758 8.15487 104.301 6.99631C102.575 5.56713 100.472 4.81104 98.2878 4.81104C93.0281 4.81104 88.7402 9.04612 88.7402 14.2776C88.7402 19.4831 93.0008 23.6909 98.2602 23.6909C100.553 23.6909 102.792 22.8281 104.545 21.3174C105.812 20.2122 106.486 19.0785 106.486 18.0006Z" fill="#009960"/>
    <path d="M113.428 20.8441H118.993C119.829 22.792 120.638 23.3458 122.013 23.3458C123.659 23.3458 125.008 22.0344 125.008 20.4176C125.008 19.9579 124.9 19.4512 124.657 18.9917L118.993 6.91221C118.454 5.77882 117.429 5.10693 116.215 5.10693C115.028 5.10693 114.002 5.78092 113.491 6.88674L107.854 18.8362C107.612 19.3487 107.477 19.8872 107.477 20.4002C107.477 22.0722 108.771 23.3458 110.416 23.3458C111.846 23.3458 112.735 22.6422 113.491 20.8441M115.298 16.6485L116.216 14.4911L117.133 16.6485H115.298Z" fill="#009960"/>
    <path d="M129.828 5.26074C128.103 5.26074 127.012 5.92633 126.582 7.22065C126.447 7.62612 126.464 7.77746 126.464 9.28755V19.1872C126.464 20.4276 126.447 20.724 126.555 21.1288C126.744 21.8295 127.112 22.3204 127.787 22.7513C128.327 23.1298 128.884 23.2419 130.287 23.2419H132.795C134.035 23.2419 135.114 23.1571 135.843 23.0225C137.408 22.698 138.917 21.9134 140.077 20.8351C141.91 19.1348 142.963 16.7061 142.963 14.2254C142.963 11.6634 141.885 9.21683 139.996 7.54491C138.242 5.98087 136.166 5.26074 133.469 5.26074H129.828ZM132.308 10.8048H132.848C133.955 10.8048 134.574 10.8965 135.141 11.1657C136.302 11.732 137.056 12.9377 137.056 14.2593C137.056 15.3645 136.462 16.4673 135.572 17.1128C134.871 17.5983 134.405 17.6756 132.308 17.7035V10.8048Z" fill="#009960"/>
    <path d="M144.6 14.1431C144.6 19.4561 148.807 23.6909 154.094 23.6909C159.3 23.6909 163.561 19.4304 163.561 14.2243C163.561 9.01885 159.325 4.81104 154.067 4.81104C148.807 4.81104 144.6 8.96521 144.6 14.1431ZM150.56 14.2243C150.56 12.3093 152.151 10.7729 154.093 10.7729C156.035 10.7729 157.626 12.3369 157.626 14.2513C157.626 16.1929 156.035 17.8121 154.093 17.8121C152.151 17.8121 150.56 16.1926 150.56 14.2243Z" fill="#009960"/>
    <path d="M175.312 12.0938L170.572 6.29495C169.899 5.45884 169.23 5.10791 168.368 5.10791C166.506 5.10791 165.273 6.37526 165.273 8.28992V19.6727C165.273 20.9937 165.392 21.5334 165.877 22.2086C166.443 22.9353 167.324 23.3681 168.241 23.3681C169.131 23.3681 169.998 22.9632 170.564 22.2883C171.076 21.6416 171.267 21.1022 171.267 19.9154V16.1395L175.927 22.1537C176.547 22.9629 177.313 23.3678 178.256 23.3678C179.174 23.3678 180.004 22.9629 180.542 22.261C181.054 21.5873 181.157 20.9937 181.157 19.5639V8.56023C181.157 7.45411 180.992 6.83437 180.48 6.18706C179.914 5.51218 179.117 5.10791 178.227 5.10791C177.256 5.10791 176.339 5.62006 175.825 6.40283C175.394 7.02257 175.313 7.56349 175.313 8.74963L175.312 12.0938Z" fill="#009960"/>
    <path d="M188.948 20.8441H194.442C195.277 22.792 196.086 23.3458 197.462 23.3458C199.107 23.3458 200.456 22.0344 200.456 20.4176C200.456 19.9579 200.349 19.4512 200.105 18.9917L194.442 6.91221C193.902 5.77882 192.878 5.10693 191.663 5.10693C190.477 5.10693 189.451 5.78092 188.939 6.88674L183.301 18.8362C183.06 19.3487 182.924 19.8872 182.924 20.4002C182.924 22.0722 184.219 23.3458 185.864 23.3458C187.295 23.3458 188.184 22.6422 188.94 20.8441M190.746 16.6485L191.664 14.4911L192.58 16.6485H190.746Z" fill="#009960"/>
    <path d="M210.696 23.4026H208.273V5.05762H210.696V23.4026Z" fill="#009960"/>
    <path d="M228.999 7.04835H223.095V23.4026H220.685V7.04835H214.794V5.05762H228.999V7.04835Z" fill="#009960"/>
</svg>
