<svg width="424" height="412" viewBox="0 0 424 412" fill="none" xmlns="http://www.w3.org/2000/svg">
    <path d="M270.916 67.7602L282.296 19.3502C282.296 17.2102 283.796 14.2002 285.676 13.3502C286.613 12.9124 287.672 12.81 288.676 13.0602L315.786 19.9602C316.617 20.1518 317.373 20.5841 317.96 21.203C318.547 21.8219 318.938 22.6001 319.086 23.4402L320.556 30.7602L356.016 39.7602C360.836 40.5602 362.836 45.0202 361.616 48.3602L350.806 89.2002C349.086 93.9102 343.926 96.4802 339.806 95.4302L277.126 79.4902C272.836 78.4102 270.156 73.6902 270.916 67.7602Z" fill="#E0E0E0"/>
    <path d="M270.166 66.7599L280.166 26.2599C281.346 23.1599 284.056 21.3299 286.546 21.9699L357.586 40.0599C360.586 40.8299 362.056 44.8299 360.716 48.6199L351.716 86.1399C349.346 95.4699 343.716 96.9899 339.426 95.9099L277.156 80.0599C270.756 78.4299 267.796 74.7599 270.166 66.7599Z" fill="#EBEBEB"/>
    <path d="M317.435 70.9799C316.282 70.9786 315.136 70.8032 314.035 70.4599C311.841 69.7859 309.895 68.4763 308.445 66.6968C306.994 64.9173 306.104 62.7477 305.886 60.4622C305.669 58.1768 306.133 55.8781 307.222 53.8568C308.31 51.8354 309.974 50.1822 312.002 49.106C314.03 48.0299 316.331 47.5791 318.615 47.8107C320.899 48.0423 323.063 48.9459 324.834 50.4072C326.605 51.8686 327.902 53.822 328.563 56.0207C329.224 58.2194 329.218 60.5646 328.546 62.7599C327.815 65.1372 326.342 67.2179 324.342 68.6972C322.343 70.1764 319.923 70.9764 317.435 70.9799ZM317.435 48.7399C315.469 48.739 313.541 49.2842 311.866 50.3146C310.191 51.345 308.836 52.8201 307.95 54.5757C307.064 56.3312 306.683 58.2983 306.849 60.2577C307.015 62.217 307.722 64.0918 308.891 65.673C310.06 67.2542 311.645 68.4799 313.47 69.2134C315.294 69.9469 317.286 70.1594 319.225 69.8273C321.163 69.4952 322.971 68.6315 324.447 67.3325C325.923 66.0335 327.01 64.3501 327.586 62.4699C328.068 60.8843 328.172 59.208 327.89 57.5748C327.609 55.9417 326.949 54.3972 325.963 53.0648C324.978 51.7324 323.694 50.6491 322.215 49.9016C320.736 49.1541 319.103 48.7631 317.445 48.7599L317.435 48.7399Z" fill="#E0E0E0"/>
    <path d="M314.825 58.55L316.295 53.77L319.705 57.43L323.115 61.1L318.235 62.22L313.355 63.34L314.825 58.55Z" fill="#E0E0E0"/>
    <path d="M104.675 320.42L51.2154 349.31C49.4424 350.269 47.3612 350.484 45.4296 349.908C43.498 349.333 41.8742 348.013 40.9154 346.24L0.915419 272.24C-0.0437437 270.466 -0.259166 268.383 0.316492 266.45C0.89215 264.516 2.21179 262.891 3.98542 261.93L37.9154 243.62L78.7754 256.48L107.775 310.11C108.249 310.991 108.545 311.956 108.645 312.95C108.746 313.945 108.65 314.95 108.362 315.907C108.074 316.865 107.6 317.756 106.968 318.531C106.335 319.305 105.556 319.947 104.675 320.42Z" fill="#EBEBEB"/>
    <path d="M72.0158 292.11C72.0158 292.11 72.4558 291.85 73.1758 291.24C74.2088 290.31 74.9518 289.102 75.3158 287.76C75.7248 286.251 75.612 284.647 74.9958 283.21C74.7558 282.68 74.4458 282.14 74.1358 281.57L69.9158 273.92L67.4758 269.45L66.1858 267.07C65.7834 266.248 65.2904 265.473 64.7158 264.76C63.4521 263.305 61.6903 262.374 59.7758 262.15C58.7718 262.019 57.7517 262.09 56.7758 262.36C55.7861 262.667 54.8387 263.097 53.9558 263.64L29.4558 276.95C28.4798 277.608 27.673 278.487 27.1013 279.516C26.5296 280.544 26.209 281.694 26.1658 282.87C26.1077 284.023 26.3308 285.173 26.8158 286.22C27.3058 287.22 27.9158 288.29 28.4558 289.32L34.9158 301.17C35.4258 302.09 35.9158 303.1 36.4458 303.92C37.015 304.726 37.7433 305.407 38.5858 305.92C39.4009 306.409 40.3061 306.729 41.2476 306.862C42.189 306.994 43.1474 306.936 44.0658 306.69C44.9398 306.411 45.7787 306.032 46.5658 305.56L48.9158 304.3L53.4058 301.89L66.9758 294.68L70.7058 292.76L71.7058 292.27C71.8134 292.21 71.9274 292.163 72.0458 292.13C71.9503 292.208 71.8463 292.275 71.7358 292.33L70.7958 292.88C69.9158 293.36 68.6958 294.05 67.1458 294.88L53.6758 302.27L49.1758 304.76L46.7958 306.06C45.9755 306.558 45.0995 306.957 44.1858 307.25C42.6707 307.664 41.0645 307.598 39.5887 307.06C38.1129 306.523 36.8401 305.541 35.9458 304.25C35.3358 303.32 34.9458 302.4 34.3758 301.45L27.9158 289.62C27.3658 288.62 26.7858 287.62 26.2458 286.48C25.7211 285.345 25.4776 284.099 25.5358 282.85C25.5829 281.573 25.9307 280.325 26.5511 279.208C27.1714 278.09 28.0467 277.135 29.1058 276.42C37.8358 271.61 46.1058 267.21 53.6858 263.12C54.6243 262.552 55.6328 262.108 56.6858 261.8C57.7183 261.522 58.7956 261.45 59.8558 261.59C61.9026 261.84 63.7821 262.846 65.1258 264.41C65.7263 265.156 66.2396 265.968 66.6558 266.83C67.0858 267.64 67.5158 268.43 67.9358 269.21C68.7624 270.77 69.5624 272.267 70.3358 273.7C71.8658 276.56 73.2458 279.15 74.4558 281.43C74.7658 282 75.0558 282.54 75.3158 283.11C75.5372 283.656 75.6916 284.227 75.7758 284.81C75.9548 286.022 75.8178 287.261 75.3781 288.405C74.9384 289.549 74.2108 290.56 73.2658 291.34C72.8861 291.652 72.4656 291.911 72.0158 292.11Z" fill="#FAFAFA"/>
    <path d="M76.1257 285.36C75.9139 285.328 75.7083 285.264 75.5157 285.17L73.8357 284.51C72.3057 283.86 70.2257 283 67.7057 281.95L63.4957 280.15L61.1457 279.15L59.9157 278.63C59.5372 278.482 59.1237 278.447 58.7257 278.53C58.3171 278.618 57.9428 278.823 57.6481 279.119C57.3535 279.416 57.1512 279.791 57.0657 280.2C56.9057 281.15 56.7457 282.12 56.5757 283.11C56.2357 285.11 55.8957 287.11 55.5757 289.27C55.4157 290.22 55.2557 291.15 55.1057 292.03L55.0457 292.38L54.7057 292.28L49.1357 290.76L47.8157 290.38C47.4261 290.233 47.012 290.162 46.5957 290.17C46.2097 290.188 45.8347 290.304 45.5058 290.507C45.177 290.71 44.9051 290.993 44.7157 291.33C44.5394 291.686 44.4084 292.062 44.3257 292.45L43.9957 293.62C43.7757 294.39 43.5657 295.13 43.3557 295.85C42.9557 297.29 42.5657 298.62 42.2157 299.85L40.5357 305.59C40.3457 306.2 40.1857 306.71 40.0457 307.13C40.0032 307.315 39.9359 307.493 39.8457 307.66C39.848 307.47 39.8783 307.281 39.9357 307.1C40.0357 306.67 40.1557 306.15 40.3057 305.52C40.6857 304.07 41.1857 302.12 41.8057 299.73C42.1257 298.5 42.4857 297.16 42.8657 295.73C43.0657 294.997 43.2657 294.247 43.4657 293.48C43.5757 293.1 43.6757 292.7 43.7857 292.31C43.8731 291.876 44.0177 291.456 44.2157 291.06C44.45 290.637 44.7872 290.279 45.1962 290.021C45.6052 289.762 46.0727 289.61 46.5557 289.58C47.0393 289.566 47.5212 289.644 47.9757 289.81L49.3057 290.18L54.8557 291.72L54.4457 291.97C54.5957 291.09 54.7557 290.16 54.9157 289.21L55.9157 283.06C56.089 282.06 56.259 281.08 56.4257 280.12C56.537 279.595 56.8001 279.114 57.1823 278.737C57.5646 278.36 58.0491 278.104 58.5757 278C59.082 277.9 59.6063 277.949 60.0857 278.14L61.3157 278.68L63.6557 279.68L67.9157 281.53L73.9157 284.28L75.5457 285.05C75.7484 285.135 75.9426 285.239 76.1257 285.36Z" fill="#FAFAFA"/>
    <path d="M47.4664 282.2C47.4664 282.15 47.7464 281.97 48.1764 281.54C48.7708 280.926 49.1528 280.137 49.2664 279.29C49.3466 278.68 49.2744 278.059 49.0563 277.483C48.8382 276.907 48.4809 276.394 48.0164 275.99C47.4518 275.517 46.758 275.225 46.0251 275.151C45.2922 275.078 44.5541 275.227 43.9069 275.578C43.2597 275.93 42.7333 276.468 42.3961 277.123C42.0589 277.778 41.9266 278.519 42.0164 279.25C42.1021 279.862 42.3378 280.443 42.7024 280.942C43.067 281.441 43.5493 281.843 44.1064 282.11C44.8747 282.477 45.74 282.589 46.5764 282.43C46.8854 282.337 47.1991 282.26 47.5164 282.2C47.2696 282.432 46.966 282.594 46.6364 282.67C45.7411 282.949 44.7755 282.895 43.9164 282.52C43.2673 282.244 42.6991 281.807 42.2653 281.251C41.8314 280.694 41.5462 280.037 41.4364 279.34C41.309 278.48 41.4491 277.602 41.8374 276.824C42.2258 276.047 42.8438 275.407 43.6078 274.993C44.3717 274.578 45.2446 274.408 46.1083 274.506C46.972 274.604 47.7847 274.965 48.4364 275.54C48.9604 276.014 49.3555 276.613 49.5846 277.281C49.8138 277.949 49.8694 278.665 49.7464 279.36C49.5815 280.302 49.0848 281.153 48.3464 281.76C48.0942 281.978 47.7918 282.129 47.4664 282.2Z" fill="#FAFAFA"/>
    <path d="M30.1875 326.422L97.0471 290.287L108.349 311.198C109.151 312.682 109.331 314.423 108.849 316.04C108.366 317.656 107.262 319.015 105.778 319.817L50.1085 349.905C48.6246 350.707 46.8829 350.886 45.2665 350.404C43.6501 349.922 42.2914 348.817 41.4894 347.334L30.1875 326.422Z" fill="#E0E0E0"/>
    <path d="M37.916 243.62L49.176 264.44C49.6163 265.258 50.2136 265.981 50.9338 266.567C51.6539 267.154 52.4826 267.592 53.3726 267.858C54.2625 268.124 55.1961 268.211 56.1199 268.115C57.0437 268.02 57.9395 267.743 58.756 267.3L78.756 256.48L37.916 243.62Z" fill="#EBEBEB"/>
    <path d="M50.416 266.12C50.416 266.12 52.886 271.32 59.526 269.87C59.776 269.81 60.026 269.74 60.266 269.66C63.136 268.72 81.996 262.47 81.786 262.08L78.786 256.48L58.786 267.31C58.786 267.31 53.646 269.84 50.416 266.12Z" fill="#E0E0E0"/>
    <path d="M64.2858 323.89L66.4858 322.7L68.7658 326.92C68.0069 328.452 66.7862 329.708 65.2758 330.51C62.0058 332.28 58.3858 331.34 56.6958 328.2C55.0058 325.06 56.1958 321.53 59.5058 319.74C60.2977 319.263 61.1845 318.966 62.1037 318.869C63.0228 318.772 63.9521 318.878 64.8258 319.18L64.0558 321.44C63.5148 321.245 62.9382 321.169 62.3653 321.218C61.7924 321.266 61.2366 321.437 60.7358 321.72C60.2979 321.954 59.9102 322.271 59.5951 322.655C59.2799 323.038 59.0434 323.48 58.899 323.955C58.7546 324.43 58.7051 324.929 58.7535 325.423C58.8019 325.917 58.9471 326.397 59.1808 326.835C59.4146 327.273 59.7323 327.66 60.1159 327.976C60.4994 328.291 60.9413 328.527 61.4163 328.672C61.8912 328.816 62.39 328.865 62.8841 328.817C63.3782 328.769 63.8579 328.624 64.2958 328.39C64.9544 328.054 65.5131 327.55 65.9158 326.93L64.2858 323.89Z" fill="#FAFAFA"/>
    <path d="M65.9863 316.47L68.3863 315.17L74.0063 325.56L71.6063 326.86L65.9863 316.47Z" fill="#FAFAFA"/>
    <path d="M74.2959 314.47L75.7859 317.21L80.5959 314.61L81.5959 316.54L76.7859 319.15L78.7859 322.93L76.3759 324.23L70.7559 313.84L78.6159 309.59L79.6159 311.52L74.2959 314.47Z" fill="#FAFAFA"/>
    <path d="M361.706 372.41L323.916 354.15C322.666 353.544 321.707 352.467 321.25 351.154C320.792 349.842 320.874 348.402 321.476 347.15L346.736 294.87C347.342 293.62 348.42 292.661 349.732 292.204C351.044 291.746 352.484 291.828 353.736 292.43L377.736 304L387.046 332.07L368.716 369.96C368.417 370.581 367.998 371.138 367.484 371.597C366.969 372.056 366.37 372.41 365.719 372.637C365.068 372.865 364.378 372.962 363.69 372.923C363.001 372.884 362.327 372.71 361.706 372.41Z" fill="#EBEBEB"/>
    <path d="M364.356 342.68C364.356 342.68 364.676 342.82 365.306 342.98C366.238 343.185 367.21 343.119 368.106 342.79C368.746 342.547 369.326 342.168 369.806 341.68C370.08 341.405 370.322 341.1 370.526 340.77C370.726 340.42 370.906 340.03 371.096 339.62C371.856 338.01 372.736 336.18 373.696 334.17C374.176 333.17 374.696 332.1 375.206 330.99L376.016 329.31C376.318 328.749 376.553 328.155 376.716 327.54C377.015 326.248 376.826 324.891 376.186 323.73C375.869 323.129 375.438 322.595 374.916 322.16C374.342 321.731 373.718 321.375 373.056 321.1L355.666 312.76C354.902 312.482 354.083 312.386 353.276 312.482C352.468 312.577 351.694 312.861 351.016 313.31C350.35 313.747 349.798 314.336 349.406 315.03C349.036 315.72 348.696 316.48 348.336 317.2C346.926 320.1 345.576 322.9 344.286 325.56C343.976 326.23 343.606 326.89 343.356 327.56C343.134 328.202 343.046 328.882 343.096 329.56C343.152 330.215 343.339 330.851 343.647 331.432C343.954 332.013 344.376 332.526 344.886 332.94C345.392 333.319 345.943 333.634 346.526 333.88L348.206 334.7L351.366 336.24L360.886 340.92L363.466 342.21L364.136 342.56L364.356 342.69C364.271 342.674 364.19 342.643 364.116 342.6L363.426 342.29L360.816 341.08L351.226 336.52L348.056 335.01L346.366 334.2C345.757 333.939 345.182 333.603 344.656 333.2C344.102 332.759 343.644 332.21 343.311 331.585C342.977 330.961 342.775 330.275 342.716 329.57C342.646 328.829 342.738 328.082 342.986 327.38C343.256 326.67 343.606 326.06 343.916 325.38C345.196 322.71 346.546 319.91 347.916 317.01C348.276 316.28 348.596 315.56 348.996 314.81C349.421 314.055 350.021 313.414 350.746 312.94C351.475 312.457 352.307 312.151 353.175 312.047C354.043 311.943 354.924 312.043 355.746 312.34C361.966 315.29 367.746 318.15 373.126 320.73C373.813 321.023 374.461 321.399 375.056 321.85C375.899 322.528 376.533 323.43 376.887 324.452C377.24 325.475 377.299 326.576 377.056 327.63C376.879 328.266 376.631 328.88 376.316 329.46L375.496 331.14C374.966 332.24 374.446 333.29 373.956 334.3L371.316 339.76C371.116 340.16 370.936 340.55 370.716 340.92C370.504 341.264 370.248 341.58 369.956 341.86C369.449 342.36 368.838 342.743 368.166 342.98C367.239 343.302 366.237 343.343 365.286 343.1C364.958 343.005 364.644 342.864 364.356 342.68Z" fill="#FAFAFA"/>
    <path d="M369.785 342.26C369.726 342.125 369.682 341.985 369.655 341.84C369.565 341.52 369.465 341.12 369.345 340.63C369.085 339.51 368.735 338 368.345 336.17C368.125 335.17 367.895 334.17 367.645 333.08C367.515 332.52 367.385 331.95 367.255 331.36C367.185 331.07 367.125 330.77 367.055 330.47C367.002 330.265 366.906 330.073 366.773 329.908C366.64 329.743 366.473 329.608 366.283 329.514C366.094 329.419 365.886 329.366 365.674 329.358C365.462 329.351 365.251 329.389 365.055 329.47L363.225 330.37L359.355 332.28L357.625 333.13L357.405 333.24L357.325 333.01L355.915 329.32L355.595 328.42C355.519 328.143 355.393 327.883 355.225 327.65C355.054 327.444 354.835 327.284 354.588 327.183C354.34 327.081 354.071 327.043 353.805 327.07C353.536 327.114 353.274 327.191 353.025 327.3L352.235 327.59L350.735 328.14L348.035 329.14L344.135 330.52L343.085 330.87C342.963 330.918 342.835 330.952 342.705 330.97C342.705 330.97 342.815 330.89 343.055 330.79L344.055 330.37L347.895 328.86L350.575 327.86L352.075 327.29L352.865 326.99C353.143 326.865 353.435 326.774 353.735 326.72C354.068 326.681 354.406 326.727 354.717 326.852C355.028 326.978 355.303 327.18 355.515 327.44C355.713 327.709 355.862 328.01 355.955 328.33L356.285 329.22C356.735 330.42 357.195 331.67 357.665 332.95L357.365 332.82L359.095 331.97L362.965 330.07L364.815 329.17C365.153 329.02 365.528 328.974 365.893 329.036C366.258 329.098 366.596 329.267 366.865 329.52C367.13 329.759 367.315 330.073 367.395 330.42C367.465 330.72 367.535 331.03 367.595 331.33C367.725 331.92 367.845 332.49 367.965 333.05C368.195 334.16 368.405 335.2 368.605 336.15C368.985 338 369.285 339.52 369.515 340.65L369.735 341.87C369.771 341.997 369.788 342.128 369.785 342.26Z" fill="#FAFAFA"/>
    <path d="M359.984 324.94C359.984 324.94 360.224 325 360.634 325.06C361.218 325.153 361.815 325.051 362.334 324.77C362.704 324.57 363.019 324.284 363.254 323.935C363.489 323.587 363.637 323.187 363.684 322.77C363.728 322.403 363.691 322.03 363.575 321.679C363.46 321.327 363.269 321.005 363.017 320.735C362.764 320.465 362.455 320.253 362.112 320.115C361.769 319.977 361.4 319.915 361.03 319.934C360.661 319.953 360.3 320.053 359.973 320.226C359.646 320.399 359.361 320.642 359.138 320.937C358.914 321.232 358.758 321.572 358.68 321.933C358.601 322.295 358.603 322.669 358.684 323.03C358.787 323.609 359.075 324.138 359.504 324.54C359.814 324.83 360.034 324.94 360.014 324.98C359.994 325.02 359.764 324.98 359.394 324.67C358.882 324.281 358.526 323.72 358.394 323.09C358.286 322.615 358.3 322.121 358.437 321.653C358.573 321.186 358.827 320.761 359.174 320.42C359.6 319.977 360.155 319.68 360.76 319.571C361.365 319.462 361.988 319.546 362.542 319.812C363.096 320.078 363.552 320.512 363.845 321.052C364.138 321.592 364.253 322.211 364.174 322.82C364.12 323.304 363.943 323.765 363.662 324.162C363.38 324.559 363.003 324.878 362.564 325.09C361.982 325.37 361.319 325.434 360.694 325.27C360.431 325.23 360.185 325.115 359.984 324.94Z" fill="#FAFAFA"/>
    <path d="M328.225 333.143L375.45 355.962L369.163 368.973C368.43 370.492 367.122 371.657 365.53 372.212C363.937 372.767 362.189 372.666 360.67 371.932L324.897 354.647C323.378 353.913 322.213 352.606 321.658 351.013C321.103 349.42 321.204 347.672 321.938 346.153L328.225 333.143Z" fill="#E0E0E0"/>
    <path d="M377.715 303.99L370.605 318.76C370.044 319.926 369.967 321.267 370.393 322.489C370.818 323.711 371.711 324.715 372.875 325.28L387.025 332.11L377.715 303.99Z" fill="#EBEBEB"/>
    <path d="M370.176 320.09C369.647 321.208 369.516 322.474 369.803 323.677C370.09 324.881 370.779 325.951 371.756 326.71L372.176 327.04C373.866 328.26 384.976 336.3 385.116 336.04L387.026 332.04L372.916 325.23C372.916 325.23 369.396 323.4 370.176 320.09Z" fill="#E0E0E0"/>
    <path d="M343.435 351.2L344.995 351.95L343.555 354.95C342.388 355.144 341.189 354.969 340.125 354.45C339.588 354.232 339.1 353.906 338.694 353.491C338.287 353.077 337.971 352.583 337.763 352.041C337.556 351.499 337.463 350.92 337.489 350.34C337.515 349.76 337.66 349.192 337.915 348.67C338.17 348.149 338.53 347.686 338.972 347.309C339.414 346.933 339.928 346.652 340.484 346.483C341.039 346.314 341.623 346.261 342.2 346.328C342.777 346.394 343.333 346.579 343.835 346.87C344.422 347.121 344.946 347.497 345.371 347.972C345.796 348.447 346.111 349.01 346.295 349.62L344.715 350.1C344.608 349.717 344.417 349.362 344.158 349.06C343.899 348.757 343.578 348.515 343.215 348.35C342.907 348.193 342.57 348.098 342.224 348.072C341.879 348.047 341.531 348.09 341.203 348.2C340.874 348.31 340.57 348.484 340.31 348.712C340.049 348.941 339.836 349.219 339.684 349.53C339.532 349.841 339.444 350.18 339.424 350.526C339.404 350.872 339.454 351.218 339.569 351.545C339.685 351.872 339.864 352.172 340.097 352.429C340.33 352.686 340.611 352.893 340.925 353.04C341.378 353.276 341.885 353.39 342.395 353.37L343.435 351.2Z" fill="#FAFAFA"/>
    <path d="M348.275 349.15L349.975 349.97L346.425 357.32L344.725 356.49L348.275 349.15Z" fill="#FAFAFA"/>
    <path d="M352.756 353L351.826 354.94L355.226 356.58L354.566 357.94L351.166 356.3L349.866 358.98L348.166 358.16L351.716 350.81L357.266 353.49L356.616 354.86L352.756 353Z" fill="#FAFAFA"/>
    <path d="M98.3258 59.069L14.4902 78.3315L29.8899 145.355L113.725 126.093L98.3258 59.069Z" fill="#FAFAFA"/>
    <path d="M98.3253 59.0698L97.9153 59.1798L96.7453 59.4598L92.1953 60.5298L75.0453 64.5298L14.5353 78.5298L14.7053 78.2598C19.2953 98.2598 24.5553 121.08 30.1253 145.26L29.8253 145.07L113.675 125.85L113.515 126.1L102.455 77.4698C101.135 71.6098 100.095 67.0098 99.3853 63.8698C99.0353 62.2998 98.7653 61.0998 98.5853 60.2798C98.4053 59.4598 98.3253 59.0298 98.3253 59.0298C98.3253 59.0298 98.4253 59.4298 98.6153 60.2298C98.8053 61.0298 99.0953 62.2298 99.4553 63.7698C100.185 66.8998 101.255 71.4698 102.625 77.2898L113.915 126.05V126.25H113.715L29.9153 145.6L29.6653 145.66L29.6153 145.41C24.0653 121.21 18.8253 98.3398 14.2453 78.4098L14.1953 78.1898L14.4153 78.1398L75.1153 64.3098L92.2453 60.4398L96.7653 59.4398L97.9153 59.1898L98.3253 59.0698Z" fill="#E0E0E0"/>
    <path d="M96.2946 63.9787L18.3457 81.8887L31.8062 140.472L109.755 122.562L96.2946 63.9787Z" fill="#EBEBEB"/>
    <path d="M31.8047 140.47L50.6647 97.7998L72.7647 116.71L81.4047 101.9L109.755 122.57L31.8047 140.47Z" fill="#E0E0E0"/>
    <path d="M73.6648 87.82C73.9437 89.0344 73.8562 90.3043 73.4134 91.469C72.9706 92.6337 72.1924 93.6409 71.1771 94.3633C70.1619 95.0857 68.9552 95.4909 67.7097 95.5275C66.4642 95.5641 65.2358 95.2305 64.1799 94.569C63.124 93.9075 62.2879 92.9477 61.7775 91.811C61.267 90.6743 61.1051 89.4118 61.3122 88.1831C61.5193 86.9544 62.0862 85.8147 62.941 84.9081C63.7958 84.0015 64.9003 83.3688 66.1147 83.09C67.7432 82.7161 69.4534 83.0043 70.8693 83.8914C72.2852 84.7784 73.2908 86.1916 73.6648 87.82Z" fill="#E0E0E0"/>
    <path d="M187.2 0.0139553L57.332 5.41162L61.6475 109.242L191.515 103.844L187.2 0.0139553Z" fill="#FAFAFA"/>
    <path d="M187.196 0C187.196 0 186.976 0 186.566 0L184.746 0.0900002L177.696 0.429996L151.106 1.62L57.3459 5.76L57.6659 5.41C58.9659 36.31 60.4459 71.74 62.0259 109.23L61.6359 108.87L191.506 103.53L191.206 103.85C189.976 72.59 188.946 46.67 188.206 28.54C187.866 19.48 187.596 12.37 187.406 7.54C187.326 5.12 187.256 3.26 187.216 1.98C187.176 0.7 187.166 0.0499992 187.166 0.0499992C187.166 0.0499992 187.216 0.67 187.276 1.91C187.336 3.15 187.426 5.01 187.546 7.4C187.766 12.26 188.086 19.34 188.546 28.4C189.346 46.57 190.476 72.55 191.846 103.9V104.21H191.526L61.6659 109.61H61.2859V109.24C59.7359 71.75 58.2859 36.32 57.0059 5.42V5.08H57.3459L151.346 1.34L177.856 0.34L184.856 0.0900002H186.646L187.196 0Z" fill="#E0E0E0"/>
    <path d="M182.826 6.74124L62.0801 11.7598L65.852 102.511L186.598 97.4929L182.826 6.74124Z" fill="#EBEBEB"/>
    <path d="M65.8555 102.51L105.675 44.3398L133.275 78.5498L150.205 58.9498L186.595 97.4898L65.8555 102.51Z" fill="#E0E0E0"/>
    <path d="M142.606 35.89C142.682 37.7687 142.198 39.6277 141.218 41.2319C140.237 42.8361 138.803 44.1136 137.096 44.903C135.39 45.6924 133.488 45.9582 131.63 45.6669C129.773 45.3755 128.043 44.5401 126.66 43.2662C125.277 41.9923 124.303 40.337 123.861 38.5096C123.418 36.6822 123.528 34.7646 124.175 32.9992C124.822 31.2338 125.977 29.6998 127.496 28.5911C129.014 27.4824 130.828 26.8487 132.706 26.77C133.955 26.7178 135.202 26.9123 136.376 27.3425C137.55 27.7727 138.628 28.4302 139.547 29.2772C140.467 30.1243 141.21 31.1444 141.735 32.2791C142.26 33.4138 142.556 34.6408 142.606 35.89Z" fill="#E0E0E0"/>
    <path d="M156.357 172.33L135.967 114.76C134.597 112.52 134.107 108.45 135.487 106.31C136.155 105.238 137.172 104.429 138.367 104.02L170.967 93.1496C171.956 92.8034 173.024 92.7523 174.041 93.0027C175.059 93.2531 175.981 93.794 176.697 94.5596L183.057 101.17L225.737 86.9796C231.247 84.6096 236.277 87.8896 237.237 92.1496L253.187 141.54C254.537 147.54 250.907 153.64 245.957 155.29L170.577 180.43C165.397 182.12 159.507 179.02 156.357 172.33Z" fill="#009960"/>
    <g opacity="0.3">
        <path d="M156.357 172.33L135.967 114.76C134.597 112.52 134.107 108.45 135.487 106.31C136.155 105.238 137.172 104.429 138.367 104.02L170.967 93.1496C171.956 92.8034 173.024 92.7523 174.041 93.0027C175.059 93.2531 175.981 93.794 176.697 94.5596L183.057 101.17L225.737 86.9796C231.247 84.6096 236.277 87.8896 237.237 92.1496L253.187 141.54C254.537 147.54 250.907 153.64 245.957 155.29L170.577 180.43C165.397 182.12 159.507 179.02 156.357 172.33Z" fill="black"/>
    </g>
    <path d="M155.217 171.76L138.627 123.28C137.777 119.28 139.377 115.6 142.367 114.6L227.857 86.0896C231.477 84.8896 235.647 88.0896 236.777 92.8596L252.407 137.61C256.147 148.83 251.297 154.17 246.187 155.88L171.277 180.88C163.577 183.43 158.057 181.54 155.217 171.76Z" fill="#009960"/>
    <path d="M217.236 143.76C217.236 143.76 217.636 143.61 218.326 143.21C219.321 142.596 220.116 141.706 220.616 140.65C221.169 139.449 221.31 138.099 221.016 136.81C220.886 136.34 220.716 135.81 220.536 135.32L218.156 128.32L216.776 124.24C216.536 123.54 216.296 122.81 216.046 122.07C215.831 121.325 215.533 120.607 215.156 119.93C214.517 118.87 213.594 118.011 212.49 117.451C211.387 116.891 210.149 116.651 208.916 116.76C208.046 116.874 207.192 117.095 206.376 117.42L184.036 124.92C183.128 125.327 182.329 125.942 181.702 126.715C181.075 127.488 180.638 128.397 180.426 129.37C180.216 130.321 180.237 131.308 180.486 132.25C180.746 133.18 181.096 134.14 181.396 135.07C182.65 138.823 183.846 142.426 184.986 145.88C185.286 146.72 185.526 147.62 185.856 148.39C186.37 149.506 187.218 150.434 188.281 151.049C189.345 151.663 190.573 151.932 191.796 151.82C192.566 151.719 193.321 151.527 194.046 151.25L196.226 150.53L200.316 149.19L212.666 145.19L216.036 144.12L216.916 143.85L217.216 143.78L216.926 143.91L216.066 144.22L212.736 145.39L200.436 149.58L196.356 150.96L194.186 151.69C193.433 151.985 192.648 152.19 191.846 152.3C190.525 152.429 189.197 152.144 188.045 151.485C186.893 150.825 185.974 149.824 185.416 148.62C185.036 147.76 184.816 146.93 184.506 146.06L180.916 135.28C180.606 134.28 180.266 133.43 179.986 132.42C179.717 131.4 179.696 130.33 179.926 129.3C180.151 128.243 180.622 127.255 181.301 126.415C181.981 125.576 182.85 124.909 183.836 124.47C191.836 121.74 199.346 119.28 206.246 116.98C207.099 116.649 207.989 116.424 208.896 116.31C210.212 116.194 211.534 116.452 212.709 117.056C213.884 117.659 214.864 118.583 215.536 119.72C215.929 120.428 216.238 121.18 216.456 121.96C216.706 122.7 216.946 123.42 217.176 124.13C217.646 125.55 218.096 126.92 218.516 128.22C219.376 130.82 220.146 133.22 220.826 135.22C220.996 135.74 221.166 136.22 221.286 136.74C221.391 137.226 221.438 137.723 221.426 138.22C221.405 139.251 221.117 140.26 220.592 141.148C220.066 142.036 219.32 142.774 218.426 143.29C218.054 143.501 217.653 143.66 217.236 143.76Z" fill="#FAFAFA"/>
    <path d="M221.647 138.76C221.477 138.696 221.316 138.612 221.167 138.51L219.917 137.76L215.187 134.76L211.917 132.59L210.107 131.41L209.167 130.8C208.865 130.621 208.517 130.534 208.167 130.55C207.814 130.561 207.472 130.675 207.182 130.877C206.893 131.08 206.669 131.362 206.537 131.69L205.707 134.05L203.947 139.05C203.667 139.82 203.407 140.57 203.147 141.28L203.047 141.57L202.777 141.44L198.397 139.32L197.397 138.82C197.089 138.637 196.75 138.515 196.397 138.46C196.072 138.425 195.743 138.471 195.44 138.593C195.136 138.715 194.868 138.91 194.657 139.16C194.454 139.425 194.289 139.718 194.167 140.03L193.727 140.95L192.867 142.72L191.337 145.88L189.097 150.41L188.467 151.63C188.395 151.773 188.312 151.91 188.217 152.04C188.245 151.879 188.299 151.723 188.377 151.58C188.517 151.24 188.697 150.83 188.917 150.33C189.437 149.17 190.147 147.62 191.007 145.73C191.457 144.73 191.947 143.68 192.477 142.54C192.747 141.96 193.017 141.37 193.307 140.76C193.447 140.45 193.597 140.14 193.737 139.82C193.876 139.466 194.058 139.13 194.277 138.82C194.535 138.501 194.869 138.252 195.248 138.097C195.627 137.941 196.039 137.884 196.447 137.93C196.853 137.986 197.243 138.122 197.597 138.33L198.597 138.82L202.997 140.92L202.617 141.07C202.877 140.36 203.137 139.61 203.407 138.84L205.187 133.84L206.037 131.47C206.205 131.048 206.494 130.685 206.867 130.427C207.241 130.169 207.683 130.027 208.137 130.02C208.574 130.01 209.005 130.128 209.377 130.36L210.377 130.98L212.167 132.19L215.377 134.35L220.017 137.52L221.257 138.41C221.4 138.51 221.531 138.628 221.647 138.76Z" fill="#FAFAFA"/>
    <path d="M198.246 131.95C198.246 131.95 198.506 131.81 198.926 131.51C199.514 131.089 199.949 130.489 200.166 129.8C200.322 129.302 200.353 128.774 200.257 128.261C200.161 127.749 199.941 127.267 199.616 126.86C199.215 126.371 198.676 126.014 198.07 125.836C197.464 125.658 196.818 125.666 196.216 125.86C195.617 126.06 195.094 126.438 194.715 126.944C194.336 127.449 194.12 128.058 194.096 128.69C194.077 129.211 194.188 129.728 194.418 130.196C194.649 130.664 194.992 131.067 195.416 131.37C195.998 131.789 196.699 132.01 197.416 132C197.688 131.965 197.962 131.945 198.236 131.94C198.236 131.94 197.986 132.13 197.436 132.21C196.648 132.31 195.85 132.126 195.186 131.69C194.689 131.364 194.282 130.918 194.002 130.394C193.723 129.87 193.58 129.284 193.586 128.69C193.597 127.947 193.838 127.227 194.276 126.628C194.715 126.029 195.328 125.581 196.032 125.346C196.736 125.111 197.496 125.1 198.206 125.316C198.916 125.532 199.542 125.963 199.996 126.55C200.361 127.021 200.601 127.577 200.694 128.166C200.787 128.756 200.729 129.359 200.526 129.92C200.254 130.664 199.726 131.288 199.036 131.68C198.556 131.95 198.256 131.98 198.246 131.95Z" fill="#FAFAFA"/>
    <path d="M80.3467 380.22L42.9167 222.13C41.3467 215.51 43.4567 208.38 48.6267 204.27C51.171 202.196 54.3448 201.05 57.6267 201.02L161.227 197.76C163.951 197.704 166.632 198.445 168.941 199.891C171.25 201.337 173.087 203.425 174.227 205.9L184.547 227.32L316.017 227.45C325.677 227.45 335.817 240.85 334.667 252.1L345.917 383.76C344.287 399.64 330.267 411.59 316.637 411.59H108.917C94.6768 411.63 82.6267 399.2 80.3467 380.22Z" fill="#009960"/>
    <g opacity="0.3">
        <path d="M80.3467 380.22L42.9167 222.13C41.3467 215.51 43.4567 208.38 48.6267 204.27C51.171 202.196 54.3448 201.05 57.6267 201.02L161.227 197.76C163.951 197.704 166.632 198.445 168.941 199.891C171.25 201.337 173.087 203.425 174.227 205.9L184.547 227.32L316.017 227.45C325.677 227.45 335.817 240.85 334.667 252.1L345.917 383.76C344.287 399.64 330.267 411.59 316.637 411.59H108.917C94.6768 411.63 82.6267 399.2 80.3467 380.22Z" fill="black"/>
    </g>
    <path d="M82.1363 384.82L72.2363 209.68L317.436 205.97L326.036 381.5L82.1363 384.82Z" fill="#E0E0E0"/>
    <path d="M81.017 216.86C80.9918 217.177 80.8746 217.481 80.6797 217.733C80.4848 217.985 80.2208 218.175 79.9198 218.279C79.6188 218.384 79.2939 218.398 78.9848 218.321C78.6757 218.244 78.3957 218.078 78.1792 217.844C77.9627 217.611 77.8189 217.319 77.7654 217.005C77.712 216.691 77.7512 216.368 77.8782 216.076C78.0053 215.784 78.2147 215.535 78.4808 215.36C78.747 215.185 79.0584 215.091 79.377 215.09C79.6012 215.098 79.8216 215.15 80.0256 215.243C80.2296 215.336 80.4131 215.469 80.5655 215.633C80.718 215.798 80.8363 215.991 80.9138 216.202C80.9913 216.412 81.0264 216.636 81.017 216.86Z" fill="#EBEBEB"/>
    <path d="M87.3764 216.86C87.3511 217.177 87.2339 217.481 87.0391 217.733C86.8442 217.985 86.5801 218.175 86.2791 218.279C85.9782 218.384 85.6532 218.398 85.3441 218.321C85.035 218.244 84.7551 218.078 84.5386 217.844C84.322 217.611 84.1783 217.319 84.1248 217.005C84.0714 216.691 84.1105 216.368 84.2376 216.076C84.3646 215.784 84.5741 215.535 84.8402 215.36C85.1064 215.185 85.4178 215.091 85.7364 215.09C85.9606 215.098 86.181 215.15 86.385 215.243C86.5889 215.336 86.7724 215.469 86.9249 215.633C87.0773 215.798 87.1957 215.991 87.2732 216.202C87.3507 216.412 87.3858 216.636 87.3764 216.86Z" fill="#EBEBEB"/>
    <path d="M93.7475 216.86C93.7222 217.177 93.605 217.481 93.4102 217.733C93.2153 217.985 92.9512 218.175 92.6502 218.279C92.3492 218.384 92.0243 218.398 91.7152 218.321C91.4061 218.244 91.1262 218.078 90.9097 217.844C90.6931 217.611 90.5493 217.319 90.4959 217.005C90.4425 216.691 90.4816 216.368 90.6087 216.076C90.7357 215.784 90.9451 215.535 91.2113 215.36C91.4775 215.185 91.7889 215.091 92.1075 215.09C92.5593 215.108 92.9856 215.305 93.2929 215.636C93.6003 215.968 93.7637 216.408 93.7475 216.86Z" fill="#EBEBEB"/>
    <path d="M168.907 216.86L183.697 304.76L67.3271 322.24L52.5371 234.34L168.907 216.86Z" fill="#EBEBEB"/>
    <path d="M168.916 216.86L168.356 216.96L166.726 217.22L160.406 218.22L136.596 221.87L52.5963 234.63L52.8463 234.3C57.2663 260.46 62.3163 290.45 67.6763 322.19L67.2863 321.92L183.666 304.49L183.426 304.8C179.036 278.32 175.426 256.38 172.846 241.03C171.586 233.35 170.596 227.33 169.916 223.2C169.586 221.15 169.336 219.58 169.156 218.5C168.976 217.42 168.916 216.86 168.916 216.86C168.916 216.86 169.026 217.38 169.216 218.43C169.406 219.48 169.676 221.05 170.026 223.07C170.736 227.18 171.766 233.18 173.086 240.82C175.716 256.2 179.466 278.19 183.986 304.72L184.036 304.98H183.756L67.3763 322.56L67.0463 322.61L66.9863 322.29C61.6563 290.55 56.6263 260.56 52.2363 234.39V234.11H52.5363L136.786 221.61L160.556 218.11L166.826 217.21L168.426 216.98L168.916 216.86Z" fill="#263238"/>
    <path d="M70.4066 316.1L178.607 299.85L165.677 223.02L57.4766 239.27L70.4066 316.1Z" fill="#455A64"/>
    <g opacity="0.3">
        <path d="M70.4062 316.1L100.166 262.67L128.596 289.03L141.786 270.67L178.606 299.85L70.4062 316.1Z" fill="black"/>
    </g>
    <g opacity="0.3">
        <path d="M132.526 251.81C132.68 252.895 132.616 254 132.337 255.06C132.059 256.12 131.571 257.114 130.903 257.983C130.235 258.852 129.401 259.579 128.448 260.121C127.495 260.663 126.444 261.01 125.356 261.14C123.153 261.517 120.89 261.021 119.048 259.757C117.205 258.493 115.927 256.56 115.486 254.37C115.33 253.285 115.393 252.181 115.67 251.12C115.948 250.06 116.434 249.067 117.101 248.197C117.768 247.328 118.602 246.601 119.555 246.059C120.507 245.516 121.558 245.17 122.646 245.04C124.85 244.657 127.117 245.151 128.962 246.416C130.808 247.68 132.087 249.616 132.526 251.81Z" fill="black"/>
    </g>
    <path d="M89.2065 393.13L85.8965 222.72L336.676 222.19L335.646 390.59L89.2065 393.13Z" fill="#EBEBEB"/>
    <path d="M100.437 229.39C100.412 229.707 100.294 230.011 100.1 230.263C99.9048 230.515 99.6407 230.705 99.3397 230.809C99.0387 230.913 98.7138 230.928 98.4047 230.851C98.0956 230.774 97.8157 230.608 97.5991 230.374C97.3826 230.141 97.2388 229.849 97.1854 229.535C97.1319 229.221 97.1711 228.898 97.2982 228.606C97.4252 228.313 97.6346 228.065 97.9008 227.89C98.1669 227.714 98.4783 227.621 98.7969 227.62C99.2488 227.638 99.675 227.834 99.9824 228.166C100.29 228.498 100.453 228.938 100.437 229.39Z" fill="#E0E0E0"/>
    <path d="M106.306 229.39C106.281 229.708 106.163 230.011 105.968 230.264C105.773 230.516 105.508 230.706 105.206 230.81C104.905 230.914 104.58 230.928 104.27 230.85C103.961 230.772 103.681 230.605 103.465 230.371C103.249 230.136 103.106 229.843 103.053 229.529C103.001 229.214 103.042 228.891 103.17 228.599C103.299 228.307 103.51 228.059 103.777 227.885C104.045 227.711 104.357 227.619 104.676 227.62C104.899 227.629 105.119 227.682 105.322 227.775C105.524 227.869 105.707 228.002 105.858 228.167C106.01 228.331 106.127 228.524 106.204 228.734C106.281 228.943 106.315 229.166 106.306 229.39Z" fill="#E0E0E0"/>
    <path d="M94.1967 229.39C94.1715 229.707 94.0542 230.011 93.8594 230.263C93.6645 230.515 93.4005 230.705 93.0995 230.809C92.7985 230.913 92.4736 230.928 92.1645 230.851C91.8554 230.774 91.5754 230.608 91.3589 230.374C91.1423 230.141 90.9986 229.849 90.9451 229.535C90.8917 229.221 90.9309 228.898 91.0579 228.606C91.185 228.313 91.3944 228.065 91.6605 227.89C91.9267 227.714 92.2381 227.621 92.5567 227.62C93.0086 227.638 93.4348 227.834 93.7422 228.166C94.0495 228.498 94.2129 228.938 94.1967 229.39Z" fill="#E0E0E0"/>
    <path d="M95.0371 397.289V235.259L344.787 234.729L331.377 400.77L95.0371 397.289Z" fill="#FAFAFA"/>
    <path d="M82.9172 379.35L97.8572 257.6C99.0172 248.08 105.797 241.02 113.787 241.02H341.917C351.567 241.02 359.057 251.19 357.917 262.74L345.917 383.03C342.417 408.03 332.807 411.63 319.177 411.63H105.997C91.7372 411.63 77.9172 408.05 82.9172 379.35Z" fill="#009960"/>
    <path d="M23.7363 411.63C23.7363 411.49 108.424 411.37 212.855 411.37C317.285 411.37 402 411.49 402 411.63C402 411.77 317.33 411.89 212.855 411.89C108.379 411.89 23.7363 411.76 23.7363 411.63Z" fill="#263238"/>
    <path d="M41.4551 352.56C42.8324 353.119 44.0821 353.951 45.1288 355.006C46.1755 356.061 46.9975 357.318 47.5451 358.7C48.6362 361.476 49.0708 364.467 48.8151 367.44C48.5051 373.17 45.6051 379.11 42.3751 383.86C37.3751 379.95 35.8151 372.71 35.2651 368.99C34.4151 363.11 36.4251 351.99 41.4551 352.56Z" fill="#009960"/>
    <path d="M48.5058 392.939C48.0822 391.331 48.0922 389.638 48.5349 388.035C48.9775 386.431 49.8369 384.973 51.0258 383.809C52.2254 382.673 53.6384 381.785 55.1833 381.198C56.7281 380.611 58.374 380.336 60.0258 380.389C60.7931 380.335 61.563 380.45 62.2816 380.724C63.0002 380.999 63.65 381.427 64.1858 381.979C64.5965 382.569 64.8411 383.257 64.8939 383.973C64.9466 384.689 64.8057 385.407 64.4858 386.05C63.8313 387.333 62.8478 388.42 61.6358 389.199C57.6358 392.049 53.2358 394.069 48.4558 392.939" fill="#009960"/>
    <path d="M43.3655 410.76C43.3621 410.364 43.3956 409.969 43.4655 409.58C43.5655 408.75 43.7055 407.67 43.8655 406.38C44.1905 402.826 45.0959 399.35 46.5455 396.09C48.0489 392.823 50.3962 390.017 53.3455 387.96C54.2466 387.36 55.2127 386.863 56.2255 386.48C56.5855 386.34 56.8755 386.28 57.0655 386.22C57.2555 386.16 57.3655 386.14 57.3655 386.16C56.017 386.693 54.7269 387.363 53.5155 388.16C50.6697 390.25 48.3992 393.026 46.9155 396.23C45.4967 399.457 44.5665 402.878 44.1555 406.38C43.9355 407.73 43.7655 408.81 43.6255 409.56C43.5707 409.966 43.4837 410.367 43.3655 410.76Z" fill="#263238"/>
    <path d="M40.666 361.18C40.7198 361.345 40.7501 361.516 40.756 361.69C40.756 362.07 40.856 362.55 40.926 363.15C41.076 364.42 41.256 366.27 41.456 368.54C41.876 373.1 42.356 379.4 42.726 386.37C43.096 393.34 43.296 399.66 43.376 404.23C43.376 406.52 43.426 408.37 43.426 409.65C43.426 410.25 43.426 410.74 43.426 411.12C43.4458 411.289 43.4458 411.46 43.426 411.63C43.4108 411.46 43.4108 411.289 43.426 411.12C43.426 410.74 43.406 410.25 43.366 409.65C43.366 408.32 43.256 406.48 43.176 404.24C43.026 399.67 42.786 393.36 42.416 386.39C42.046 379.42 41.606 373.13 41.266 368.57C41.106 366.33 40.966 364.49 40.866 363.17C40.866 362.56 40.796 362.08 40.776 361.7C40.7236 361.53 40.6868 361.356 40.666 361.18Z" fill="#263238"/>
    <path d="M40.4054 396.89C39.6226 393.468 38.0348 390.282 35.7739 387.597C33.513 384.911 30.6441 382.804 27.4054 381.45C25.7654 380.77 23.6354 380.39 22.4054 381.66C21.1754 382.93 21.5754 385.06 22.3154 386.66C23.9237 390.02 26.492 392.828 29.6959 394.729C32.8998 396.63 36.5954 397.539 40.3154 397.34" fill="#009960"/>
    <path d="M28.5258 386.76C28.8691 386.863 29.2035 386.993 29.5258 387.15C29.9319 387.304 30.3263 387.488 30.7058 387.7C31.2282 387.947 31.7357 388.224 32.2258 388.53C32.8475 388.907 33.4483 389.318 34.0258 389.76C34.6807 390.224 35.3115 390.721 35.9158 391.25C37.2786 392.494 38.4994 393.886 39.5558 395.4C40.5774 396.94 41.4227 398.591 42.0758 400.32C42.3497 401.077 42.5834 401.848 42.7758 402.63C42.9758 403.36 43.0758 404.06 43.1858 404.69C43.2958 405.32 43.3158 405.91 43.3658 406.41C43.3943 406.846 43.3943 407.284 43.3658 407.72C43.3842 408.091 43.3641 408.463 43.3058 408.83C43.2158 408.83 43.3058 407.24 42.8658 404.74C42.7498 404.065 42.5962 403.397 42.4058 402.74C42.2074 401.971 41.967 401.213 41.6858 400.47C41.0261 398.78 40.1845 397.167 39.1758 395.66C38.1392 394.17 36.9494 392.792 35.6258 391.55C35.0442 391.01 34.4333 390.502 33.7958 390.03C33.2158 389.56 32.6258 389.19 32.1058 388.84C29.9758 387.46 28.4958 386.89 28.5258 386.76Z" fill="#263238"/>
    <path d="M414.388 119H337.033V174.14H414.388V119Z" fill="#EBEBEB"/>
    <path d="M415 127.185C415 127.369 397.546 127.531 376 127.531C354.454 127.531 337 127.369 337 127.185C337 127 354.465 126.851 376 126.851C397.535 126.851 415 126.954 415 127.185Z" fill="#303F46"/>
    <path d="M343.351 123.162C343.379 123.373 343.342 123.588 343.244 123.778C343.147 123.968 342.994 124.124 342.806 124.225C342.617 124.326 342.403 124.367 342.191 124.342C341.979 124.318 341.779 124.229 341.619 124.088C341.458 123.948 341.345 123.761 341.293 123.554C341.241 123.347 341.254 123.129 341.329 122.929C341.405 122.729 341.54 122.557 341.715 122.436C341.891 122.315 342.1 122.25 342.313 122.251C342.571 122.235 342.825 122.322 343.02 122.492C343.214 122.663 343.333 122.904 343.351 123.162Z" fill="#303F46"/>
    <path d="M347.202 123.162C347.23 123.373 347.193 123.588 347.096 123.778C346.999 123.968 346.846 124.124 346.657 124.225C346.469 124.326 346.255 124.367 346.042 124.342C345.83 124.318 345.631 124.229 345.47 124.088C345.31 123.948 345.196 123.761 345.144 123.554C345.093 123.347 345.106 123.129 345.181 122.929C345.256 122.729 345.391 122.557 345.567 122.436C345.743 122.315 345.951 122.25 346.165 122.251C346.423 122.235 346.677 122.322 346.871 122.492C347.065 122.663 347.184 122.904 347.202 123.162Z" fill="#303F46"/>
    <path d="M350.949 123.162C350.928 123.421 350.807 123.661 350.61 123.831C350.414 124.002 350.159 124.088 349.9 124.072C349.768 124.093 349.633 124.085 349.505 124.049C349.376 124.013 349.257 123.95 349.156 123.863C349.054 123.777 348.973 123.669 348.917 123.548C348.861 123.427 348.832 123.295 348.832 123.162C348.832 123.028 348.861 122.896 348.917 122.775C348.973 122.654 349.054 122.546 349.156 122.46C349.257 122.373 349.376 122.31 349.505 122.274C349.633 122.238 349.768 122.23 349.9 122.251C350.159 122.235 350.414 122.321 350.61 122.492C350.807 122.662 350.928 122.903 350.949 123.162Z" fill="#303F46"/>
    <path d="M365.646 149.181C365.646 152.49 363.249 154.484 359.294 154.484H355.121V159.395H353.473V143.844H359.237C363.249 143.844 365.646 145.85 365.646 149.181ZM364.009 149.181C364.009 146.691 362.361 145.273 359.248 145.273H355.121V153.043H359.248C362.361 153.043 364.009 151.625 364.009 149.181Z" fill="#303F46"/>
    <path d="M382.19 143.844V159.395H380.564V152.225H370.834V159.395H369.197V143.844H370.834V150.761H380.564V143.844H382.19Z" fill="#303F46"/>
    <path d="M399.426 149.181C399.426 152.49 397.028 154.484 393.074 154.484H388.889V159.395H387.252V143.844H393.016C397.028 143.844 399.426 145.85 399.426 149.181ZM397.777 149.181C397.777 146.691 396.14 145.273 393.028 145.273H388.889V153.043H393.028C396.14 153.043 397.777 151.625 397.777 149.181Z" fill="#303F46"/>
    <path d="M423.17 212H382.02V241.33H423.17V212Z" fill="#009960"/>
    <path d="M395.901 225.62V231.45H394.551V229.06H391.901V231.45H390.561V225.62H391.901V227.92H394.551V225.62H395.901Z" fill="white"/>
    <path d="M398.481 226.72H396.621V225.62H401.691V226.72H399.831V231.45H398.481V226.72Z" fill="white"/>
    <path d="M409.82 225.62H411.17V230.35H414.09V231.45H409.82V225.62Z" fill="white"/>
    <path d="M407.74 231.45V227.95L406.03 230.83H405.41L403.71 228.03V231.45H402.41V225.62H403.53L405.71 229.24L407.85 225.62H408.96V231.45H407.74Z" fill="white"/>
    <path d="M423.49 216.36C423.49 216.43 414.2 216.48 402.75 216.48C391.3 216.48 382 216.43 382 216.36C382 216.29 391.29 216.23 402.75 216.23C414.21 216.23 423.49 216.28 423.49 216.36Z" fill="white"/>
    <path d="M385.411 214.21C385.427 214.323 385.409 214.438 385.358 214.54C385.307 214.642 385.227 214.726 385.127 214.781C385.027 214.836 384.913 214.859 384.799 214.847C384.686 214.835 384.579 214.789 384.492 214.715C384.406 214.641 384.344 214.542 384.315 214.432C384.286 214.322 384.292 214.205 384.331 214.098C384.37 213.991 384.44 213.899 384.533 213.833C384.626 213.767 384.737 213.731 384.851 213.73C384.989 213.722 385.124 213.767 385.228 213.857C385.333 213.946 385.398 214.073 385.411 214.21Z" fill="white"/>
    <path d="M387.411 214.21C387.427 214.323 387.409 214.438 387.358 214.54C387.307 214.642 387.227 214.726 387.127 214.781C387.027 214.836 386.913 214.859 386.799 214.847C386.686 214.835 386.579 214.789 386.492 214.715C386.406 214.641 386.344 214.542 386.315 214.432C386.286 214.322 386.292 214.205 386.331 214.098C386.37 213.991 386.44 213.899 386.533 213.833C386.626 213.767 386.737 213.731 386.851 213.73C386.989 213.722 387.124 213.767 387.228 213.857C387.333 213.946 387.398 214.073 387.411 214.21Z" fill="white"/>
    <path d="M389.411 214.21C389.427 214.323 389.409 214.438 389.358 214.54C389.307 214.642 389.227 214.726 389.127 214.781C389.027 214.836 388.913 214.859 388.799 214.847C388.686 214.835 388.579 214.789 388.492 214.715C388.406 214.641 388.344 214.542 388.315 214.432C388.286 214.322 388.292 214.205 388.331 214.098C388.37 213.991 388.44 213.899 388.533 213.833C388.626 213.767 388.737 213.731 388.851 213.73C388.989 213.722 389.124 213.767 389.228 213.857C389.333 213.946 389.398 214.073 389.411 214.21Z" fill="white"/>
    <path d="M22.085 182.524C22.073 181.783 22.2124 181.046 22.4946 180.36C22.7769 179.674 23.1961 179.052 23.7267 178.533C24.2572 178.015 24.888 177.61 25.5804 177.343C26.2728 177.076 27.0123 176.954 27.7537 176.982C28.4711 176.953 29.1867 177.073 29.8554 177.334C30.5241 177.596 31.1315 177.993 31.6392 178.5L31.1392 179.012C30.6963 178.581 30.1707 178.244 29.594 178.021C29.0174 177.799 28.4016 177.695 27.7838 177.717C26.5057 177.717 25.2799 178.225 24.3761 179.129C23.4723 180.033 22.9645 181.258 22.9645 182.536C22.9645 183.815 23.4723 185.04 24.3761 185.944C25.2799 186.848 26.5057 187.356 27.7838 187.356C28.4027 187.374 29.019 187.267 29.5956 187.042C30.1722 186.816 30.6972 186.476 31.1392 186.043L31.6392 186.561C31.1309 187.068 30.5236 187.465 29.8551 187.727C29.1866 187.989 28.4713 188.111 27.7537 188.085C27.0107 188.114 26.2697 187.99 25.576 187.722C24.8824 187.455 24.2508 187.048 23.72 186.527C23.1892 186.007 22.7703 185.383 22.4892 184.695C22.208 184.006 22.0705 183.268 22.085 182.524Z" fill="#009960"/>
    <path d="M33.1328 186.578L33.4943 185.976C34.478 186.881 35.7722 187.373 37.1087 187.349C39.2955 187.349 40.2653 186.398 40.2653 185.211C40.2653 181.934 33.4461 183.898 33.4461 179.874C33.4461 178.331 34.6509 176.97 37.3135 176.97C38.4863 176.96 39.6347 177.305 40.6087 177.958L40.3075 178.596C39.4181 177.995 38.369 177.674 37.2955 177.675C35.175 177.675 34.2232 178.657 34.2232 179.861C34.2232 183.139 41.0424 181.199 41.0424 185.163C41.0424 186.711 39.8376 188.048 37.1087 188.048C35.6422 188.097 34.2148 187.57 33.1328 186.578Z" fill="#009960"/>
    <path d="M42.6387 186.578L42.9941 185.976C43.9788 186.879 45.2724 187.371 46.6085 187.349C48.7893 187.349 49.7591 186.398 49.7591 185.211C49.7591 181.934 42.9399 183.898 42.9399 179.874C42.9399 178.331 44.1447 176.97 46.8073 176.97C47.9802 176.96 49.1288 177.304 50.1025 177.958L49.8073 178.596C48.9178 177.996 47.8688 177.675 46.7953 177.675C44.6748 177.675 43.723 178.657 43.723 179.862C43.723 183.139 50.5423 181.199 50.5423 185.163C50.5423 186.711 49.3073 188.048 46.6085 188.048C45.1438 188.097 43.7185 187.569 42.6387 186.578Z" fill="#009960"/>
    <path d="M59.8494 196.723C59.8494 196.723 59.8494 196.524 59.8494 196.12C59.8494 195.717 59.8494 195.175 59.8494 194.458C59.8494 192.994 59.8494 190.843 59.8133 188.139C59.8133 182.681 59.7651 174.843 59.7289 165.277L59.8855 165.434L11.2349 165.47L11.4277 165.277C11.4277 176.44 11.4277 187.06 11.4277 196.699L11.247 196.524L46.247 196.608L56.2831 196.657H58.9639H59.6566H59.9036H59.6807H59.006H56.3615L46.3614 196.705L11.247 196.795H11V196.614C11 186.976 11 176.355 11 165.193V165H11.1988L59.8494 165.042H60V165.193C59.9639 174.831 59.9398 182.663 59.9217 188.151C59.9217 190.855 59.8916 192.97 59.8795 194.434C59.8795 195.139 59.8795 195.687 59.8795 196.066C59.8795 196.446 59.8494 196.723 59.8494 196.723Z" fill="#009960"/>
    <path d="M59.8485 169.964C59.8485 170.073 48.9509 170.157 35.5112 170.157C22.0714 170.157 11.1738 170.073 11.1738 169.964C11.1738 169.856 22.0654 169.771 35.5112 169.771C48.957 169.771 59.8485 169.862 59.8485 169.964Z" fill="#009960"/>
    <path d="M14.7904 167.675C14.785 167.748 14.7652 167.82 14.732 167.886C14.6988 167.952 14.6529 168.011 14.5969 168.059C14.5409 168.107 14.476 168.144 14.4058 168.167C14.3356 168.19 14.2616 168.198 14.188 168.193C14.0888 168.178 13.996 168.135 13.9206 168.068C13.8452 168.002 13.7904 167.916 13.7626 167.819C13.7349 167.723 13.7354 167.621 13.7641 167.525C13.7928 167.428 13.8485 167.343 13.9246 167.277C14.0006 167.212 14.0938 167.17 14.1932 167.156C14.2925 167.142 14.3938 167.156 14.485 167.198C14.5761 167.24 14.6534 167.307 14.7075 167.392C14.7616 167.476 14.7904 167.574 14.7904 167.675Z" fill="#009960"/>
    <path d="M16.958 167.675C16.9457 167.823 16.8756 167.961 16.7629 168.057C16.6502 168.154 16.5039 168.203 16.3556 168.193C16.2825 168.201 16.2085 168.193 16.1385 168.171C16.0685 168.148 16.004 168.111 15.9493 168.062C15.8946 168.013 15.8508 167.953 15.8208 167.886C15.7909 167.818 15.7754 167.746 15.7754 167.672C15.7754 167.598 15.7909 167.526 15.8208 167.459C15.8508 167.391 15.8946 167.331 15.9493 167.282C16.004 167.233 16.0685 167.196 16.1385 167.173C16.2085 167.151 16.2825 167.143 16.3556 167.151C16.5049 167.141 16.652 167.191 16.7649 167.289C16.8778 167.387 16.9472 167.526 16.958 167.675Z" fill="#009960"/>
    <path d="M19.1196 167.675C19.1355 167.796 19.1141 167.919 19.0583 168.028C19.0025 168.137 18.9149 168.226 18.8072 168.284C18.6995 168.342 18.5767 168.365 18.4552 168.352C18.3337 168.338 18.2192 168.288 18.1269 168.207C18.0347 168.127 17.969 168.021 17.9387 167.902C17.9084 167.784 17.9149 167.659 17.9572 167.544C17.9996 167.43 18.0758 167.33 18.1759 167.26C18.2759 167.19 18.395 167.152 18.5172 167.151C18.5913 167.145 18.6658 167.154 18.7364 167.177C18.8069 167.201 18.8721 167.238 18.9282 167.286C18.9842 167.335 19.03 167.395 19.0629 167.461C19.0958 167.528 19.1151 167.601 19.1196 167.675Z" fill="#009960"/>
</svg>
